<svg xmlns="http://www.w3.org/2000/svg" viewBox="0 0 2217.74 2653.24"><defs><style>.cls-1{fill:#e9aebb;stroke:#e08296;}.cls-1,.cls-2,.cls-21,.cls-22,.cls-24,.cls-3{stroke-miterlimit:10;}.cls-1,.cls-24{stroke-width:164.51px;}.cls-2{fill:#fcfcf3;stroke:#f9f7e4;stroke-width:129.91px;}.cls-21,.cls-22,.cls-3{fill:#cc5861;stroke:#bb3a44;}.cls-3{stroke-width:25.41px;}.cls-4{fill:#da6631;}.cls-5{fill:#da662f;}.cls-6{fill:#da652f;}.cls-7{fill:#da6733;}.cls-8{fill:#da6530;}.cls-9{fill:#da6430;}.cls-10{fill:#da6531;}.cls-11{fill:#da642f;}.cls-12{fill:#d96430;}.cls-13{fill:#db6935;}.cls-14{fill:#db6933;}.cls-15{fill:#da6632;}.cls-16{fill:#da6732;}.cls-17{fill:#da6431;}.cls-18{fill:#d96431;}.cls-19{fill:#d96331;}.cls-20{fill:#d96330;}.cls-21{stroke-width:33.39px;}.cls-22{stroke-width:17.31px;}.cls-23{fill:#f9f7e4;}.cls-24{fill:#7ba9d9;stroke:#5d86ba;}</style></defs><g id="Livello_2" data-name="Livello 2"><g id="Livello_7" data-name="Livello 7"><circle class="cls-1" cx="1470.02" cy="1391.45" r="523.96"/><path class="cls-2" d="M572.48,1183.32c-28.72-27.73-41.17-63.66-49-101.22-9.71-46.42-9.84-93.62-6.15-140.71,1.07-13.62-6.36-21.26-15.79-26.73-37.34-21.64-57.72-54.39-65.61-95.91C429.56,698.37,502.89,633,599,584.13c27.49-14,57.2-23.08,87.84-28.2,16.39-2.73,30.51-10.41,45-18,14.05-7.3,16.68-16.62,13.6-31.12-11-51.78-14.49-103.6,1.7-155.23,17.35-55.29,43.48-104.19,97.08-132.65,15.87-8.42,34.2-12.68,49.1-22.38,21.69-14.13,43.31-25.53,68.36-34.34,32.81-11.54,64.19-28.69,97.53-40.07,27.69-9.46,44.67-32.77,67.15-48.89,18.71-13.41,40-11,45.13,9.9,11.47,47.1,48.31,74.35,77.61,107.17s57.37,67.51,91.89,95.29c46.28,37.24,96.84,68.33,147.51,99.3,81.4,49.75,162.9,99.78,228.87,170.18,74.21,79.2,111.06,173.37,109.79,282.17-.06,5.22.45,10.45.69,15.68-5.64,63.46-14.27,126.67-34.57,187.09-17.48,52-36.74,104.21-80.45,141.83-10.06,8.66-19.92,17.76-32.81,22.31-9.88,3.27-140.39,38.57-203.65,56.47-4,1.13-7.7,2.59-9.43,5-5.43,7.55-12.4,13.85-21.49,15.8-29.91,6.41-59.85,12.66-89.49,20.14-43,10.87-85.68,11.31-128.63.65-3.87-1-8-.92-12-1.34.29-7.21,5.76-11.08,10.1-15.67,2.81-3,7.37-7.25,4.47-10.29-11.91-12.49-161.29,11.65-183.7,40.87-3.29,4.29-3.64,10.32,1.13,14.32a8.64,8.64,0,0,0,12.58-1.71c6.79-10,16.37-6.24,25.19-6.64a107.38,107.38,0,0,0-21.67,19.92c-17.59,21.57-43.39,26.26-70.84,14.5-16.67-7.14-30.7-18.27-45.72-28-11.68-7.52-24-14.12-37.77-17.34.3-22.15-90.41-8.13-71.73-3-59.39,1.8-98.27-28.44-124.67-79-8.77-16.78-16.31-34.67-31.84-47-3.08-6.13-8.57-6.85-14.56-6.47l-.16-.12c1.54-19.5-2.31-34.72-26.34-35.79-6.78-.3-8.21-7.28-10.5-12.55-4-9.33-10.36-15.89-22.34-13.59A28.7,28.7,0,0,0,585.45,1133C580.19,1149.51,571,1165.08,572.48,1183.32Z"/><g id="fragola"><path class="cls-3" d="M1335.74,1050.78a65.91,65.91,0,0,0-6.9,25.88c-.69,14.28,2.86,27.93,9.61,40.93,13.42,25.9,33.27,45,57.88,58.61A374.53,374.53,0,0,0,1459,1204c12.83,4.26,25.8,6.35,38.72,4.14,18.75-3.2,31.68-14.06,39.41-31.71,7.64-17.45,10.31-36.4,10.74-56,.66-29.61-2.9-59-12.75-87.92-5.32-15.62-13.2-29.94-24.85-41.89s-25.46-17.85-41-18.37c-.4,0-.81-.08-1.22-.12-1.22.27-1.75,1.35-2.34,2.29a12.68,12.68,0,0,1-12.65,6.26c-.58,0-1.15,0-1.72-.07-2.64-.3-4.38.81-6.25,2.65a53.28,53.28,0,0,1-19.69,12.69,16.59,16.59,0,0,1-9.67,0c-3.29-.82-3.32-.81-3.92,2.63a20.34,20.34,0,0,1-2.27,6.25c-3.34,6.18-7.52,11.72-11.36,17.5-1.35,2-2.82,2-4.2-.41a23.45,23.45,0,0,0-6.84-7.14c-1.51-1.1-2.9-1.29-4.34-.36-3.33,2.15-7,3.85-10,6.54a13.11,13.11,0,0,1-4.18,2.25,7,7,0,0,0-4.42,4.71c-1.83,5.71-5.85,9.62-10.13,13.29a39.1,39.1,0,0,1-16.44,8.37C1336.89,1049.74,1336,1049.81,1335.74,1050.78Z"/><path class="cls-4" d="M1492.11,1027.89a4.51,4.51,0,0,0,1.28-6.51c-2.65-3.66-6.08-5.69-8.8-3.8a4.76,4.76,0,0,0-1.2,6.44C1485.77,1027.46,1490,1030.07,1492.11,1027.89Z"/><path class="cls-5" d="M1419,1050.19c3-1.9,2.79-5.16-.3-7.81-1.13-1-1.63-2.6-3.39-3-2.17-.47-3.93-.15-5,1.77-1.31,2.33-1,4.31.9,6.28.78.81,1.7,1.47,2.49,2.27A3.68,3.68,0,0,0,1419,1050.19Z"/><path class="cls-5" d="M1517,1097.49c2.91,4.65,7.44,5.71,9.88,2.29a3.94,3.94,0,0,0-.21-5.11,16.21,16.21,0,0,0-3.37-3.59,4.53,4.53,0,0,0-6,.31A5.08,5.08,0,0,0,1517,1097.49Z"/><path class="cls-6" d="M1524.92,1132.57c2.26-1.37,2.69-3,1.36-5.18-1.51-2.51-4.29-3.52-6.37-2.33s-2.38,3.44-.94,5.94A4,4,0,0,0,1524.92,1132.57Z"/><path class="cls-7" d="M1371.56,1120.5c1.4,2.21,4.26,3.16,6.07,2a4,4,0,0,0,1.19-5.73c-1.29-2.07-4.89-3.12-6.65-1.94S1370.19,1118.32,1371.56,1120.5Z"/><path class="cls-6" d="M1467.94,1113.38a3.47,3.47,0,0,0,1.23-5.27c-1.34-2.1-4.66-3.07-6.63-1.94-1.75,1-2,3.48-.5,5.85S1465.52,1114.86,1467.94,1113.38Z"/><path class="cls-8" d="M1441.33,1044.13c1.44,2.46,3.58,3.12,5.92,1.83a3.82,3.82,0,0,0,1.45-5.34c-1.19-2.06-4.65-3.2-6.49-2.12C1440.17,1039.7,1439.87,1041.65,1441.33,1044.13Z"/><path class="cls-9" d="M1430.22,1120.2c-2.21,1.35-2.45,2.55-1,4.94,1.64,2.69,3.7,3.37,6,2a3.69,3.69,0,0,0,1.4-5.47A4.51,4.51,0,0,0,1430.22,1120.2Z"/><path class="cls-6" d="M1446.22,1064c-1.43-2.36-3.27-3-5.12-1.88a4.42,4.42,0,0,0-1.41,5.88,3.94,3.94,0,0,0,5.56,1.46C1447.51,1068.17,1447.79,1066.6,1446.22,1064Z"/><path class="cls-10" d="M1412.1,1068.69c1.39,2.21,3.41,2.89,5.17,1.75s2.21-3.52.82-5.76c-1.17-1.9-3.82-2.85-5.37-2C1410.86,1063.82,1410.6,1066.29,1412.1,1068.69Z"/><path class="cls-11" d="M1431.78,1097.21c1.27,2,3.46,2.68,5.08,1.59s1.89-3.21.34-5.55c-1.33-2-3.16-2.61-4.86-1.58S1430.39,1095,1431.78,1097.21Z"/><path class="cls-12" d="M1489.74,1095c1.18,1.87,3.93,2.74,5.4,1.72s1.64-3.74.54-5.56-3.48-2.6-4.94-1.67A4,4,0,0,0,1489.74,1095Z"/><path class="cls-9" d="M1442.68,1170.08c-1.32-2.15-3.2-2.8-5-1.7a3.57,3.57,0,0,0-.86,5c1.39,2.28,3.64,3.26,5.18,2.25C1443.73,1174.52,1444,1172.22,1442.68,1170.08Z"/><path class="cls-13" d="M1481.58,1155.9c1.54,2.54,3.08,3.1,5.09,1.85s2.11-2.8.68-5.2-2.88-2.83-4.92-1.56S1480.24,1153.68,1481.58,1155.9Z"/><path class="cls-8" d="M1382.48,1042.15c1.53,2.51,2.93,3.08,4.82,1.95s2.1-3.49.82-5.51c-1.12-1.75-3.59-2.65-5-1.82C1381.17,1038,1381,1039.65,1382.48,1042.15Z"/><path class="cls-10" d="M1509.7,1044.34c1.26,2.12,3.38,3,5,2s2-3.25.76-5.32-3.38-2.94-5-2S1508.45,1042.26,1509.7,1044.34Z"/><path class="cls-12" d="M1398,1148.18c1.08,1.79,3.44,2.6,4.93,1.71,1.91-1.13,2.18-3.22.76-5.73-.82-1.44-3.47-2.31-4.84-1.59C1397.32,1143.4,1396.88,1146.28,1398,1148.18Z"/><path class="cls-14" d="M1429.55,1012.9c-1.35-2.22-3.29-3-5-2-1.52.88-1.82,3.75-.6,5.68a3.68,3.68,0,0,0,4.93,1.53C1430.82,1016.89,1431,1015.31,1429.55,1012.9Z"/><path class="cls-6" d="M1485.35,1186.8c-1.39-2.29-3.29-3.14-4.94-2.2s-2.14,3.32-1,5.32,3.47,2.92,5,2C1486.42,1190.8,1486.72,1189.06,1485.35,1186.8Z"/><path class="cls-15" d="M1401.12,1119.38c1.45,2.41,3.21,3.06,5.12,1.88s2-2.94.65-5.22-2.84-2.8-4.89-1.53S1399.8,1117.18,1401.12,1119.38Z"/><path class="cls-8" d="M1403.33,1090c1.57,2.47,3.27,3.11,5.15,1.92,1.55-1,1.8-3.42.56-5.39s-3.52-2.69-5.16-1.69C1402.42,1085.75,1402.16,1088.18,1403.33,1090Z"/><path class="cls-8" d="M1470.3,1046.13c-1.91,1.15-2.24,3.07-.92,5.38.94,1.62,3.4,2.45,4.75,1.6a3.9,3.9,0,0,0,1.2-5.46C1474.06,1045.64,1472.09,1045.05,1470.3,1046.13Z"/><path class="cls-16" d="M1520.44,1166.4c-1.17-1.83-3.28-2.48-4.86-1.5s-1.77,3.53-.35,5.63a3.76,3.76,0,0,0,5,1.43C1522,1170.84,1522.07,1168.93,1520.44,1166.4Z"/><path class="cls-6" d="M1490.75,1129.65c-1.4-2.34-3.21-3.2-4.88-2.32-1.47.77-2,3.88-.91,5.66s3.23,2.65,4.85,1.74C1491.74,1133.65,1492.07,1131.85,1490.75,1129.65Z"/><path class="cls-8" d="M1463.13,1137.59c-1.41-2.3-2.87-2.84-4.7-1.74a3.7,3.7,0,0,0-1,5.25c1.33,2.23,3.14,2.84,5,1.67S1464.55,1139.9,1463.13,1137.59Z"/><path class="cls-17" d="M1376.21,1089.92a2.92,2.92,0,0,0-1,4.44c1.24,1.94,4.35,2.81,6.12,1.77s1.57-2.63.66-4.32C1381,1089.86,1377.9,1088.91,1376.21,1089.92Z"/><path class="cls-8" d="M1465.93,1079.23c-.91.67-1.34,2.08-.21,3.93s4.36,2.87,6.07,1.83,1.6-2.57.78-4.17A4.78,4.78,0,0,0,1465.93,1079.23Z"/><path class="cls-18" d="M1499.85,1073.12c1,1.28,2.33,1.91,3.92,1s1.82-2.73.62-4.56c-1-1.57-3-2.17-4.27-1.16C1498.64,1069.57,1498.7,1071.17,1499.85,1073.12Z"/><path class="cls-13" d="M1457.37,1013.76c-1.19,1-1.08,2.6-.08,4.08s2.33,2.47,4,1.49,1.85-2.88.59-4.81C1460.78,1012.84,1459.31,1012.51,1457.37,1013.76Z"/><path class="cls-17" d="M1497.19,1180.62c.69,1.5,1.78,2.5,3.4,1.43,1.42-.94,2.32-2.19,1.11-4.21-1.09-1.8-3.22-2.58-4.68-1.57C1495.26,1177.5,1496.17,1179,1497.19,1180.62Z"/><path class="cls-12" d="M1353.69,1076.52c1.16,1,2,2.89,3.89,1.8a3.4,3.4,0,0,0,1.16-4.51,3.81,3.81,0,0,0-4.61-1.33C1352.47,1073.47,1353.1,1075,1353.69,1076.52Z"/><path class="cls-19" d="M1383.45,1073c.85,1.56,2.11,2,3.73,1s2-2.47.91-4.32c-1.17-2-2.82-1.84-4.29-1.05C1382.11,1069.5,1382.29,1071.1,1383.45,1073Z"/><path class="cls-19" d="M1508,1110.26c-1.27-2.2-2.76-2.27-4.32-1.35s-1.55,2.7-.56,4.19,2.29,2.47,4,1.19C1508.57,1113.18,1509.28,1111.94,1508,1110.26Z"/><path class="cls-10" d="M1435.33,1151.26c1.22-.87,1.71-2.28.63-4.11a3.34,3.34,0,0,0-4.52-1.45c-1.77.75-1,2.63-.47,4A3,3,0,0,0,1435.33,1151.26Z"/><path class="cls-20" d="M1464.48,1171c.89,1.62,2,2.52,3.65,1.7,1.45-.74,1.76-3,.73-4.66-1.18-2-2.85-1.83-4.28-1.1C1462.68,1167.94,1463.56,1169.58,1464.48,1171Z"/><path class="cls-15" d="M1350.21,1102c1,1.79,2.31,3,4.1,1.88,1.53-.91,1.7-2.42.7-4.16s-3-2.54-4.41-1.42A2.43,2.43,0,0,0,1350.21,1102Z"/><path class="cls-10" d="M1510,1148.38c-1-1.88-2.26-2.28-3.9-1.31-1.83,1.1-1.63,2.49-.51,4.27,1,1.62,2.15,2.32,3.68,1.28S1511.31,1150.2,1510,1148.38Z"/></g><g id="fragola-2" data-name="fragola"><path class="cls-21" d="M801.05,697.22a86.33,86.33,0,0,0-27.46-22c-16.8-8.4-35.09-11.36-54.31-10.15-38.26,2.42-71.78,16.13-101.15,38.54a491.3,491.3,0,0,0-66.59,60.59c-11.92,13.17-21.31,27.66-25.5,44.36-6.09,24.24.11,45.55,17.23,64.2,16.93,18.44,38.31,31.7,61.64,42.6,35.25,16.48,72.49,27.79,112.47,31.27,21.61,1.89,43,0,63.54-7.66s35-21.16,43.83-39.56c.23-.48.52-.94.79-1.41.31-1.61-.71-2.82-1.52-4-4-6-4.34-12.12-.82-18.53.36-.66.61-1.38,1-2,1.77-3,1.35-5.7.14-8.92-3.68-9.76-5.67-19.9-4.83-30.41.34-4.32,2.38-8.09,5.12-11.62s2.74-3.56-1.08-6.11a26.67,26.67,0,0,1-6.31-6c-5.66-7.29-10.1-15.25-15-22.94-1.73-2.7-.86-4.42,2.72-4.83a30.83,30.83,0,0,0,12.21-4.43c2.13-1.24,3.09-2.81,2.74-5-.82-5.15-.94-10.41-2.58-15.44a17.11,17.11,0,0,1-.5-6.22,9.17,9.17,0,0,0-3.33-7.81c-5.88-5.23-8.45-12.13-10.6-19.22a51.13,51.13,0,0,1-1.35-24.21C801.7,699.15,802.07,698.06,801.05,697.22Z"/><path class="cls-4" d="M745.68,897.38a5.92,5.92,0,0,0,7.14,5c5.82-1.25,10.08-4.29,9.24-8.57a6.24,6.24,0,0,0-7.1-4.86C749.56,890,744.18,893.66,745.68,897.38Z"/><path class="cls-5" d="M757.64,797.62c.71,4.56,4.72,6.09,9.54,3.78,1.77-.85,4-.58,5.39-2.49,1.72-2.37,2.27-4.65.54-7-2.1-2.82-4.66-3.47-8-2.25-1.39.5-2.67,1.26-4.05,1.79C757.87,792.68,757.08,794.84,757.64,797.62Z"/><path class="cls-5" d="M648.82,890.37c-7.13,1-10.81,5.92-8,10.66,1.34,2.25,3.4,3.15,6.25,2.46a21.36,21.36,0,0,0,6.11-2.15,6,6,0,0,0,2.83-7.43C655,891.44,651.93,889.92,648.82,890.37Z"/><path class="cls-6" d="M602.42,881.32c.45,3.45,2.15,4.81,5.51,4.39,3.82-.49,6.51-3.29,6.17-6.43s-2.86-4.68-6.64-4.27C604,875.39,602,877.86,602.42,881.32Z"/><path class="cls-7" d="M698.23,703.33c-3.39.51-6.05,3.45-5.65,6.23a5.3,5.3,0,0,0,6.27,4.46c3.16-.45,6.34-4.23,5.86-7S701.58,702.83,698.23,703.33Z"/><path class="cls-6" d="M655.71,823c.43,3.16,2.55,4.76,5.67,4.28s6.17-4,5.85-6.95c-.28-2.65-3.14-4.21-6.77-3.7S655.2,819.29,655.71,823Z"/><path class="cls-8" d="M753.07,827.7c-3.72.43-5.65,2.65-5.33,6.15a5,5,0,0,0,5.65,4.57c3.11-.33,6.31-3.89,6-6.67C759,828.66,756.83,827.26,753.07,827.7Z"/><path class="cls-9" d="M667.5,774c-.45-3.36-1.77-4.28-5.43-3.79-4.09.54-6,2.66-5.55,6.13.43,3.27,2.62,5,5.83,4.59A5.92,5.92,0,0,0,667.5,774Z"/><path class="cls-6" d="M726.56,823c3.6-.48,5.38-2.33,5-5.17a5.81,5.81,0,0,0-6.33-4.81,5.19,5.19,0,0,0-4.7,5.91C720.9,822.39,722.63,823.56,726.56,823Z"/><path class="cls-10" d="M739,779.54c-3.38.49-5.28,2.56-4.84,5.29.46,2.9,3.07,4.52,6.49,4,2.9-.41,5.46-3.09,5.19-5.44C745.55,780.62,742.71,779,739,779.54Z"/><path class="cls-11" d="M694.31,788.08c-3.07.48-5,2.74-4.6,5.26.49,2.75,2.86,4,6.49,3.36,3.14-.53,4.82-2.41,4.47-5S697.65,787.56,694.31,788.08Z"/><path class="cls-12" d="M666.24,858.93c-2.88.44-5.39,3.28-4.93,5.59.43,2.15,3.62,4,6.39,3.6s5-2.81,4.63-5.06A5.23,5.23,0,0,0,666.24,858.93Z"/><path class="cls-9" d="M600.92,762.56c3.28-.45,5.06-2.37,4.67-5.06-.36-2.47-2.76-4.06-5.55-3.69-3.49.46-5.86,2.65-5.46,5C595,761.46,597.65,763,600.92,762.56Z"/><path class="cls-13" d="M597.35,816.85c-3.87.51-5.36,2.06-4.93,5.14.42,2.91,2.25,4,5.89,3.58s4.94-2,4.49-5.1C602.39,817.51,600.73,816.41,597.35,816.85Z"/><path class="cls-8" d="M786.65,758c-3.83.5-5.25,1.88-4.89,4.75.33,2.65,3.08,4.38,6.18,3.91,2.7-.42,5.1-2.92,4.83-5C792.39,758.64,790.46,757.49,786.65,758Z"/><path class="cls-10" d="M716.57,909.79c-3.2.4-5.33,2.5-5.05,5s2.84,4.14,6,3.74,5.33-2.51,5.06-5S719.74,909.4,716.57,909.79Z"/><path class="cls-12" d="M650.91,720.49c-2.72.35-4.95,2.75-4.67,5,.36,2.9,2.72,4.33,6.5,4,2.16-.22,4.61-2.94,4.46-5C657,722.16,653.81,720.11,650.91,720.49Z"/><path class="cls-14" d="M796.87,830.1c3.38-.46,5.35-2.37,5.07-4.93-.26-2.29-3.54-4.18-6.52-3.73-2.8.42-4.8,2.72-4.45,5.11C791.4,829.51,793.19,830.59,796.87,830.1Z"/><path class="cls-6" d="M558.19,805c3.5-.46,5.53-2.29,5.27-4.77s-2.86-4.35-5.87-4-5.36,2.63-5.1,5C552.81,804.16,554.75,805.45,558.19,805Z"/><path class="cls-15" d="M683.91,739.46c-3.67.47-5.38,2.24-5,5.16.38,2.74,2.46,4,5.93,3.56s4.87-1.93,4.43-5.07C688.89,740.15,687.25,739,683.91,739.46Z"/><path class="cls-8" d="M718,757.68c-3.8.58-5.47,2.29-5,5.17.36,2.39,3.16,4,6.18,3.54s5.1-2.8,4.77-5.31C723.66,758.85,720.88,757.25,718,757.68Z"/><path class="cls-8" d="M735.31,861.47c-.37-2.9-2.51-4.32-6-4-2.44.26-4.75,2.79-4.44,4.86a5.12,5.12,0,0,0,5.93,4.34C733.9,866.25,735.66,864.2,735.31,861.47Z"/><path class="cls-16" d="M564.12,858c2.83-.44,4.72-2.63,4.38-5s-3.3-4-6.59-3.41c-2.78.5-4.74,2.86-4.37,5.26C558,857.52,560.21,858.62,564.12,858Z"/><path class="cls-6" d="M624.05,841.79c3.55-.45,5.55-2.17,5.37-4.63-.15-2.18-3.62-4.44-6.32-4.11-2.88.36-4.9,2.48-4.66,4.91C618.72,840.86,620.7,842.21,624.05,841.79Z"/><path class="cls-8" d="M629.15,804.37c3.51-.48,4.93-1.94,4.57-4.73s-2.8-4.34-5.78-4c-3.4.42-5.08,2.27-4.66,5.12S625.6,804.85,629.15,804.37Z"/><path class="cls-17" d="M732.54,725.13c-.32-2.59-2.17-3.94-4.83-3.53-3,.46-5.68,3.74-5.37,6.41s2.34,3.29,4.85,3.09C730.1,730.86,732.85,727.7,732.54,725.13Z"/><path class="cls-8" d="M697.83,838.67c-.33-1.44-1.79-2.71-4.61-2.33-3,.41-5.76,3.72-5.42,6.32s2.24,3.29,4.6,3.16A6.31,6.31,0,0,0,697.83,838.67Z"/><path class="cls-18" d="M687.2,882.69c-2.08.56-3.54,1.79-3.25,4.21s2.32,3.63,5.16,3.16c2.43-.41,4.2-2.48,3.65-4.52C692.1,883.13,690.16,882.35,687.2,882.69Z"/><path class="cls-13" d="M781.09,863.09c-.53-1.94-2.56-2.68-4.86-2.26s-4.21,1.5-3.92,4,2.48,3.75,5.48,3.26C780.38,867.68,781.56,866.09,781.09,863.09Z"/><path class="cls-17" d="M559.34,822.52c-2.16,0-4,.8-3.51,3.33.37,2.2,1.4,3.94,4.47,3.55,2.74-.34,4.81-2.5,4.36-4.78C564.13,821.84,561.84,822.14,559.34,822.52Z"/><path class="cls-12" d="M760.59,705.15c-1.78.89-4.54.86-4.23,3.72a4.47,4.47,0,0,0,4.81,3.79c2.2-.33,4.3-2.8,4.05-4.83C764.9,705.3,762.75,705.26,760.59,705.15Z"/><path class="cls-19" d="M749,742.79c-2.33.2-3.56,1.46-3.12,4s1.92,3.7,4.71,3.39c3-.34,3.71-2.42,3.54-4.6C754,743,752,742.42,749,742.79Z"/><path class="cls-19" d="M638.21,872.82c3.33-.36,4.2-2.12,3.92-4.48-.31-2.54-2.43-3.3-4.74-2.89s-4.19,1.44-3.55,4.14C634.4,872,635.52,873.45,638.21,872.82Z"/><path class="cls-10" d="M627.44,763.69c.4,1.94,1.83,3.27,4.61,2.94a4.38,4.38,0,0,0,4.14-4.66c0-2.53-2.64-2.59-4.54-2.69A4,4,0,0,0,627.44,763.69Z"/><path class="cls-20" d="M588.23,788.27c-2.42.21-4.11,1.11-4,3.49.13,2.14,2.65,3.69,5.22,3.35,3-.39,3.71-2.46,3.58-4.56C592.89,787.74,590.45,787.92,588.23,788.27Z"/><path class="cls-15" d="M731.82,687.47c-2.7.29-4.78,1.21-4.44,3.93.29,2.33,2,3.34,4.64,3.05s4.62-2.21,4-4.55A3.19,3.19,0,0,0,731.82,687.47Z"/><path class="cls-10" d="M591.33,855c2.79-.22,3.94-1.51,3.64-4-.35-2.78-2.13-3.28-4.86-2.87-2.49.36-3.93,1.35-3.49,3.74S588.44,855.62,591.33,855Z"/></g><g id="fragola-3" data-name="fragola"><path class="cls-22" d="M1112.88,70.41a44.74,44.74,0,0,0-17.47-5.29c-9.71-.8-19.09,1.31-28.1,5.6-18,8.55-31.43,21.63-41.24,38.08a254.86,254.86,0,0,0-20.35,42c-3.19,8.64-4.91,17.42-3.71,26.27,1.75,12.84,8.85,21.9,20.69,27.57s24.56,7.86,37.89,8.61c20.15,1.12,40.26-.63,60.17-6.67,10.76-3.27,20.69-8.31,29.1-16a39.61,39.61,0,0,0,13.46-27.5,7.53,7.53,0,0,1,.11-.83c-.17-.84-.89-1.22-1.51-1.65a8.64,8.64,0,0,1-4-8.76c0-.39,0-.78.09-1.17.27-1.79-.45-3-1.66-4.32a36.15,36.15,0,0,1-8.19-13.7,11.3,11.3,0,0,1,.22-6.58c.63-2.22.63-2.25-1.7-2.73a14,14,0,0,1-4.21-1.69c-4.13-2.42-7.8-5.39-11.65-8.14-1.36-1-1.27-2,.37-2.85a16,16,0,0,0,5-4.49,2.39,2.39,0,0,0,.35-3c-1.39-2.32-2.46-4.83-4.22-6.93a8.88,8.88,0,0,1-1.45-2.9,4.78,4.78,0,0,0-3.1-3.12c-3.85-1.38-6.41-4.2-8.81-7.2a26.51,26.51,0,0,1-5.33-11.39C1113.56,71.22,1113.53,70.62,1112.88,70.41Z"/><path class="cls-4" d="M1124.88,177.44a3.06,3.06,0,0,0,4.4,1c2.55-1.72,4-4,2.79-5.9a3.25,3.25,0,0,0-4.36-1C1125.31,173.12,1123.44,175.94,1124.88,177.44Z"/><path class="cls-5" d="M1111.37,127.12c1.22,2.06,3.45,2,5.32,0,.69-.75,1.81-1,2.11-2.24.37-1.47.2-2.67-1.08-3.45a3.25,3.25,0,0,0-4.3.47c-.57.51-1,1.12-1.61,1.64A2.51,2.51,0,0,0,1111.37,127.12Z"/><path class="cls-5" d="M1076.91,192.77c-3.24,1.87-4.06,4.93-1.79,6.67a2.68,2.68,0,0,0,3.48,0,11.43,11.43,0,0,0,2.53-2.22,3.09,3.09,0,0,0-.08-4.12A3.46,3.46,0,0,0,1076.91,192.77Z"/><path class="cls-6" d="M1052.83,197.37c.88,1.58,2,1.9,3.49,1,1.75-1,2.5-2.84,1.74-4.28s-2.29-1.71-4-.78A2.73,2.73,0,0,0,1052.83,197.37Z"/><path class="cls-7" d="M1064.57,93.21c-1.53.9-2.25,2.83-1.51,4.09a2.75,2.75,0,0,0,3.87.94c1.44-.84,2.24-3.26,1.48-4.49S1066.09,92.32,1064.57,93.21Z"/><path class="cls-6" d="M1067.21,159a2.37,2.37,0,0,0,3.56,1,3.72,3.72,0,0,0,1.47-4.47c-.65-1.22-2.33-1.42-4-.48A2.6,2.6,0,0,0,1067.21,159Z"/><path class="cls-8" d="M1115,142.47c-1.71.93-2.21,2.37-1.38,4a2.59,2.59,0,0,0,3.6,1.11c1.43-.75,2.28-3.09,1.59-4.36C1118,141.79,1116.7,141.54,1115,142.47Z"/><path class="cls-9" d="M1063.43,133.16c-.87-1.53-1.68-1.72-3.35-.78-1.86,1.06-2.38,2.44-1.49,4a2.52,2.52,0,0,0,3.7,1.08A3.08,3.08,0,0,0,1063.43,133.16Z"/><path class="cls-6" d="M1101.32,145.35c1.64-.92,2.14-2.16,1.39-3.45a3,3,0,0,0-4-1.09,2.7,2.7,0,0,0-1.12,3.76C1098.47,146.13,1099.53,146.36,1101.32,145.35Z"/><path class="cls-10" d="M1098.92,122c-1.53.89-2,2.25-1.31,3.48s2.35,1.58,3.91.69c1.32-.76,2-2.54,1.45-3.62C1102.27,121.27,1100.59,121,1098.92,122Z"/><path class="cls-11" d="M1079.05,134.75c-1.39.83-1.9,2.3-1.2,3.43s2.14,1.36,3.77.36c1.41-.86,1.85-2.09,1.19-3.28S1080.56,133.86,1079.05,134.75Z"/><path class="cls-12" d="M1079.22,174.27c-1.3.77-2,2.62-1.3,3.64s2.51,1.21,3.78.5a2.63,2.63,0,0,0,1.25-3.33A2.72,2.72,0,0,0,1079.22,174.27Z"/><path class="cls-9" d="M1029.17,140.51c1.5-.85,2-2.12,1.27-3.34a2.43,2.43,0,0,0-3.38-.71c-1.59.9-2.31,2.41-1.65,3.48S1027.68,141.35,1029.17,140.51Z"/><path class="cls-13" d="M1037.94,167.32c-1.77,1-2.18,2-1.38,3.43s1.86,1.5,3.52.58,2-1.9,1.18-3.32S1039.48,166.46,1037.94,167.32Z"/><path class="cls-8" d="M1117.68,102.44c-1.74,1-2.16,1.93-1.44,3.24a2.64,2.64,0,0,0,3.74.68c1.21-.72,1.88-2.38,1.35-3.35C1120.57,101.65,1119.42,101.47,1117.68,102.44Z"/><path class="cls-10" d="M1113.27,189c-1.47.82-2.09,2.24-1.47,3.39s2.16,1.44,3.6.64,2.08-2.23,1.47-3.38S1114.71,188.23,1113.27,189Z"/><path class="cls-12" d="M1045.11,110.6a2.66,2.66,0,0,0-1.28,3.32c.73,1.33,2.15,1.56,3.89.65a2.93,2.93,0,0,0,1.19-3.26C1048.38,110.22,1046.43,109.86,1045.11,110.6Z"/><path class="cls-14" d="M1136.52,135.17c1.54-.87,2.12-2.17,1.49-3.35s-2.51-1.32-3.86-.53a2.52,2.52,0,0,0-1.15,3.32C1133.77,136,1134.85,136.12,1136.52,135.17Z"/><path class="cls-6" d="M1016.8,169.18c1.6-.9,2.22-2.17,1.62-3.31a2.6,2.6,0,0,0-3.61-.8c-1.38.73-2.07,2.29-1.48,3.39C1014.05,169.82,1015.24,170.06,1016.8,169.18Z"/><path class="cls-15" d="M1064.65,113.37c-1.67.93-2.15,2.11-1.39,3.43s2,1.45,3.54.57,2-1.87,1.15-3.29S1066.18,112.52,1064.65,113.37Z"/><path class="cls-8" d="M1084.6,115.54c-1.72,1-2.19,2.16-1.43,3.46.64,1.08,2.29,1.31,3.66.51a2.65,2.65,0,0,0,1.27-3.47C1087.53,115,1085.88,114.79,1084.6,115.54Z"/><path class="cls-8" d="M1113,162.16c-.74-1.33-2-1.6-3.64-.75a2.62,2.62,0,0,0-1.2,3.2,2.66,2.66,0,0,0,3.69.94A2.4,2.4,0,0,0,1113,162.16Z"/><path class="cls-16" d="M1029.89,193.55a2.45,2.45,0,0,0,1.14-3.28c-.65-1.12-2.37-1.29-3.83-.37a2.56,2.56,0,0,0-1.09,3.38C1026.83,194.5,1028.13,194.6,1029.89,193.55Z"/><path class="cls-6" d="M1055.6,174.17c1.63-.9,2.26-2.11,1.7-3.27s-2.6-1.43-3.84-.75a2.5,2.5,0,0,0-1.3,3.26C1052.86,174.75,1054.07,175,1055.6,174.17Z"/><path class="cls-8" d="M1050.83,155.18c1.6-.91,2-1.89,1.29-3.16a2.52,2.52,0,0,0-3.55-.8c-1.55.86-2,2.07-1.25,3.37S1049.22,156.09,1050.83,155.18Z"/><path class="cls-17" d="M1085.29,97.08a2,2,0,0,0-3-.77,3.45,3.45,0,0,0-1.35,4.12c.68,1.25,1.76,1.14,2.93.55A3.18,3.18,0,0,0,1085.29,97.08Z"/><path class="cls-8" d="M1090.51,158.42c-.44-.63-1.39-.95-2.67-.23a3.41,3.41,0,0,0-1.39,4.09c.65,1.16,1.71,1.15,2.82.63A3.26,3.26,0,0,0,1090.51,158.42Z"/><path class="cls-18" d="M1093.89,181.66a1.92,1.92,0,0,0-.75,2.65c.6,1.1,1.82,1.3,3.1.53a2.06,2.06,0,0,0,.88-2.88C1096.34,180.93,1095.25,180.93,1093.89,181.66Z"/><path class="cls-13" d="M1135.3,154.1c-.63-.83-1.75-.8-2.78-.15s-1.74,1.53-1.11,2.69,1.92,1.32,3.27.51C1135.84,156.44,1136.1,155.45,1135.3,154.1Z"/><path class="cls-17" d="M1020.74,177.39c-1,.43-1.74,1.15-1,2.28s1.44,1.63,2.84.85a2.34,2.34,0,0,0,1.18-3.15C1022.91,176.14,1021.87,176.72,1020.74,177.39Z"/><path class="cls-12" d="M1094.93,82c-.68.78-2,1.3-1.31,2.61a2.32,2.32,0,0,0,3.05.9,2.61,2.61,0,0,0,1-3.11C1097,81.29,1096,81.68,1094.93,82Z"/><path class="cls-19" d="M1096.64,102.39a1.57,1.57,0,0,0-.74,2.52,2.17,2.17,0,0,0,3.74-2.18C1099.06,101.56,1098,101.65,1096.64,102.39Z"/><path class="cls-19" d="M1068.41,186.37c1.53-.82,1.61-1.83,1-2.91s-1.81-1.12-2.84-.48-1.74,1.5-.9,2.68C1066.41,186.69,1067.24,187.19,1068.41,186.37Z"/><path class="cls-10" d="M1042.16,135.93a1.91,1.91,0,0,0,2.78.52,2.27,2.27,0,0,0,1.1-3c-.48-1.23-1.77-.73-2.71-.41A2,2,0,0,0,1042.16,135.93Z"/><path class="cls-20" d="M1028,155.33c-1.13.57-1.76,1.33-1.24,2.45s2,1.26,3.16.6a2,2,0,0,0,.84-2.89C1030.17,154.18,1029,154.73,1028,155.33Z"/><path class="cls-15" d="M1077.67,79.09c-1.24.66-2.06,1.5-1.37,2.75.58,1.06,1.61,1.22,2.82.57s1.79-2,1.06-3A1.65,1.65,0,0,0,1077.67,79.09Z"/><path class="cls-10" d="M1042.41,186.84c1.3-.64,1.6-1.48,1-2.62s-1.65-1.17-2.89-.45-1.63,1.42-1,2.48A1.81,1.81,0,0,0,1042.41,186.84Z"/></g><path class="cls-23" d="M734.83,527.38c2.52,2.38,5.23,4.8,7.9,7.14s5.37,4.71,8.09,7q8.16,6.94,16.57,13.58c11.15,8.91,22.56,17.45,34.1,25.74s23.29,16.24,35.22,23.86,23.94,15,36.16,22,24.55,13.73,37,20,25.07,12.42,37.8,18.07,25.51,11.07,38.42,16.06,25.89,9.71,39,13.87,26.42,7.73,39.83,10.57,26.9,5.11,40.33,7.18c3.34.58,6.72,1,10.06,1.55l5,.82c1.68.25,3.36.47,5,.74,3.34.5,6.67,1.08,10,1.62s6.66,1.05,10,1.64c13.29,2.19,26.51,4.79,39.82,7.22l5,1c1.66.32,3.34.58,5,.89l10,1.87c3.35.6,6.71,1.13,10.07,1.76l5,.93c1.69.26,3.38.55,5.07.84q5.07.84,10.16,1.78c3.4.51,6.81,1.09,10.22,1.66,1.71.27,3.42.6,5.14.9s3.42.5,5.14.79c3.44.56,6.89,1.11,10.35,1.72,13.83,2.08,27.87,4.5,42.15,6.68l5.38.9,2.7.47,2.7.43c3.61.6,7.23,1.14,10.89,1.83l11,1.94c3.7.71,7.42,1.41,11.2,2.32l1.29,7.57c-3.32,2-6.71,3.83-10.11,5.65s-6.83,3.56-10.32,5.07c-7,3.16-14,6.19-21.17,8.72-3.58,1.29-7.17,2.62-10.8,3.77s-7.27,2.25-10.93,3.31c-1.83.52-3.66,1.1-5.5,1.56l-5.53,1.4c-3.7.88-7.41,1.8-11.14,2.62s-7.46,1.47-11.21,2.18c-1.88.36-3.76.68-5.64,1s-3.77.58-5.65.84c-3.78.53-7.56,1.08-11.35,1.55s-7.59.77-11.4,1.11c-1.9.17-3.8.36-5.71.5l-5.72.32c-3.81.21-7.63.35-11.46.52-7.63.06-15.3.22-22.94-.11a311.25,311.25,0,0,1-45.61-4.73,333.4,333.4,0,0,1-44.37-11.39c-29-9.7-56.81-22-84.23-34.3-13.72-6.16-27.16-12.86-40.39-19.84s-26.17-14.47-38.85-22.3-25-16.12-37.12-24.7-23.88-17.56-35.4-26.8-22.71-18.84-33.62-28.71-21.51-20-31.75-30.51-20.17-21.25-29.7-32.32q-7.11-8.36-13.94-16.92c-2.26-2.86-4.52-5.73-6.72-8.65s-4.33-5.85-6.47-8.94Z"/><path class="cls-23" d="M838.82,177.53c7.12,5.94,14.62,11.66,22.23,17.06s15.28,10.72,23.17,15.68c2,1.26,3.92,2.51,5.92,3.7l5.92,3.67c4,2.41,8,4.74,12,7.09s8.08,4.54,12.16,6.74,8.17,4.33,12.29,6.4,8.24,4.15,12.4,6.14l12.52,5.8,12.62,5.5c4.23,1.77,8.51,3.42,12.74,5.13l3.18,1.29,3.21,1.19,6.42,2.39c2.14.78,4.26,1.62,6.42,2.35l6.48,2.17c4.31,1.45,8.58,3,13,4.23s8.67,2.66,13,3.88c17.46,4.94,35.43,7.63,53.19,10,4.45.51,8.89,1.06,13.31,1.71l3.3.51c1.11.14,2.22.25,3.32.41,2.21.29,4.42.54,6.62.9,8.79,1.45,17.6,2.6,26.4,4.29,17.65,2.81,35.46,6,53.7,8.55,2.28.35,4.57.74,6.86,1.12l3.45.6c1.15.14,2.3.32,3.45.48,4.62.63,9.27,1.38,14,2.18s9.41,1.48,14.18,2.33,9.6,1.72,14.52,2.94l.74,4.8a204.5,204.5,0,0,1-56,19.84c-2.42.51-4.86,1-7.3,1.45s-4.88,1-7.34,1.23c-4.9.63-9.83,1.22-14.77,1.71s-9.9.72-14.86.89-10,.34-14.91.2c-9.91-.4-19.87-.89-29.65-2.65-2.46-.35-4.9-.82-7.35-1.24-1.22-.21-2.44-.42-3.66-.69l-3.62-.86c-4.83-1.16-9.63-2.44-14.41-3.75l-1.78-.51-1.77-.58-3.54-1.17-7.06-2.33-7-2.38-6.93-2.62-6.94-2.58-3.45-1.29c-1.16-.43-2.29-.93-3.43-1.37-4.56-1.85-9.14-3.63-13.7-5.4s-9-3.82-13.53-5.72-8.92-4-13.35-6.06l-6.61-3.13c-2.2-1.06-4.34-2.23-6.52-3.33l-6.48-3.36-3.24-1.68L969,289.61c-4.23-2.42-8.48-4.77-12.66-7.23l-12.42-7.58-12.15-8c-4-2.71-7.95-5.52-11.91-8.27A507,507,0,0,1,875,222.33c-14.17-13-27.66-26.47-39.69-41.48Z"/><circle class="cls-1" cx="749.46" cy="1421.72" r="523.96"/><path class="cls-24" d="M2133.73,1490.12c13.79-13.43-56.86,56.93-102.13,77.41-101.43,45.91-211.13,66-319.85,87.64-173.58,34.5-349.25,48.87-525.75,53.67a2818.51,2818.51,0,0,1-301.8-8.28q-122.49-9.8-243.32-30.06c-116-19.31-230.29-46.86-343.09-80.19-32.71-9.67-64.88-21.25-97.05-32.62-53.15-18.78-90.22-55.92-117.17-104.27-.08-5.81,2.19,140.2-1.13,214.82-2.57,57.54,22.26,96,69,123.92,29,17.37,58.52,34,87.8,51,17.32,47,59.28,145.22,60.69,148.18,50.86,106.26,104.26,211.08,174.2,306.53,57,77.85,120.88,148.23,209.61,191.33,119,57.79,245.89,79,376.81,81.43,88.06,1.66,176-1.77,262.94-15.88,86.23-14,169.29-38,244.71-84.65,68.73-42.48,121.82-101,171.66-162.89a1531.81,1531.81,0,0,0,200.76-325.72c2.77-6.1,66.1-159.54,61.6-148.64-.14,0,50.6-32.83,72.31-47.65,40-27.29,60.88-64.05,59.49-114.05C2132.33,1610.83,2133.68,1550.46,2133.73,1490.12Z"/></g></g></svg>