<svg xmlns="http://www.w3.org/2000/svg" viewBox="0 0 2659.5 2526.88"><defs><style>.cls-1{fill:#bb4747;stroke:#932921;stroke-width:38.3px;}.cls-1,.cls-2,.cls-3,.cls-4,.cls-5,.cls-6,.cls-7,.cls-8{stroke-miterlimit:10;}.cls-2{fill:#d9b084;stroke-width:40.46px;}.cls-2,.cls-4{stroke:#c69665;}.cls-3{fill:#fff;stroke:#fefafa;stroke-width:22.54px;}.cls-4{fill:none;stroke-width:36.22px;}.cls-5,.cls-6,.cls-7,.cls-8{fill:#78b145;stroke:#417b3c;}.cls-5{stroke-width:30.03px;}.cls-6{stroke-width:23.79px;}.cls-7{stroke-width:33.9px;}.cls-8{stroke-width:14.61px;}</style></defs><g id="Livello_2" data-name="Livello 2"><g id="Livello_7" data-name="Livello 7"><text/><path class="cls-1" d="M2495.75,1229.3a770,770,0,0,0-6.62-87.88c-3.56-26.73-9.65-53.09-15.59-79.47a606.55,606.55,0,0,0-29.93-96.11c-16.59-40.66-37.1-79.69-64.75-115.78-12.71-16.58-26.82-32.25-45.54-44a5.36,5.36,0,0,1-.44-.32,13.09,13.09,0,0,0-9.77-2.71c-3,.39-6.19.78-6.82,1-23.29,7.44-45.74,16.51-68.2,25.55-95.63,38.47-190.06,79-284.41,119.68q-194.09,83.68-386.58,170c-88.75,39.83-177.47,79.7-264.61,122.06-15.55,7.56-31.19,15-45.65,24.1-4.87,3-4.53,3.95,1.14,7.13,4.79,2.69,9.76,5.15,14.85,7.43,28.18,12.61,56.47,25.11,85.55,36.09,26.73,10.08,52.14,22.38,78.91,32.49,56.75,21.45,112.89,44.11,169.48,65.89,95.75,36.86,191.81,73.17,285.88,113.14,48.83,20.75,97.25,42.18,144.09,66.13,44,22.52,87,46.52,131.28,68.75,37.74,19,76.2,36.66,117.62,49.16,17.57,5.31,35.33,10.11,53.93,12.05,1.18.12,2.56.63,3.64.07,2.61,1.14,7-5.18,8.15-6.38,4.56-4.81,8-10.22,11.44-15.66,13.59-21.78,24.8-44.47,35.17-67.47a1027.14,1027.14,0,0,0,62.61-185,939.36,939.36,0,0,0,22.28-137.67A799,799,0,0,0,2495.75,1229.3Z"/><path class="cls-2" d="M2386.89,1746.39a2,2,0,0,1-2.85,1c-8-3.93-16.72-6.42-25.14-9.47-38.14-13.81-117.4-39.63-152.83-58-4-2.08,1.42-3.41,4.87-5.93,27.92-20.27,48.64-45.13,64.18-73.35,12.4-22.52,19.09-46.54,26-70.52,12.11-42.17,23.15-84.54,33.57-127,8.75-35.68,16.93-71.47,23.81-107.45,5.47-28.64,9.54-57.38,8-86.5a339.11,339.11,0,0,0-9.66-66.43,1626,1626,0,0,0-55-175.14c-10.67-28.13-23.76-55.44-41.26-81.06-12.54-18.36-21.86-21.83-41.67-35.05-.05,0-10.73-7.35-2.09-10.12,34.56-11.07,96.83-40.29,119.86-52.33,4.21-2.2,8.35-4.5,12.52-6.75.6-.17,4.43-1.75,7.3-2.74a3.46,3.46,0,0,1,3.54.75,165.35,165.35,0,0,1,11.18,13.2c46.59,59,78,123.72,98.78,192.39a599.86,599.86,0,0,1,14.87,61.7c5.26,27.69,11.2,55.24,14.86,83.12a861.42,861.42,0,0,1,6.65,89.42q.68,25.62-.36,51.26c-.69,17.86-1.68,35.69-3.15,53.51-2.16,26.11-5.46,52.1-9.48,78q-7.21,46.59-18.55,92.54a1211.67,1211.67,0,0,1-58,176.48c-7.94,19.15-17.24,37.87-24.58,57.2C2390.68,1733.15,2388.25,1742.26,2386.89,1746.39Z"/><path class="cls-3" d="M2157.05,1079.22c-.44,17-14.67,34.72-26.78,48.41-8.22,9.3-38.85,33.27-51,38.73-26.93,12.08-44.72,32.79-65.06,13.42-11.92-11.34-7.23-55.34-9.9-70.31-2.63-14.68,44.78-52.94,52-66.57,10.58-20,28.88-42,54.08-47.2,13.61-2.82,45.4-38.16,58-32.68.65.28,61.61,44.78,36.29,46,25.75,8.15-54.86,28.46-48.82,51C2156.94,1064.16,2156.88,1074.79,2157.05,1079.22Z"/><path class="cls-3" d="M2190.07,1419.28c-.44,17.06-15.26,26.29-27.36,40-8.23,9.3-31.69,47.8-43.85,53.26-26.92,12.08-17.85,38.73-38.19,19.36-11.91-11.34,9.75-64.91,7.07-79.88-2.62-14.69,22.5-39.63,29.71-53.25,5.5-13.38,39.64-23.69,45.26-46,2.29-9.12,36-57.4,55.16-48.41.64.28-2.1,47-1.42,47.2,26.46,10.28-16.78,34.52-15.85,41.69C2201.72,1397.39,2189.9,1414.86,2190.07,1419.28Z"/><path class="cls-3" d="M1792.67,1213.59c-.43,17.06-28.2,8.43-40.31,22.12-8.22,9.3-47.09,4.56-59.25,10-26.92,12.08-44.16,39.87-64.5,20.5-11.91-11.34-84.48.06-87.15-14.91-37.61-30.33,15.73-56.41,54.47-55.94,10.58-20,39.61-45,64.82-50.28,13.6-2.83,59.43-15.21,72-9.73-9.87,2,74.32-20.68,59.9-5.61,25.75,8.15,58.86,7.6,64.9,30.12C1858.68,1164,1792.51,1209.17,1792.67,1213.59Z"/><path class="cls-3" d="M1911.68,1416.68c-17.82,7.66-47.33-12-67.14-14.75-13.45-1.85-48,3.42-59.28-3.22-25.09-14.69-69.57-34-59.11-58.41,3.76-15.92,47.46-15.51,74.65-15.76,16.21-1.86,72.68,5.78,93.07,5.37a34,34,0,0,1,6.68.64c19.25,3.53,27.48,6.57,46.19,18.57,11.2,7.19,89.94,9.56,90.18,21.65,14.08,6.27,15.64,54.31-21.8,48.63a8.47,8.47,0,0,0-9,4.63c-4.75,10.75-50.62-38-74.8-17.64C1931.08,1406.62,1916,1414.56,1911.68,1416.68Z"/><path class="cls-1" d="M34,1311.6A939.36,939.36,0,0,0,56.3,1449.27a1027.92,1027.92,0,0,0,62.61,185c10.37,23,21.58,45.69,35.17,67.47,3.4,5.44,6.89,10.85,11.44,15.66,1.14,1.2,5.54,7.52,8.16,6.38,1.07.56,2.45,0,3.63-.07,18.6-1.94,36.36-6.74,53.93-12.05,41.42-12.5,79.88-30.2,117.62-49.16,44.25-22.23,87.24-46.23,131.28-68.75,46.84-24,95.26-45.38,144.09-66.13,94.07-40,190.13-76.28,285.88-113.14,56.59-21.78,112.73-44.44,169.48-65.89,26.77-10.11,52.18-22.41,78.91-32.49,29.08-11,57.37-23.48,85.55-36.09,5.09-2.28,10.06-4.74,14.86-7.43,5.66-3.18,6-4.08,1.13-7.13-14.46-9.07-30.1-16.54-45.65-24.1-87.14-42.36-175.86-82.23-264.6-122.06q-192.46-86.37-386.59-170C468.85,908.55,374.42,868,278.79,829.55c-22.46-9-44.91-18.11-68.19-25.55-.64-.21-3.82-.6-6.83-1a13.09,13.09,0,0,0-9.77,2.71,5.36,5.36,0,0,1-.44.32c-18.72,11.77-32.83,27.44-45.53,44-27.66,36.09-48.17,75.12-64.76,115.78A606.55,606.55,0,0,0,53.34,1062c-5.94,26.38-12,52.74-15.59,79.47a770,770,0,0,0-6.62,87.88A799,799,0,0,0,34,1311.6Z"/><path class="cls-2" d="M140,1746.39a2.05,2.05,0,0,0,2.86,1c8-3.93,16.71-6.42,25.13-9.47,38.14-13.81,117.4-39.63,152.83-58,4-2.08-1.41-3.41-4.87-5.93-27.91-20.27-48.64-45.13-64.18-73.35-12.4-22.52-19.09-46.54-26-70.52-12.11-42.17-23.15-84.54-33.57-127-8.75-35.68-16.93-71.47-23.81-107.45-5.47-28.64-9.54-57.38-8-86.5a338.38,338.38,0,0,1,9.67-66.43,1623.7,1623.7,0,0,1,55-175.14c10.67-28.13,23.76-55.44,41.26-81.06,12.54-18.36,21.86-21.83,41.67-35.05.05,0,10.74-7.35,2.09-10.12C275.49,830.24,213.22,801,190.19,789c-4.21-2.2-8.35-4.5-12.52-6.75-.6-.17-4.43-1.75-7.3-2.74a3.46,3.46,0,0,0-3.54.75,165.35,165.35,0,0,0-11.18,13.2c-46.59,59-78,123.72-98.78,192.39A599.86,599.86,0,0,0,42,1047.53c-5.26,27.69-11.2,55.24-14.86,83.12a861.42,861.42,0,0,0-6.65,89.42q-.68,25.62.36,51.26c.69,17.86,1.68,35.69,3.15,53.51,2.16,26.11,5.46,52.1,9.48,78q7.23,46.59,18.55,92.54a1211.67,1211.67,0,0,0,58.05,176.48c7.94,19.15,17.24,37.87,24.58,57.2C136.2,1733.15,138.63,1742.26,140,1746.39Z"/><path class="cls-3" d="M369.83,1079.22c.44,17,14.67,34.72,26.78,48.41,8.22,9.3,38.85,33.27,51,38.73,26.93,12.08,44.72,32.79,65.06,13.42,11.92-11.34,7.23-55.34,9.9-70.31,2.63-14.68-44.78-52.94-52-66.57-10.58-20-28.88-42-54.08-47.2-13.61-2.82-45.4-38.16-58-32.68-.65.28-61.61,44.78-36.29,46-25.75,8.15,54.86,28.46,48.83,51C369.94,1064.16,370,1074.79,369.83,1079.22Z"/><path class="cls-3" d="M336.81,1419.28c.44,17.06,15.26,26.29,27.37,40,8.22,9.3,31.68,47.8,43.84,53.26,26.92,12.08,17.85,38.73,38.19,19.36,11.91-11.34-9.75-64.91-7.07-79.88,2.62-14.69-22.5-39.63-29.71-53.25-5.5-13.38-39.64-23.69-45.25-46-2.3-9.12-36-57.4-55.16-48.41-.65.28,2.09,47,1.41,47.2-26.46,10.28,16.78,34.52,15.85,41.69C325.16,1397.39,337,1414.86,336.81,1419.28Z"/><path class="cls-3" d="M734.21,1213.59c.44,17.06,28.2,8.43,40.31,22.12,8.22,9.3,47.09,4.56,59.25,10,26.92,12.08,44.16,39.87,64.5,20.5,11.91-11.34,84.48.06,87.15-14.91C1023,1221,969.69,1194.9,931,1195.37c-10.58-20-39.61-45-64.81-50.28-13.61-2.83-59.44-15.21-72-9.73,9.87,2-74.32-20.68-59.9-5.61-25.75,8.15-58.86,7.6-64.9,30.12C668.2,1164,734.37,1209.17,734.21,1213.59Z"/><path class="cls-3" d="M615.2,1416.68c17.82,7.66,47.33-12,67.14-14.75,13.45-1.85,47.95,3.42,59.28-3.22,25.09-14.69,69.57-34,59.11-58.41-3.76-15.92-47.45-15.51-74.65-15.76-16.2-1.86-72.68,5.78-93.07,5.37a34,34,0,0,0-6.68.64c-19.24,3.53-27.48,6.57-46.19,18.57-11.2,7.19-89.94,9.56-90.18,21.65-14.08,6.27-15.64,54.31,21.8,48.63a8.47,8.47,0,0,1,9,4.63c4.76,10.75,50.63-38,74.8-17.64C595.8,1406.62,610.88,1414.56,615.2,1416.68Z"/><path class="cls-1" d="M2110.67,367.92a770.54,770.54,0,0,0-66.82-57.46c-21.42-16.38-44.36-30.71-67.22-45.17a606.56,606.56,0,0,0-89.12-46.79c-40.48-17-82.58-30.11-127.66-36.08-20.71-2.74-41.76-3.84-63.32,1.07a3.79,3.79,0,0,1-.54.09,13.11,13.11,0,0,0-8.82,5c-1.86,2.41-3.83,4.94-4.13,5.53-11.21,21.73-20.66,44-30.16,66.29-40.41,94.82-78.53,190.25-116.48,285.74q-78.08,196.41-153.13,393.57c-34.59,90.91-69.14,181.84-100.8,273.41-5.65,16.34-11.42,32.69-15.24,49.33-1.28,5.59-.41,6,5.84,4.23,5.3-1.49,10.55-3.26,15.76-5.25,28.84-11,57.69-22.17,86-35,26-11.77,52.7-21,78.77-32.81,55.3-25,111-48.64,166.44-73.25,93.77-41.65,187.37-83.9,282.15-122.15,49.2-19.86,98.59-38.94,148.64-55.13,47.07-15.22,94.44-28.64,141.45-44.22,40.09-13.28,79.81-28,117.93-48.4,16.18-8.67,32.13-17.83,46.66-29.62.91-.74,2.25-1.36,2.61-2.52,2.66-1,1.3-8.62,1.26-10.27-.18-6.63-1.54-12.92-3-19.17-5.79-25-13.9-49-22.84-72.57a1025.66,1025.66,0,0,0-86.51-175.05,937.93,937.93,0,0,0-81.58-113.11A799.68,799.68,0,0,0,2110.67,367.92Z"/><path class="cls-2" d="M2399.34,810.54a2.06,2.06,0,0,1-1.34,2.7c-8.42,2.85-16.36,7.28-24.47,11.08-36.73,17.2-111,55-149.07,67-4.32,1.37-1.42-3.41-.75-7.63,5.4-34.07,2.48-66.31-6.49-97.26-7.15-24.68-19.41-46.4-31.5-68.22-21.26-38.38-43.41-76.15-66.09-113.56-19-31.42-38.56-62.51-59.14-92.82-16.38-24.12-33.83-47.31-55.48-66.85a339.2,339.2,0,0,0-53.81-40.14,1624.3,1624.3,0,0,0-162.72-84.95c-27.44-12.35-56-22.4-86.5-28.14-21.85-4.12-30.89,0-54.25,4.68-.06,0-12.79,2.39-8.63-5.68,16.61-32.27,40-97,47.75-121.76,1.42-4.53,2.72-9.08,4.08-13.62.3-.55,1.89-4.37,3.22-7.1a3.47,3.47,0,0,1,3-2,163.36,163.36,0,0,1,17.23,1.43c74.67,8.77,142.63,32.33,205.89,66.19a599.16,599.16,0,0,1,54.15,33.11c23.3,15.86,47,31.14,69.27,48.27a859.4,859.4,0,0,1,67.94,58.52q18.6,17.65,36,36.5c12.13,13.12,24,26.43,35.6,40.07,16.94,20,33,40.7,48.48,61.88q27.83,38,52.31,78.55a1210.87,1210.87,0,0,1,83.74,165.84c7.93,19.15,14.59,39,23.08,57.83C2392.66,798.49,2397.38,806.66,2399.34,810.54Z"/><path class="cls-3" d="M1765.05,501.3c11.75,12.37,14.18,34.92,15.3,53.16.76,12.39-3.94,51-8.69,63.46-10.49,27.58-8.43,54.81-36.51,55.5-16.45.4-44.24-34-56.72-42.72-12.24-8.53-5.77-69.1-10.3-83.83-6.66-21.62-9.26-50.1,4.86-71.62,7.63-11.62,5.12-59.08,17.9-64.11.66-.26,75.23-11.9,58.18,6.86,24-12.45-18.67,58.92,1.53,70.57C1754.33,490.73,1761.8,498.29,1765.05,501.3Z"/><path class="cls-3" d="M2028.86,718.41c11.75,12.37,7.8,29.38,8.92,47.62.77,12.39,11.4,56.2,6.66,68.66-10.5,27.58,14.77,40-13.31,40.7-16.45.4-39-52.79-51.49-61.49-12.24-8.53-12.12-43.93-16.65-58.66-5.57-13.35,11.28-44.78-.52-64.52-4.83-8.08-15.12-66.06,4.77-73.24.66-.26,31.74,34.71,32.38,34.38,26-11.44,12.54,36.27,18.27,40.68C2021.62,694.7,2025.62,715.4,2028.86,718.41Z"/><path class="cls-3" d="M1602.42,854c11.75,12.37-14,25.9-12.87,44.14.77,12.39-30.07,36.52-34.81,49-10.5,27.58-3,59.41-31.11,60.1-16.45.41-59.7,59.78-72.18,51.08-48,5.15-28.76-51-1-78.07-6.65-21.62-3.85-59.87,10.28-81.39,7.62-11.61,31.27-52.77,44.06-57.8-5.59,8.38,37.92-67.18,38.38-46.33,24-12.44,47-36.24,67.19-24.59C1614.05,772.25,1599.17,851,1602.42,854Z"/><path class="cls-3" d="M1830.17,913.42c-7.18,18-42,25-57.9,37.05-10.83,8.2-31.49,36.32-44.19,39.64-28.13,7.35-73.21,25.18-83.11.5-8.6-13.92,22.6-44.53,41.64-63.94,10.15-12.77,55.49-47.3,69.61-62a34.08,34.08,0,0,1,5.18-4.27c16.1-11.11,24.07-14.79,45.8-19.53,13-2.84,70.35-56.84,79.07-48.46,14.39-5.53,49.46,27.35,19,49.8a8.49,8.49,0,0,0-3.06,9.62c4.24,11-62.66,8.94-65.36,40.42C1836.78,892.59,1831.73,908.86,1830.17,913.42Z"/><path class="cls-1" d="M428.16,2166.83a937.93,937.93,0,0,0,113.11,81.58,1025.66,1025.66,0,0,0,175.05,86.51c23.59,8.94,47.57,17,72.57,22.84,6.25,1.45,12.54,2.81,19.17,3,1.65,0,9.23,1.4,10.27-1.26,1.16-.36,1.78-1.7,2.52-2.61,11.79-14.53,20.95-30.48,29.62-46.66,20.45-38.12,35.12-77.84,48.4-117.93,15.58-47,29-94.38,44.22-141.45,16.19-50.05,35.27-99.44,55.13-148.64,38.25-94.78,80.5-188.38,122.15-282.15,24.61-55.42,48.28-111.14,73.25-166.44,11.77-26.07,21-52.73,32.81-78.77,12.81-28.32,24-57.17,35-86,2-5.21,3.76-10.46,5.25-15.76,1.76-6.25,1.36-7.12-4.23-5.84-16.64,3.82-33,9.59-49.33,15.24-91.57,31.66-182.5,66.21-273.41,100.8q-197.18,75-393.57,153.13c-95.49,37.95-190.92,76.07-285.74,116.48-22.27,9.5-44.56,18.95-66.29,30.16-.59.3-3.12,2.27-5.53,4.13a13.11,13.11,0,0,0-5,8.82,3.79,3.79,0,0,1-.09.54c-4.91,21.56-3.81,42.61-1.07,63.32,6,45.08,19.06,87.18,36.08,127.66a606.56,606.56,0,0,0,46.79,89.12c14.46,22.86,28.79,45.8,45.17,67.22a770.54,770.54,0,0,0,57.46,66.82A799.68,799.68,0,0,0,428.16,2166.83Z"/><path class="cls-2" d="M810.54,2399.34a2.06,2.06,0,0,0,2.7-1.34c2.85-8.42,7.28-16.36,11.08-24.47,17.2-36.73,55-111,67-149.07,1.37-4.32-3.41-1.42-7.63-.75-34.07,5.4-66.31,2.48-97.26-6.49-24.68-7.15-46.4-19.41-68.22-31.5-38.38-21.26-76.15-43.41-113.56-66.09-31.42-19-62.51-38.56-92.82-59.14-24.12-16.38-47.31-33.83-66.85-55.48a339.2,339.2,0,0,1-40.14-53.81,1624.3,1624.3,0,0,1-84.95-162.72c-12.35-27.44-22.4-56-28.14-86.5-4.12-21.85,0-30.89,4.68-54.25,0-.06,2.39-12.79-5.68-8.63-32.27,16.61-97,40-121.76,47.75-4.53,1.42-9.08,2.72-13.62,4.08-.55.3-4.37,1.89-7.1,3.22a3.47,3.47,0,0,0-2,3,163.36,163.36,0,0,0,1.43,17.23c8.77,74.67,32.33,142.63,66.19,205.89a599.16,599.16,0,0,0,33.11,54.15c15.86,23.3,31.14,47,48.27,69.27a859.4,859.4,0,0,0,58.52,67.94q17.65,18.6,36.5,36c13.12,12.13,26.43,24,40.07,35.6,20,16.94,40.7,33,61.88,48.48q38,27.83,78.55,52.31a1210.87,1210.87,0,0,0,165.84,83.74c19.15,7.93,39,14.59,57.83,23.08C798.49,2392.66,806.66,2397.38,810.54,2399.34Z"/><path class="cls-3" d="M501.3,1765.05c12.37,11.75,34.92,14.18,53.16,15.3,12.39.76,51-3.94,63.46-8.69,27.58-10.49,54.81-8.43,55.5-36.51.4-16.45-34-44.24-42.72-56.72-8.53-12.24-69.1-5.77-83.83-10.3-21.62-6.66-50.1-9.26-71.62,4.86-11.62,7.63-59.08,5.12-64.11,17.9-.26.66-11.9,75.23,6.86,58.18-12.45,24,58.92-18.67,70.57,1.53C490.73,1754.33,498.29,1761.8,501.3,1765.05Z"/><path class="cls-3" d="M718.41,2028.86c12.37,11.75,29.38,7.8,47.62,8.92,12.39.77,56.2,11.4,68.66,6.66,27.58-10.5,40,14.77,40.7-13.31.4-16.45-52.79-39-61.49-51.49-8.53-12.24-43.93-12.12-58.66-16.65-13.35-5.57-44.78,11.28-64.52-.52-8.08-4.83-66.06-15.12-73.24,4.77-.26.66,34.71,31.74,34.38,32.38-11.44,26,36.27,12.54,40.68,18.27C694.7,2021.62,715.4,2025.62,718.41,2028.86Z"/><path class="cls-3" d="M854,1602.42c12.37,11.75,25.9-14,44.14-12.87,12.39.77,36.52-30.07,49-34.81,27.58-10.5,59.41-3,60.1-31.11.41-16.45,59.78-59.7,51.08-72.18,5.15-48-51-28.76-78.07-1-21.62-6.65-59.87-3.85-81.39,10.28C887.2,1468.31,846,1492,841,1504.75c8.38-5.59-67.18,37.92-46.33,38.38-12.44,24-36.24,47-24.59,67.19C772.25,1614.05,851,1599.17,854,1602.42Z"/><path class="cls-3" d="M913.42,1830.17c18-7.18,25-42,37.05-57.9,8.2-10.83,36.32-31.49,39.64-44.19,7.35-28.13,25.18-73.21.5-83.11-13.92-8.6-44.53,22.6-63.94,41.64-12.77,10.15-47.3,55.49-62,69.61a34.08,34.08,0,0,0-4.27,5.18c-11.11,16.1-14.79,24.07-19.53,45.8-2.84,13-56.84,70.35-48.46,79.07-5.53,14.39,27.35,49.46,49.8,19a8.49,8.49,0,0,1,9.62-3.06c11,4.24,8.94-62.66,40.42-65.36C892.59,1836.78,908.86,1831.73,913.42,1830.17Z"/><path class="cls-1" d="M1229.3,31.13a770,770,0,0,0-87.88,6.62c-26.73,3.56-53.09,9.65-79.47,15.59a606.55,606.55,0,0,0-96.11,29.93c-40.66,16.59-79.69,37.1-115.78,64.76-16.58,12.7-32.25,26.81-44,45.53a5.36,5.36,0,0,1-.32.44,13.09,13.09,0,0,0-2.71,9.77c.39,3,.78,6.19,1,6.83,7.44,23.28,16.51,45.73,25.55,68.19,38.47,95.63,79,190.06,119.68,284.41q83.68,194.1,170,386.59c39.83,88.74,79.7,177.46,122.06,264.6,7.56,15.55,15,31.19,24.1,45.65,3,4.87,3.95,4.53,7.13-1.13,2.69-4.8,5.15-9.77,7.43-14.86,12.61-28.18,25.11-56.47,36.09-85.55,10.08-26.73,22.38-52.14,32.49-78.91,21.45-56.75,44.11-112.89,65.89-169.48,36.86-95.75,73.17-191.81,113.14-285.88,20.75-48.83,42.18-97.25,66.13-144.09,22.52-44,46.52-87,68.75-131.28,19-37.74,36.66-76.2,49.16-117.62,5.31-17.57,10.11-35.33,12.05-53.93.12-1.18.63-2.56.07-3.63,1.14-2.62-5.18-7-6.38-8.16-4.81-4.55-10.22-8-15.66-11.44-21.78-13.59-44.47-24.8-67.47-35.17a1027.92,1027.92,0,0,0-185-62.61A939.36,939.36,0,0,0,1311.6,34,799,799,0,0,0,1229.3,31.13Z"/><path class="cls-2" d="M1746.39,140a2.05,2.05,0,0,1,1,2.86c-3.93,8-6.42,16.71-9.47,25.13-13.81,38.14-39.63,117.4-58,152.83-2.08,4-3.41-1.41-5.93-4.87-20.27-27.91-45.13-48.64-73.35-64.18-22.52-12.4-46.54-19.09-70.52-26-42.17-12.11-84.54-23.15-127-33.57-35.68-8.75-71.47-16.93-107.45-23.81-28.64-5.47-57.38-9.54-86.5-8a338.38,338.38,0,0,0-66.43,9.67,1623.7,1623.7,0,0,0-175.14,55c-28.13,10.67-55.44,23.76-81.06,41.26-18.36,12.54-21.83,21.86-35.05,41.67,0,.05-7.35,10.74-10.12,2.09C830.24,275.49,801,213.22,789,190.19c-2.2-4.21-4.5-8.35-6.75-12.52-.17-.6-1.75-4.43-2.74-7.3a3.46,3.46,0,0,1,.75-3.54,165.35,165.35,0,0,1,13.2-11.18c59-46.59,123.72-78,192.39-98.78A599.86,599.86,0,0,1,1047.53,42c27.69-5.26,55.24-11.2,83.12-14.86a861.42,861.42,0,0,1,89.42-6.65q25.62-.68,51.26.36c17.86.69,35.69,1.68,53.51,3.15,26.11,2.16,52.1,5.46,78,9.48q46.59,7.23,92.54,18.55a1211.67,1211.67,0,0,1,176.48,58.05c19.15,7.94,37.87,17.24,57.2,24.58C1733.15,136.2,1742.26,138.63,1746.39,140Z"/><path class="cls-3" d="M1079.22,369.83c17,.44,34.72,14.67,48.41,26.78,9.3,8.22,33.27,38.85,38.73,51,12.08,26.93,32.79,44.72,13.42,65.06-11.34,11.92-55.34,7.23-70.31,9.9-14.68,2.63-52.94-44.78-66.57-52-20-10.58-42-28.88-47.2-54.08-2.82-13.61-38.16-45.4-32.68-58,.28-.65,44.78-61.61,46-36.29,8.15-25.75,28.46,54.86,51,48.83C1064.16,369.94,1074.79,370,1079.22,369.83Z"/><path class="cls-3" d="M1419.28,336.81c17.06.44,26.29,15.26,40,27.37,9.3,8.22,47.8,31.68,53.26,43.84,12.08,26.92,38.73,17.85,19.36,38.19-11.34,11.91-64.91-9.75-79.88-7.07-14.69,2.62-39.63-22.5-53.25-29.71-13.38-5.5-23.69-39.64-46-45.25-9.12-2.3-57.4-36-48.41-55.16.28-.65,47,2.09,47.2,1.41,10.28-26.46,34.52,16.78,41.69,15.85C1397.39,325.16,1414.86,337,1419.28,336.81Z"/><path class="cls-3" d="M1213.59,734.21c17.06.44,8.43,28.2,22.12,40.31,9.3,8.22,4.56,47.09,10,59.25,12.08,26.92,39.87,44.16,20.5,64.5-11.34,11.91.06,84.48-14.91,87.15C1221,1023,1194.9,969.69,1195.37,931c-20-10.58-45-39.61-50.28-64.81-2.83-13.61-15.21-59.44-9.73-72,2,9.87-20.68-74.32-5.61-59.9,8.15-25.75,7.6-58.86,30.12-64.9C1164,668.2,1209.17,734.37,1213.59,734.21Z"/><path class="cls-3" d="M1416.68,615.2c7.66,17.82-12,47.33-14.75,67.14-1.85,13.45,3.42,47.95-3.22,59.28-14.69,25.09-34,69.57-58.41,59.11-15.92-3.76-15.51-47.45-15.76-74.65-1.86-16.2,5.78-72.68,5.37-93.07a34,34,0,0,1,.64-6.68c3.53-19.24,6.57-27.48,18.57-46.19,7.19-11.2,9.56-89.94,21.65-90.18,6.27-14.08,54.31-15.64,48.63,21.8a8.47,8.47,0,0,0,4.63,9c10.75,4.76-38,50.63-17.64,74.8C1406.62,595.8,1414.56,610.88,1416.68,615.2Z"/><path class="cls-1" d="M1311.6,2492.86a939.36,939.36,0,0,0,137.67-22.28,1027.14,1027.14,0,0,0,185-62.61c23-10.37,45.69-21.58,67.47-35.17,5.44-3.4,10.85-6.88,15.66-11.44,1.2-1.14,7.52-5.54,6.38-8.15.56-1.08,0-2.46-.07-3.64-1.94-18.6-6.74-36.36-12.05-53.93-12.5-41.42-30.2-79.88-49.16-117.62-22.23-44.25-46.23-87.24-68.75-131.28-24-46.84-45.38-95.26-66.13-144.09-40-94.07-76.28-190.13-113.14-285.88-21.78-56.59-44.44-112.73-65.89-169.48-10.11-26.77-22.41-52.18-32.49-78.91-11-29.08-23.48-57.37-36.09-85.55-2.28-5.09-4.74-10.06-7.43-14.85-3.18-5.67-4.08-6-7.13-1.14-9.07,14.46-16.54,30.1-24.1,45.65-42.36,87.14-82.23,175.86-122.06,264.61q-86.37,192.47-170,386.58C908.55,2058,868,2152.46,829.55,2248.09c-9,22.46-18.11,44.91-25.55,68.2-.21.63-.6,3.81-1,6.82a13.09,13.09,0,0,0,2.71,9.77,5.36,5.36,0,0,1,.32.44c11.77,18.72,27.44,32.83,44,45.54,36.09,27.65,75.12,48.16,115.78,64.75a606.55,606.55,0,0,0,96.11,29.93c26.38,5.94,52.74,12,79.47,15.59a770,770,0,0,0,87.88,6.62A799,799,0,0,0,1311.6,2492.86Z"/><path class="cls-2" d="M1746.39,2386.89a2,2,0,0,0,1-2.85c-3.93-8-6.42-16.72-9.47-25.14-13.81-38.14-39.63-117.4-58-152.83-2.08-4-3.41,1.42-5.93,4.87-20.27,27.92-45.13,48.64-73.35,64.18-22.52,12.4-46.54,19.09-70.52,26-42.17,12.11-84.54,23.15-127,33.57-35.68,8.75-71.47,16.93-107.45,23.81-28.64,5.47-57.38,9.54-86.5,8a339.11,339.11,0,0,1-66.43-9.66,1626,1626,0,0,1-175.14-55c-28.13-10.67-55.44-23.76-81.06-41.26-18.36-12.54-21.83-21.86-35.05-41.67,0-.05-7.35-10.73-10.12-2.09-11.07,34.56-40.29,96.83-52.33,119.86-2.2,4.21-4.5,8.35-6.75,12.52-.17.6-1.75,4.43-2.74,7.3a3.46,3.46,0,0,0,.75,3.54,165.35,165.35,0,0,0,13.2,11.18c59,46.59,123.72,78,192.39,98.78a599.86,599.86,0,0,0,61.7,14.87c27.69,5.26,55.24,11.2,83.12,14.86a861.42,861.42,0,0,0,89.42,6.65q25.62.68,51.26-.36c17.86-.69,35.69-1.68,53.51-3.15,26.11-2.16,52.1-5.46,78-9.48q46.59-7.21,92.54-18.55a1211.67,1211.67,0,0,0,176.48-58c19.15-7.94,37.87-17.24,57.2-24.58C1733.15,2390.68,1742.26,2388.25,1746.39,2386.89Z"/><path class="cls-3" d="M1079.22,2157.05c17-.44,34.72-14.67,48.41-26.78,9.3-8.22,33.27-38.85,38.73-51,12.08-26.93,32.79-44.72,13.42-65.06-11.34-11.92-55.34-7.23-70.31-9.9-14.68-2.63-52.94,44.78-66.57,52-20,10.58-42,28.88-47.2,54.08-2.82,13.61-38.16,45.4-32.68,58,.28.65,44.78,61.61,46,36.29,8.15,25.75,28.46-54.86,51-48.82C1064.16,2156.94,1074.79,2156.88,1079.22,2157.05Z"/><path class="cls-3" d="M1419.28,2190.07c17.06-.44,26.29-15.26,40-27.36,9.3-8.23,47.8-31.69,53.26-43.85,12.08-26.92,38.73-17.85,19.36-38.19-11.34-11.91-64.91,9.75-79.88,7.07-14.69-2.62-39.63,22.5-53.25,29.71-13.38,5.5-23.69,39.64-46,45.26-9.12,2.29-57.4,36-48.41,55.16.28.64,47-2.1,47.2-1.42,10.28,26.46,34.52-16.78,41.69-15.85C1397.39,2201.72,1414.86,2189.9,1419.28,2190.07Z"/><path class="cls-3" d="M1213.59,1792.67c17.06-.43,8.43-28.2,22.12-40.31,9.3-8.22,4.56-47.09,10-59.25,12.08-26.92,39.87-44.16,20.5-64.5-11.34-11.91.06-84.48-14.91-87.15-30.33-37.61-56.41,15.73-55.94,54.47-20,10.58-45,39.61-50.28,64.82-2.83,13.6-15.21,59.43-9.73,72,2-9.87-20.68,74.32-5.61,59.9,8.15,25.75,7.6,58.86,30.12,64.9C1164,1858.68,1209.17,1792.51,1213.59,1792.67Z"/><path class="cls-3" d="M1416.68,1911.68c7.66-17.82-12-47.33-14.75-67.14-1.85-13.45,3.42-48-3.22-59.28-14.69-25.09-34-69.57-58.41-59.11-15.92,3.76-15.51,47.46-15.76,74.65-1.86,16.21,5.78,72.68,5.37,93.07a34,34,0,0,0,.64,6.68c3.53,19.25,6.57,27.48,18.57,46.19,7.19,11.2,9.56,89.94,21.65,90.18,6.27,14.08,54.31,15.64,48.63-21.8a8.47,8.47,0,0,1,4.63-9c10.75-4.75-38-50.62-17.64-74.8C1406.62,1931.08,1414.56,1916,1416.68,1911.68Z"/><path class="cls-1" d="M361.24,415.57a769,769,0,0,0-57.46,66.82c-16.38,21.42-30.71,44.36-45.17,67.21a607.18,607.18,0,0,0-46.79,89.13c-17,40.48-30.11,82.58-36.08,127.66-2.74,20.7-3.84,41.76,1.07,63.32a3.79,3.79,0,0,1,.09.54,13.11,13.11,0,0,0,5,8.82c2.41,1.86,4.94,3.82,5.53,4.13,21.72,11.2,44,20.66,66.29,30.16C348.52,913.77,444,951.89,539.44,989.84Q735.85,1067.92,933,1143c90.91,34.59,181.84,69.13,273.41,100.8,16.34,5.65,32.68,11.42,49.33,15.24,5.59,1.28,6,.41,4.23-5.85-1.49-5.29-3.27-10.54-5.25-15.75-11-28.84-22.18-57.69-35-86-11.77-26-21-52.7-32.81-78.77-25-55.3-48.64-111-73.25-166.44C1072,812.42,1029.79,718.82,991.54,624c-19.86-49.2-38.94-98.59-55.13-148.64C921.19,428.33,907.76,381,892.19,334c-13.28-40.09-28-79.81-48.4-117.93-8.67-16.18-17.83-32.13-29.62-46.66-.74-.91-1.36-2.25-2.52-2.61-1-2.66-8.62-1.3-10.27-1.26-6.63.18-12.92,1.54-19.17,3-25,5.79-49,13.9-72.58,22.84a1026.62,1026.62,0,0,0-175,86.5,939.1,939.1,0,0,0-113.11,81.59A797.62,797.62,0,0,0,361.24,415.57Z"/><path class="cls-2" d="M803.86,126.9a2.06,2.06,0,0,1,2.7,1.34c2.85,8.42,7.27,16.36,11.07,24.47,17.21,36.73,55,111,67.06,149.07,1.37,4.31-3.41,1.42-7.63.75-34.07-5.4-66.31-2.48-97.26,6.49-24.68,7.15-46.4,19.41-68.22,31.5C673.2,361.78,635.43,383.93,598,406.61c-31.42,19-62.51,38.56-92.82,59.14-24.12,16.38-47.31,33.83-66.85,55.48A339.2,339.2,0,0,0,398.21,575a1624.3,1624.3,0,0,0-84.95,162.72c-12.35,27.44-22.4,56-28.14,86.5-4.12,21.85,0,30.89,4.68,54.25,0,.06,2.39,12.78-5.68,8.63-32.27-16.61-97-40-121.76-47.75-4.53-1.42-9.08-2.73-13.62-4.08-.55-.3-4.37-1.89-7.1-3.22a3.47,3.47,0,0,1-2-3,161.14,161.14,0,0,1,1.43-17.24c8.77-74.66,32.33-142.62,66.19-205.88a596.9,596.9,0,0,1,33.11-54.15c15.86-23.3,31.14-47,48.27-69.28a860.91,860.91,0,0,1,58.52-67.94q17.65-18.58,36.5-36c13.12-12.13,26.43-24,40.07-35.6,20-16.94,40.69-33,61.88-48.48q38-27.83,78.55-52.31A1211.33,1211.33,0,0,1,730,158.44c19.16-7.93,39-14.59,57.83-23.08C791.81,133.58,800,128.86,803.86,126.9Z"/><path class="cls-3" d="M494.62,761.19c12.37-11.75,34.92-14.18,53.16-15.3,12.39-.76,51,3.94,63.46,8.68,27.58,10.5,54.81,8.44,55.5,36.52.4,16.45-34,44.24-42.72,56.71-8.53,12.25-69.1,5.78-83.83,10.31-21.62,6.66-50.1,9.26-71.62-4.86-11.62-7.63-59.09-5.12-64.12-17.9-.25-.66-11.89-75.23,6.87-58.18-12.45-24,58.92,18.67,70.57-1.53C484.05,771.91,491.61,764.44,494.62,761.19Z"/><path class="cls-3" d="M711.73,497.38c12.37-11.75,29.38-7.8,47.62-8.93,12.39-.76,56.2-11.39,68.66-6.65,27.58,10.5,40-14.77,40.7,13.31.4,16.45-52.79,39-61.49,51.49-8.53,12.24-43.93,12.12-58.66,16.65-13.35,5.57-44.78-11.28-64.52.52C676,568.6,618,578.89,610.8,559c-.26-.66,34.71-31.74,34.38-32.38-11.44-26,36.27-12.54,40.68-18.27C688,504.62,708.72,500.62,711.73,497.38Z"/><path class="cls-3" d="M847.29,923.82c12.37-11.75,25.9,14,44.14,12.86,12.39-.76,36.52,30.08,49,34.82,27.58,10.5,59.41,3,60.1,31.11.4,16.45,59.78,59.7,51.08,72.18,5.15,48-51,28.76-78.07,1-21.62,6.65-59.87,3.85-81.39-10.28-11.61-7.62-52.77-31.27-57.8-44.06,8.38,5.59-67.18-37.92-46.33-38.38-12.44-24-36.25-47-24.59-67.19C765.57,912.19,844.28,927.07,847.29,923.82Z"/><path class="cls-3" d="M906.74,696.07c18,7.18,25,42,37,57.9,8.2,10.83,36.32,31.49,39.64,44.19,7.35,28.13,25.18,73.21.49,83.11-13.91,8.6-44.52-22.6-63.93-41.65-12.77-10.14-47.3-55.48-62-69.61a33,33,0,0,1-4.27-5.17c-11.11-16.1-14.79-24.07-19.53-45.8-2.84-13-56.84-70.35-48.46-79.07-5.53-14.39,27.35-49.46,49.8-19a8.48,8.48,0,0,0,9.62,3.06c11-4.24,8.94,62.66,40.42,65.36C885.91,689.46,902.18,694.51,906.74,696.07Z"/><path class="cls-1" d="M2160.14,2098.08A936.91,936.91,0,0,0,2241.73,1985a1025.66,1025.66,0,0,0,86.51-175c8.94-23.59,17.05-47.57,22.84-72.58,1.44-6.24,2.81-12.53,3-19.16,0-1.65,1.4-9.23-1.26-10.27-.36-1.16-1.7-1.78-2.61-2.52-14.53-11.79-30.48-21-46.66-29.62-38.12-20.45-77.84-35.12-117.93-48.4-47-15.58-94.38-29-141.45-44.22-50.05-16.19-99.44-35.27-148.64-55.13-94.78-38.26-188.38-80.5-282.15-122.15-55.42-24.61-111.14-48.28-166.44-73.25-26.07-11.77-52.73-21-78.77-32.81-28.32-12.81-57.17-24-86-35-5.21-2-10.46-3.77-15.76-5.25-6.25-1.76-7.12-1.36-5.84,4.23,3.82,16.64,9.58,33,15.24,49.33,31.66,91.57,66.21,182.5,100.79,273.41q75,197.17,153.14,393.57c38,95.48,76.07,190.92,116.48,285.74,9.5,22.27,19,44.56,30.16,66.29.3.59,2.27,3.12,4.13,5.53a13.11,13.11,0,0,0,8.82,5,3.79,3.79,0,0,1,.54.09c21.56,4.91,42.61,3.81,63.32,1.07,45.08-6,87.18-19.06,127.66-36.08A606.56,606.56,0,0,0,1970,2261c22.86-14.46,45.8-28.79,67.22-45.17a770.54,770.54,0,0,0,66.82-57.46A797.49,797.49,0,0,0,2160.14,2098.08Z"/><path class="cls-2" d="M2392.66,1715.7a2.06,2.06,0,0,0-1.34-2.7c-8.42-2.85-16.36-7.28-24.47-11.08-36.74-17.2-111-55-149.07-67.05-4.32-1.37-1.42,3.41-.75,7.63,5.4,34.07,2.48,66.31-6.49,97.26-7.15,24.68-19.41,46.4-31.5,68.22-21.26,38.38-43.41,76.14-66.09,113.56-19,31.42-38.56,62.51-59.14,92.82-16.38,24.12-33.83,47.31-55.48,66.85a339.66,339.66,0,0,1-53.81,40.14,1624.3,1624.3,0,0,1-162.72,85c-27.44,12.35-56,22.4-86.5,28.14-21.85,4.12-30.89,0-54.25-4.68-.06,0-12.79-2.39-8.63,5.68,16.61,32.27,40,97,47.75,121.76,1.42,4.53,2.72,9.08,4.08,13.62.3.55,1.89,4.37,3.22,7.1a3.47,3.47,0,0,0,3,2,163.36,163.36,0,0,0,17.23-1.43c74.67-8.77,142.63-32.33,205.89-66.19a599.16,599.16,0,0,0,54.15-33.11c23.3-15.86,47-31.14,69.27-48.27a859.4,859.4,0,0,0,67.94-58.52q18.6-17.65,36-36.5c12.14-13.12,24.05-26.43,35.61-40.07,16.94-20,33-40.7,48.48-61.88q27.82-38,52.31-78.55a1210.87,1210.87,0,0,0,83.74-165.84c7.93-19.15,14.59-39,23.07-57.83C2386,1727.75,2390.7,1719.58,2392.66,1715.7Z"/><path class="cls-3" d="M1758.37,2024.94c11.75-12.37,14.18-34.92,15.3-53.16.76-12.39-4-51-8.69-63.46-10.49-27.58-8.44-54.81-36.51-55.5-16.45-.4-44.24,34-56.72,42.71-12.24,8.54-5.77,69.11-10.3,83.84-6.66,21.62-9.26,50.1,4.86,71.62,7.62,11.62,5.12,59.08,17.9,64.11.66.26,75.23,11.9,58.18-6.86,24,12.45-18.67-58.92,1.53-70.57C1747.65,2035.51,1755.12,2028,1758.37,2024.94Z"/><path class="cls-3" d="M2022.18,1807.83c11.75-12.38,7.8-29.38,8.92-47.62.76-12.39,11.4-56.2,6.66-68.66-10.5-27.58,14.76-40-13.31-40.7-16.45-.4-39,52.79-51.49,61.49-12.24,8.53-12.12,43.93-16.65,58.66-5.57,13.35,11.28,44.78-.52,64.52-4.83,8.08-15.12,66.06,4.77,73.24.66.26,31.74-34.71,32.38-34.38,26,11.44,12.54-36.27,18.27-40.68C2014.94,1831.54,2018.93,1810.84,2022.18,1807.83Z"/><path class="cls-3" d="M1595.74,1672.27c11.75-12.37-14-25.9-12.87-44.14.76-12.39-30.07-36.52-34.82-49-10.49-27.58-3-59.41-31.11-60.1-16.44-.41-59.69-59.78-72.17-51.08-48-5.15-28.76,51-1,78.07-6.65,21.62-3.85,59.86,10.28,81.39,7.62,11.61,31.27,52.77,44,57.8-5.58-8.38,37.93,67.18,38.39,46.32,24,12.45,47,36.25,67.19,24.6C1607.37,1754,1592.49,1675.28,1595.74,1672.27Z"/><path class="cls-3" d="M1823.49,1612.82c-7.18-18-42-25-57.9-37-10.83-8.2-31.49-36.32-44.19-39.64-28.13-7.35-73.21-25.18-83.11-.5-8.6,13.92,22.59,44.53,41.64,63.94,10.15,12.77,55.49,47.3,69.61,62a34.08,34.08,0,0,0,5.18,4.27c16.1,11.11,24.07,14.79,45.79,19.53,13,2.83,70.36,56.83,79.08,48.46,14.39,5.53,49.46-27.35,19-49.8a8.49,8.49,0,0,1-3.06-9.62c4.24-11-62.66-8.94-65.36-40.42C1830.1,1633.65,1825.05,1617.38,1823.49,1612.82Z"/><circle class="cls-4" cx="1272.89" cy="1258.65" r="1237.22"/><g id="basilico"><path class="cls-5" d="M1402,1213.89c-31.35,22.62-63.08,63.23-74.39,99-93.13-44.53-184.76-137.65-153.86-108,19.15,16.88,133,92.31,153.86,108-34.32,9.45-83.45,33.59-103.91,65-8.59-5.66-17.14-10.72-25-16.6-29.45-21.9-52.81-49.56-73.92-79.3-24.08-33.93-43.65-70.62-63.38-107.23-6.69-12.42-13.9-24.55-20.85-36.82a39.78,39.78,0,0,1-2.72-5.32c-2.22-5.83-.66-10.67,5.29-13.3,18.24-17.75,143.36-42.59,260.65,19.5,79.93,35,62.08,35,84.18,58.56C1392.89,1202.49,1397.21,1208.22,1402,1213.89Z"/><path class="cls-6" d="M1280.25,1408c-7,9.57,41.7-56,50.62-78,6.54,3.62,17,11.8,23.25,15.41a5.69,5.69,0,0,1,1.92,3c7.68,28.22,9.44,54.63-1.5,77.07-7.22,14.82-18.49,25.92-31.2,35.62-19.28,14.7-41.62,25.17-64.49,34.92-7.47,3.18-14.66,6.81-21.89,10.36-5,2.44-9.6.45-11.47-6a117.11,117.11,0,0,1-4.51-22.89c-2.28-28.1-.77-55.1,1.39-81.84,1.19-14.82,2.23-29.8,5.17-43.84,3.83-18.29,13.3-32.53,29.09-41.25,13.36-7.38,29.1-9.21,46.43-7.29,1.09.12,2.74,1.56,3.65,2.69,5.24,6.59,22.28,22.51,19.63,20C1325.43,1325.1,1279.84,1407.66,1280.25,1408Z"/><path class="cls-7" d="M1321.9,1306.41c-5.21,1.76,97.79-33.12,103-35.61,7.87-1.5-108.26,34.55-104.32,33.33.5,2-3.61-14.19-3.83-18.9-.2-14.64,3.94-27.47,10.16-39.31,7.32-13.94,15.92-26.8,28.41-36.41,13.38-10.31,29.29-16.13,46.59-19.51,30.72-6,63.1-4.15,95.77-.69,20.73,2.2,41.51,5,62.26,7.46,8.1,1,11.7,6.06,8.51,13.84-3.46,8.41-7.17,17-12.63,23.89q-27.46,34.68-56.41,68.08a290.9,290.9,0,0,1-29.54,29.1c-28.46,24.65-73.33,25.68-112.74,2.9a180.09,180.09,0,0,1-23.6-15.7C1328.43,1314.7,1320.26,1304.36,1321.9,1306.41Z"/><line class="cls-6" x1="1230.29" y1="1235.52" x2="1229.42" y2="1171.39"/><line class="cls-6" x1="1166.1" y1="1254" x2="1230.22" y2="1254.86"/><line class="cls-8" x1="1373.96" y1="1277.17" x2="1373.43" y2="1237.8"/><line class="cls-8" x1="1299.94" y1="1426.68" x2="1299.41" y2="1387.31"/><line class="cls-8" x1="1270.33" y1="1346.02" x2="1309.7" y2="1346.55"/><line class="cls-8" x1="1379.2" y1="1289.85" x2="1413.47" y2="1309.24"/></g></g></g></svg>