<svg xmlns="http://www.w3.org/2000/svg" viewBox="0 0 3653.42 5403.96"><defs><style>.cls-1{fill:#d34228;stroke:#dc763c;}.cls-1,.cls-10,.cls-13,.cls-14,.cls-15,.cls-16,.cls-17,.cls-18,.cls-19,.cls-20,.cls-21,.cls-22,.cls-24,.cls-26,.cls-27,.cls-6,.cls-7,.cls-8{stroke-miterlimit:10;}.cls-1,.cls-10,.cls-13,.cls-14,.cls-15,.cls-21,.cls-22,.cls-24,.cls-26,.cls-6,.cls-7{stroke-width:68.66px;}.cls-2{fill:#f0dc81;}.cls-3,.cls-7,.cls-8{fill:#f5eed6;}.cls-4{fill:#eee2c4;}.cls-5{fill:#e5b841;}.cls-10,.cls-21,.cls-24,.cls-6,.cls-9{fill:#f7da7f;}.cls-6{stroke:#f9d660;}.cls-15,.cls-22,.cls-7,.cls-8{stroke:#eee2c4;}.cls-8{stroke-width:67px;}.cls-10{stroke:#f8d65f;}.cls-11{fill:#e1b438;}.cls-12{fill:#272825;}.cls-13{fill:#f1be49;}.cls-13,.cls-14{stroke:#edaf35;}.cls-14{fill:#f1bd5c;}.cls-15{fill:#f4edd9;}.cls-16{fill:#e39293;stroke:#e39293;}.cls-16,.cls-17,.cls-18,.cls-19,.cls-20{stroke-width:21.46px;}.cls-17{fill:#78757a;}.cls-17,.cls-18,.cls-19,.cls-20{stroke:#676666;}.cls-18{fill:#797b7a;}.cls-19{fill:#78797a;}.cls-20{fill:#797877;}.cls-21{stroke:#f6d766;}.cls-22{fill:#f4edd6;}.cls-23{fill:#e49491;}.cls-24{stroke:#f5d763;}.cls-25{fill:#d44834;}.cls-26{fill:#e7a2a6;stroke:#e49694;}.cls-27{fill:#7d5a42;stroke:#774f33;stroke-width:68.93px;}</style></defs><g id="Livello_2" data-name="Livello 2"><g id="Livello_7" data-name="Livello 7"><path class="cls-1" d="M3683.71-4801.95c-89.14-93.55-31.21-191.58,28.77-253.58,17.86,38.57,31.13,78.23,53.71,114.12,24.76,39.34,17.5,79.25-14.91,113.44-11.18,11.78-22.69,23.25-34.05,34.86C3697.4-4763.24,3690.68-4783,3683.71-4801.95Z" transform="translate(-795.02 8035.49)"/><path class="cls-2" d="M3683.71-4801.95c9.35,9.86,18.5,20.48,33.52,8.84l.48,160.16-27.55,0C3677.48-4688.9,3684.7-4745.58,3683.71-4801.95Z" transform="translate(-795.02 8035.49)"/><path class="cls-3" d="M3192.62-4514c51.93,46,106.63,88.43,163.48,128.12,25.64,24.74,54.91,44.77,84.28,64.68,30.91,15.34,54.17,41.4,83.74,58.83,91.45,53.89,189.44,66.37,294.63,62.61,40.62-1.45,91.49-10.18,129.62,23.74,12,73.77,2.34,149.64,22.15,222.56.92,64.34-3.55,68.23-66.52,69.07-22.87,17.2-634.34-3.92-693-37.15-25.21-8.45-51.46-13.69-74.91-27-18.75-10.28-37.14-21.37-58.68-25.21-111.85-48.1-228.18-89.73-313-182.74" transform="translate(-795.02 8035.49)"/><path class="cls-4" d="M3192.62-4514c55,41.79,112.06,81.26,170.65,117.86a441.16,441.16,0,0,0,42.56,32.36c14.48,9.78,29.34,19,44.29,28.21l-2-1.18a215.73,215.73,0,0,1,32.17,18.58c18.43,12.61,35.46,27,54.26,37.21l14.34,7.34c3.86,2.09,10.53,4.9,14.6,6.83,74.13,33.49,156.88,41.6,237.55,38.17,16.51-.4,32.74-2.13,50.22-3.16,41.68-3,85.16,2.52,118.37,31.89l8.25,7.15,2.05,11.58c9.21,52.11,7.86,103.94,12.6,155.85,2,22.63,5.86,45.85,12,67,.17,19,1.21,38.81-3.18,57.78-4.47,19.22-16.62,34.73-34.8,42.34-15.52,6.37-31.19,7.13-46.35,7.75-5.41.19-10.54.27-15.67.36l20.17-6.89a45.25,45.25,0,0,1-4.9,3.13c-6.6,3.58-14.09,5.12-21.43,6.15-12.27,1.67-24.1,2.14-36,2.66-73.62,2.31-146.68-.2-220.09-3.17-87.55-3.86-174.71-9.63-262-18.52-44-4.73-88-9.7-131.75-18.29-11.52-2.39-23.31-4.92-34.88-8.83a83,83,0,0,1-14.69-6.44l4.29,1.91c-25.59-9.36-54.41-16.52-78.8-31.65-6.46-3.94-15.91-9.59-22.41-13.15-10.66-5.83-20.45-9.88-31.11-12.07-55.47-26.47-112.28-51.67-165.56-83.09-52.94-31.15-103.16-69.52-141-118.14,89.22,84.9,208.11,121.72,320.7,164.82l-4.28-1.28a127,127,0,0,1,20.78,4.94c16.87,5.47,32.13,13.92,47.7,21.63,21.7,10.37,45.39,14.25,69.45,21.62l4.29,1.91c.1,0,.89.31,1.85.63l1.69.52c3.44,1,6.93,1.79,10.81,2.62,48.46,8.8,98.2,11.27,147.6,14.6,157.78,8.28,316.71,14.43,474.66,10.93,10.74-.51,21.35-.89,31.5-2.52l.47-.09a.41.41,0,0,1,.12,0l-.23.06a24.36,24.36,0,0,0-4.37,1.87,26.19,26.19,0,0,0-3.74,2.41l20.17-6.89c12.29-.13,27.35-.38,35.71-2.31-1.3.45-4.37,3.71-4.64,5,0,0,0-.08,0-.11a36.21,36.21,0,0,0,1.19-6.84c.87-9.62.74-19.93.68-30l1.19,8.43c-8-29.78-11.28-59.52-13.14-89.66-2.64-45.47-1.21-92.24-7.73-136.68l10.3,18.73c-12.17-11.21-26.56-16-43.63-18.06-20.7-2.33-41.72-.29-63.92.09-17.15.29-35.64.08-52.65-.69-82.91-3.14-166.69-21.89-238.84-64.27-15.55-8.91-31.62-19.94-44.57-31.3-17.39-14.68-33.33-29.74-52.68-40.31-29.21-21.62-58.3-43.52-83.43-70.18l1.53,1.26c-55-42.64-107.85-88.46-156.32-138.39Z" transform="translate(-795.02 8035.49)"/><path class="cls-5" d="M3836.33-6336.24c-50.8,91.74,20.54,86.8-13.68,170.39-81.67,19.31-181.37,67.28-303.28,147,67.18-98.66,211.75-209.87,284.22-311.38C3814.88-6346,3827.55-6337.26,3836.33-6336.24Z" transform="translate(-795.02 8035.49)"/><path class="cls-6" d="M2595.93-3163.61c147.34.28,295.64,11.39,441.67-3,93.05-9.2,186.32-5.67,278.49-17.94,78.15-10.4,155.77-27.15,232.62-45.73,35.35-8.55,71.38-10.82,106.93-23.77,44.82-16.33,53.61-26.43,59.69-3.34,2.13,96.51-42.42,247.23-64.45,339.94-7.1,18.2-8.3,50.16-22.29,75.26-11.14,21.59-22.17,52.16-23,64.3-2,28.25-6.58,41.55-25.2,68.27l-.06.53c-18.34,14-.94-3.63-14,13.86-23.33,31.4-89,41.25-125.1,11.81-15.29-12.48-22.89-11.72-39-26.82-36.21-40.09-54.59-87.54-55.79-143.14-1.69-78-22.5-95.17-97.45-104.05-283.66-33.59-568-7.7-851.95-14.63-48.21-1.17-92.8,21.32-141.11,18.62-20.38-1.14-29.68,16.8-35.18,35.89-10.79,37.43-24.15,75.12-19.91,114.51,7,65.57-73.24,119.34-131,123.09-74.63,4.85-118.87-28.28-138.65-100.43-32.72-119.38-64.46-258.22-89.87-379.05-11.27-112.39-1.22-97.4,94.67-60.93,181.63,45.07,366,57.51,551.55,58.13,20.7.07,41.4-2.29,62.11-3.52C2565.6-3176.7,2581-3174.81,2595.93-3163.61Z" transform="translate(-795.02 8035.49)"/><path class="cls-7" d="M3228.5-5030.69c20.39,45.38,40.64,85.9,67.85,127.84,107.72,89.64,798.16,1593.72,550.51,1614-35.23,16.9-490.77,109.09-543.12,105.8-170.65-7.42-416.4,44.17-478.86,47.51-92.74,2.9-148.62,32.61-235.82,0-74.58-25.47,3.43-1125.42,1.66-1144.19-14.25-15.44,67.69-125.55,75.25-140.08,53.71-103.16,102.69-229.11,170.65-323.68,24.46-34,61.59-56.87,112.16-75.49,79.77-20.49,151.53-38.25,211.74-98.26C3195.48-4952.55,3229.62-5033.26,3228.5-5030.69Z" transform="translate(-795.02 8035.49)"/><path class="cls-8" d="M1758.58-3176.27c-57.43-22.75-54.73-164.1-56.62-222.16-5-153.4,11.21-303.52,42.75-454.89,24.32-116.72,47.44-234.16,76.9-349.47,19.51-76.37,44.8-153.9,59.76-229.16,25.27-127.11,81.12-241.15,114.71-364,16.7-61.07,11.44-132.37,54.49-184.36,5.19-19.21-12.62-28.72,9.23-40.82,33.85,39.85,102.13,52.48,146.84,74.53,143.05,70.55,289.57,130,449.42,142.73,25.54,2.05,51,1.91,76.54.69,14.18-.68,30-3.88,39.71,9.51,11.46,15.78-3.28,28.06-10,39.58-54.83,93.9-115.31,184.21-163.38,282.4-2.86,5.83-96.43,135.88-107.23,204.51-32.41,205.89-1.66,518.17,4.09,538.67,8,104.2,1.94,208.49,3.56,312.69.94,61-1.21,122,7.07,182.86,3.56,26.16,5.1,53.62-6.83,79-13.77,16.78-33,14.14-51.07,15.71C2315.2-3126.68,1794.14-3162.18,1758.58-3176.27Z" transform="translate(-795.02 8035.49)"/><path class="cls-9" d="M2902.68-5153.09c-34.45,34.09-14.91,78.24-43.18,117.38-25.56-40.4-62.43-71.59-112.43-94.07,40.29-28.24,103.44-13.94,145.76-40.76C2899.41-5174.71,2900.65-5159.74,2902.68-5153.09Z" transform="translate(-795.02 8035.49)"/><path class="cls-10" d="M1957.75-5216.64c-86.52-39.39-167.29-90.6-240.57-148.85-110-87.4-198.42-197.08-267.43-320.23-59.43-106.08-99.51-218-125.29-338.83-180.63-1091.67,808.7-1316.34,830.34-1342.69,223.42-33.2,240.25-3.36,280.21-19.42,53.73-21.58,104-35.61,135.61-91.1,28.27-49.56,75-79.74,138-66.4,38.26,18.95,48.24,53.54,49.39,95.89,18.16-4.89,29.24-16.23,41.52-25.33,47.07-33.92,86.46-78.93,143.1-99,9.67-3.44,19.11-7.52,28.86-10.69,35.95-11.71,70.8-9.23,99.77,16,30.62,26.7,15.83,60.07,11.36,83.07-12.11,20.7-37.85,74.5-82.82,95.95,56.2-.47,110.45-24,166.59-13.05,68.15,8.16,69.12,43,45.72,89.64-41.44,38.68-89.7,66.72-140.54,91-15.53,7.41-25.74,16.13-3.72,30.44,116.33,75.62,215.14,167.31,294,284.07,51.21,75.78,92.92,154.86,131.4,236.62,5.43,11.53,10.24,56.59,5.59,64.3C3390.1-6425,3279.57-6246.15,3096-6129.19c-104.77,66.74-217.07,117.87-333.54,160.31a104.29,104.29,0,0,0-23.85,11.85c-10,15,3.37,25.08,8.18,36.47,87,206.07,258.81,284.21,466.25,307.42,33.81,3.78,67.75,9.3,102.14,6.85a18.85,18.85,0,0,1,10.15,9.05c46.48,35.65-212,301.61-341.25,354.52-36,22.64-193.52,85-236.12,90.87-198.31-30.1-397.79-7.7-596.57-14.42-23.78-.8-47.59-1-71.37-2.61a39.57,39.57,0,0,1-23-10.47l-9.21-1.92C2017.94-5193.58,1986.19-5200.9,1957.75-5216.64Z" transform="translate(-795.02 8035.49)"/><path class="cls-11" d="M1862.19-6394c-69.87-124.82-51.52-296.51,34.77-378.75,40.47-38.58,77.91-48.08,101.11-25.67,26.7,25.81,25.19,79.24-4.4,118-22.43,29.37-45.64,58.17-69.27,86.59C1878.44-6538.6,1872.49-6470.39,1862.19-6394Z" transform="translate(-795.02 8035.49)"/><path class="cls-12" d="M2156.44-6172.89c-43.76.38-80.08-34.41-80.55-77.16-.47-42.52,36.39-79.21,79.52-79.16,45,.06,79,33.63,79.17,78.16C2234.76-6205.55,2202.51-6173.3,2156.44-6172.89Z" transform="translate(-795.02 8035.49)"/><path class="cls-13" d="M2763.52-5946.67c112.57-43.15,222.61-90.65,327.92-150.77,143-81.62,244.11-201.93,333.28-335.13,38.71-57.82,79.84-114.33,110.16-177.44,44.25-48.14,72.17-108.9,120.39-154.18,28.5-26.75,57.16-52.88,96.25-61.76,123.93-28.17,205.34,40,212.39,174.49,7.58,144.81-25.5,283.34-61.68,421.52-9,34.38-19.81,68.29-29.78,102.41-17.7,24.59-36.54,10.6-55.24,1.67-11.3-17.35-5.37-34.57,1.37-51.23,18.61-46,26.87-94.29,32.15-143.2,2.2-20.46,8.17-44.28-14.29-56.56-24.2-13.23-38.85,7.78-52.28,22.75-58.59,65.32-110.76,136-167,203.31-97.73,117.06-216.87,201.25-360.65,253.93-83,30.4-168.36,49.26-253.44,70.67-76,.35-141.84-29.71-204.55-68.71C2779.44-5906.77,2761.2-5920,2763.52-5946.67Z" transform="translate(-795.02 8035.49)"/><path class="cls-14" d="M3888.63-6113.51c-17.76,9.61-35.36-3.29-53.07-.39-37.85-22.09-73-4.05-106.13,10.62a1383.53,1383.53,0,0,0-150.74,77.79c-160.1,131.9-349.28,193.46-555.7,206.18-15.87-2.44-32-3.65-47.55-7.52-74.19-18.56-146.87-40.29-195.73-105.83-10.1-.4-21.16,2.82-14.22,14.26,40.74,67.06,69.48,141.91,126.71,198.36,81.2,80.09,212.56,85.71,320.8,106.9,59.55,11.66,155.62-5.81,218.14-28.32C3469.18-5656.24,3859.45-5713.48,3888.63-6113.51Z" transform="translate(-795.02 8035.49)"/><path class="cls-15" d="M2089.23-5103.19c229.54,6.89,460.07-22.51,688.66,18.83,49.33,10.47,80.94,81.65,78.32,76,6.16-29.23-12.47-72,30.09-98.44,31.12-43.57,84.59-51.8,125.81-79.42,47.77-32,96-63.22,144.12-94.78,1.22,29.88-5.44,60.33,6.46,89.43,5.14,109.08-64.76,208.37-174.64,259.55-151,70.31-305.55,69.25-462.87,31.91a1401,1401,0,0,1-407.35-167.67C2104.37-5076,2087-5081.91,2089.23-5103.19Z" transform="translate(-795.02 8035.49)"/><path class="cls-16" d="M3186.55-5151.85c-10,103.73-64.81,181.14-156.16,232.45-136.93,76.94-286,85.35-438.62,60.36-111-18.17-217.39-52.33-319.43-97.51-69.15-30.62-140.67-58.14-199.6-106.89l-17.52.28q-1.2,8.39-2.38,16.76c-1.39,20.52,10.63,31,27.69,41.74,67.15,42.27,140.78,71.31,213.78,102,154.29,64.84,313.44,105.53,483.62,94.26,9.11-.61,18.29-.77,22.59,7.79-70.39,108.54-146,213-206.57,326.28-11.74,22-92.56,149.25-101.61,207.59h0v.07c-1,6.6-1.13,12.34-.1,16.91-.28,61,1,124.59.41,185.11,3,308.62-3.45,644.26,8.94,952.68q24,1.65,48,3.26c-.19-300.61.9-628,.72-928.66,5.7-54,7-188.46,9.48-264.61,31.56-56.57,70.55-118.86,72.88-126.72l167.14-300c24.26-39.92,44.65-90.4,97.51-100.05,60.29-11,115.22-33.3,167.15-60.78,79.07-41.82,143.7-98.23,153.77-192.93Q3202.35-5117.16,3186.55-5151.85Z" transform="translate(-795.02 8035.49)"/><path class="cls-17" d="M3196.73-3762.69c21.45,1.43,36.62,11,36.24,35.93-.38,25.91-19.49,34.07-39.83,34.4-21.66.36-38.14-11.25-36.9-36.19C3157.44-3752.65,3172.21-3763,3196.73-3762.69Z" transform="translate(-795.02 8035.49)"/><path class="cls-18" d="M2802.37-3726.38c-2.84,19.54-14.93,30.54-36.18,31.81-23.28,1.4-40.81-8.28-39.77-32.24.78-18,10.69-34.61,34.58-35C2785.05-3762.14,2797.61-3750.48,2802.37-3726.38Z" transform="translate(-795.02 8035.49)"/><path class="cls-19" d="M3187.14-4098.81c-19.39-2.28-36.13-9.71-37.39-32.11-1.22-21.66,11.1-34.8,33.13-35.58,22.24-.79,40.39,6.9,40.32,32.78C3223.13-4111.71,3208.29-4101.75,3187.14-4098.81Z" transform="translate(-795.02 8035.49)"/><path class="cls-20" d="M2758.31-4167.06c26.33-.07,38.52,10.31,40.14,32.8,1.78,24.64-14.43,33.4-34,33.95-20.66.58-36.43-12.79-37.94-33.09C2724.82-4155.81,2743-4163.63,2758.31-4167.06Z" transform="translate(-795.02 8035.49)"/><path class="cls-3" d="M2297.82-4355.25c51.93,46,106.63,88.43,163.48,128.12,25.64,24.74,54.91,44.77,84.28,64.68,30.91,15.34,54.17,41.41,83.74,58.83,91.44,53.89,189.44,66.37,294.63,62.61,40.62-1.45,91.49-10.18,129.62,23.74,12,73.77,2.34,149.64,22.15,222.57.92,64.34-3.55,68.22-66.52,69.06-22.87,17.21-634.34-3.92-693-37.15-25.21-8.44-51.46-13.69-74.91-27-18.75-10.28-37.14-21.37-58.68-25.21-111.85-48.1-228.18-89.73-313-182.74" transform="translate(-795.02 8035.49)"/><path class="cls-4" d="M2297.82-4355.25c55,41.79,112.06,81.26,170.65,117.86A439,439,0,0,0,2511-4205c14.49,9.78,29.35,19,44.3,28.21l-2-1.18a214.91,214.91,0,0,1,32.17,18.59c18.43,12.6,35.46,27,54.26,37.2l14.34,7.35c3.86,2.08,10.53,4.89,14.6,6.82,74.12,33.49,156.88,41.6,237.55,38.17,16.51-.4,32.74-2.13,50.22-3.16,41.68-3,85.16,2.52,118.37,31.89l8.25,7.15,2,11.58c9.21,52.12,7.86,103.95,12.59,155.85,2,22.63,5.87,45.85,12,67,.17,19,1.21,38.81-3.18,57.78-4.47,19.22-16.62,34.73-34.8,42.34-15.52,6.37-31.19,7.13-46.35,7.75-5.41.19-10.54.27-15.67.36l20.17-6.89a43.77,43.77,0,0,1-4.9,3.13c-6.6,3.58-14.09,5.12-21.43,6.15-12.27,1.67-24.1,2.14-35.95,2.66-73.62,2.31-146.68-.2-220.09-3.17-87.55-3.86-174.71-9.63-262-18.52-44-4.73-88-9.7-131.75-18.29-11.52-2.39-23.31-4.92-34.88-8.83a81.52,81.52,0,0,1-14.69-6.44l4.29,1.91c-25.59-9.36-54.41-16.52-78.8-31.65-6.46-3.93-15.91-9.59-22.41-13.15-10.66-5.83-20.45-9.88-31.11-12.07-55.47-26.47-112.28-51.67-165.56-83.08-52.94-31.16-103.16-69.53-141-118.15,89.22,84.9,208.11,121.73,320.7,164.82l-4.28-1.28a127,127,0,0,1,20.78,4.94c16.87,5.47,32.13,13.92,47.7,21.63,21.7,10.37,45.39,14.25,69.45,21.62l4.29,1.91c.09,0,.89.31,1.85.63l1.68.52c3.45,1,6.94,1.8,10.82,2.62,48.46,8.8,98.2,11.27,147.6,14.6,157.77,8.28,316.71,14.43,474.66,10.93,10.74-.51,21.34-.88,31.5-2.52l.47-.09a.41.41,0,0,1,.12,0l-.23.06a25.1,25.1,0,0,0-4.37,1.87,26.19,26.19,0,0,0-3.74,2.41l20.17-6.89c12.29-.13,27.35-.38,35.71-2.31-1.31.45-4.37,3.71-4.64,5,0,0,0-.08,0-.11a36.21,36.21,0,0,0,1.19-6.84c.87-9.62.74-19.93.68-30l1.18,8.43c-8-29.78-11.27-59.52-13.13-89.66-2.64-45.47-1.21-92.24-7.73-136.68l10.3,18.73c-12.17-11.21-26.56-16-43.63-18.06-20.7-2.33-41.72-.29-63.92.09-17.15.29-35.64.08-52.65-.69-82.91-3.14-166.69-21.89-238.84-64.27-15.55-8.91-31.62-19.94-44.57-31.3-17.39-14.68-33.33-29.74-52.68-40.31-29.21-21.62-58.3-43.52-83.43-70.18l1.53,1.26c-55-42.64-107.85-88.46-156.32-138.39Z" transform="translate(-795.02 8035.49)"/><path class="cls-21" d="M3077.58-4018.1c1.9-7.12-5.29-12.66.29-17.26l151.84-.55c48.31,23.41,85.84,50.38,83.65,115.18-1.66,49-31.4,81-63.32,92.93-48.91,18.31-97.91,46.14-153.86,42.41C3074-3861.68,3081.7-3940.36,3077.58-4018.1Z" transform="translate(-795.02 8035.49)"/><path class="cls-22" d="M1924.47-7886.41c-54-14.86-99.45,8.82-146.48,21.1-36.82,9.61-69.59,35.62-103.2,55.91-6.54,3.94-.06,23.9-17.24,18.71-10.21-3.08-16.27-12.3-19.43-23-15.79-53.22-47.17-89.75-91.6-127.28-58.73-49.61-117.57-62.19-187.54-60s-119,41.45-151.9,96.09c-29.65,49.24-32.77,109-35.51,166.24-1.15,23.81-6.11,36.37-33.31,33.08-118.49-14.32-177.75,45.77-217.48,119.23-17.38,32.14-23.24,60.68-5.15,99.32,16.31,34.83,35.58,64,61.47,90.64,18.29,18.84,25.1,32.64-9.84,42.82-21.91,6.38-42.45,21.75-60.3,37-44.55,38-86.19,79.28-76.08,145.65,15,98.21,68.61,171.86,152.5,221.75,32.7,19.44,76,23.71,104.76-4.62,37.47-37,78.28-71.71,102.94-121.67,17-34.43,20.25-78.42,58.81-100.62,1.79-2.34,3.45-4.76,5.07-7.21,30.88,42.75,100.58,138.85,118.24,162.12,30.08,39.63,76.57,73.09,67.8,133.17-4.39,3.76,36.33-30.7,49.9-54.15,51.21-88.48,127.47-151.84,199.71-218.71,47.22-43.71,105.85-75,163.28-107.11,18.74-10.48,55.73-33.51,53.85-32.35-17.79-7.14-38.16,6.82-56-14.95-29.16-35.55-50.34-78.61-90.75-104.47-11.14-8.11-46.54-41.88-77.3-66.8a282.67,282.67,0,0,1,33.35-3.44c1.07-18.49,17.28-19,29.09-22.68,66.15-20.53,131.72-42.28,192.58-76.19,47.46-26.45,96.77-57.61,108.14-111.43C2065.58-7789,2013.79-7861.82,1924.47-7886.41Z" transform="translate(-795.02 8035.49)"/><path class="cls-23" d="M1856.23-7364.08c-101.91,11.06-180.61,62.06-259.4,111.24q-136,84.9-246.16,194.4c-5.26,5.24-21.14,22.34-28.39,26.16-25-24.53-43-63.61-68-88.14-7.29-13-7.74-23.05,5.78-35.7,131.89-123.5,284.07-222.22,469.17-281.66,25.72-8.25,51-10.6,75.27,3.46C1819.44-7409.7,1852.9-7394.89,1856.23-7364.08Z" transform="translate(-795.02 8035.49)"/><path class="cls-24" d="M4020.07-3910.86c-33.93,2.2-57.37-4.16-53.83-47.72,2.46-30.17-40.13-44.67-34.25-78.8l234.23.41c2.07,23.12-12.33,38.37-27.24,51.91C4103.94-3953.24,4069.09-3920.52,4020.07-3910.86Z" transform="translate(-795.02 8035.49)"/><path class="cls-25" d="M3007.06-4059.53c-64.35-2-90.06-42.7-65.76-103,9.71-24.1,8.41-10.38,29.44-11.88,19.74-1.4,652.66-1.88,940.37-1.87,140.1,0,280.21-1.2,420.32-1.85,19.33.59,38.66,1.24,58,1.78,66.36,1.83,53.54-9.34,58.57,56,3.47,45-13.72,53.4-55.19,52.9C4223-4069.44,3011.51-4059.39,3007.06-4059.53Z" transform="translate(-795.02 8035.49)"/><path class="cls-26" d="M3055.13-4404.63c-.11-42.78,0-85.57-.38-128.36-.56-65.38-.7-65.38,63.94-69.49L3351-4601.2c17.33-15.16,38.7-13.85,59.39-13.88q272.36-.49,544.71,0c20.79,0,42-.66,59.39,14.16,95.29-.11,190.59.6,285.86-.84,27.81-.42,36,6.93,39.34,36.63,14.15,125.1-4.78,249.59-2.13,374.32-15.44,18.95-37.49,16.3-57.85,16.32q-585.51.75-1171,.16c-16.38,0-32.84-.21-48.47-6.39-32-22-30.79-47.42-7.69-75.08,20.58-14.15,44.31-16,68.31-17.73,128.09-9.13,256.37-11.47,384.69-9,77.9,1.53,155-5.55,232.05-15.23,39.92-5,79.79-14.29,120.19-11.54,90,6.11,174.84-15.59,258.52-44.56,56.57-19.57,113.91-37.1,173.42-43.2,36.41-3.73,33.35-26.05,33-50.5-.47-29.79-18.47-34.44-42.33-29.88-137.73,26.33-277,15.33-415.49,14.63-159.18-.8-315.95,13.74-470,53.55-100,25.84-201.63,18.15-303,18.29C3078.24-4390.94,3065.28-4394.38,3055.13-4404.63Z" transform="translate(-795.02 8035.49)"/><path class="cls-27" d="M3037.32-4230.52c.12,6.47-1-56-1.64-90,.74-23.39,2.13-67.33,2-63.64-2.86,0,306.63-4.49,459.68-42.69,112.56-28.43,229.14-29.74,345.13-28,156.18,2.33,312.66,10.43,467.07-22.89,2.93-.63,7.09-3.08,8.56-1.95,29.52,22.64,8.38,53.89,12.36,80.89,1.63,11.08,14.47,36.9-15.09,35.92-89.55-3-169.53,33.37-252.14,58.52-59.08,18-118,33.06-180.73,28.8-69.53-4.71-137.52,10.8-206,18.57-130.52,14.81-261.53,1.49-392.1,8.67C3199.22-4243.39,3032.14-4230.12,3037.32-4230.52Z" transform="translate(-795.02 8035.49)"/></g></g></svg>