<svg xmlns="http://www.w3.org/2000/svg" viewBox="0 0 5731.66 4962.06"><defs><style>.cls-1{fill:#f5fafd;stroke:#dcedf6;}.cls-1,.cls-2,.cls-4,.cls-7{stroke-miterlimit:10;}.cls-1,.cls-2,.cls-7{stroke-width:277.64px;}.cls-2{fill:#9acfed;stroke:#67b9e0;}.cls-3{fill:#f1f0f0;}.cls-4,.cls-6{fill:#9bd0ed;}.cls-4{stroke:#67bae1;stroke-width:210.53px;}.cls-5{fill:#fff;}.cls-7{fill:#fdfcf5;stroke:#f1f0f0;}</style></defs><g id="Livello_2" data-name="Livello 2"><g id="Livello_7" data-name="Livello 7"><path class="cls-1" d="M3487.86-1327.64,3703,705.48c469.77,158.07,1191.42,339.94,2083.82,332A6358.6,6358.6,0,0,0,7733.27,713.62l213.26-2023.4Z" transform="translate(-2842.28 3088.66)"/><path class="cls-2" d="M4489.5-1154.08c-130.47-11.31-260.65-25.13-390.19-44.53-172.38-19.62-262.58-34.84-275.4-35.77-82.76-3.38-270.13-43.75-285.43-41.33-36.05,1.26-47.88-13.6-50.62-51.93-15.94-223.5-36.08-446.7-54.2-670-2.91-35.91-2.77-72.06-4-108.1,4.92-.11,10.09-1.25,14.74-.17,181.37,42.16,366.62,61.1,550.1,90.34,99.89,15.92,202,17,302.67,29,273.6,32.52,548.94,47.28,823.52,52.66,472.44,9.25,945.2,15.78,1417.88-11.35,247-14.17,493.86-28.71,740-53.43,161.15-16.19,321.73-36.45,481.55-64.34,82-14.32,163.3-34.18,246.39-42.68l1.32,19.05q-.15,5-.28,10.07-30.51,383.43-61,766.85c-.91,11.44-.54,23.1-9.31,32.2-124,4.91-244.41,36.75-367.64,48.9-118,11.63-235.13,32.47-352.64,49.27l-49.46,2.14-20,.19c-81,9.17-162.31,15.87-242.76,28.38-52.49,8.17-104.8,3.17-157.05,7.4a12778.29,12778.29,0,0,1-1372.38,37.08q-412.74-11-824.78-44.87C4544.74-1149.57,4502.19-1153,4489.5-1154.08Z" transform="translate(-2842.28 3088.66)"/><path class="cls-2" d="M4326.46,790C4525,824.87,4725,849.74,4926,862c176.51,10.75,352.21,33.88,529.54,33.09,94.49-.43,189,7.69,283.5,6.51,163.76-2,328.22-.28,490.93-15.57,109.16-10.26,219.4-6,327.59-25.86,9.52-1.75,106-9.92,145.27-15.87,117.81-17.83,236.14-32.49,354.19-48.39,97.22-13.1,193.19-32.45,289.83-47.85,114-18.18,226.25-47.39,339.15-72.31,32.45-7.16,51.14.77,47.32,37.88-29.84,192.55-55.23,385.87-119.18,571.51-22.82,66.22-72.67,105-128.91,134.9-169,89.76-351.69,140.82-537.5,181.68-124.75,27.44-250.37,50-376.69,69.2-137.83,21-276.42,36-415.16,46.42-220.89,16.6-442.5,22.71-663.92,11.68-217.64-10.84-434.48-29.38-650.3-63.07-196.15-30.63-390.59-66.78-580.84-123.47-111.15-33.12-218.68-74.45-321.64-129.77-94.54-50.79-128-135.78-149.68-229.73-36.34-157.73-67.52-316.44-86.47-477.49C3699,672,3707.09,669,3735.4,675.27c92.09,20.32,184.5,39.21,276.77,58.64C4106.85,752.92,4288.35,785.47,4326.46,790Z" transform="translate(-2842.28 3088.66)"/><path class="cls-3" d="M3438.89-589.47c-14.51,3.38-30.07,4.88-41.28-7.81" transform="translate(-2842.28 3088.66)"/><path class="cls-4" d="M6964.38-303c-28.1-63.16-85.13-99.25-143.17-130.69a798.16,798.16,0,0,0-200.67-76c-11-2.55-100.64-25.12-135.29-32.54-93.13-19.94-186.45-36.64-281.54-43-5.57-.37-37.07-8.85-47.45-9.83-2.69-.91-151.63-15-223.59-16.17q-164.22-2.62-328.52-1.22c-55.86.41-111.73-1.26-167.66,4.46-93.8,9.6-385.7,43.16-438.71,50.44C4907.32-545.16,4634-460.42,4594-434h0c-40.78,13.59-70.07,44.8-98.8,73-80.1,78.57-75.61,172.34-34.89,267.94,33.26,78.07,93.53,135,155.72,189.89,87.91,70.73,188,119.26,293,158,213.32,78.75,436.38,106.31,661.47,116.56,140.34,6.38,281,3.51,421.51-10.52,120.29-12,239.38-28.2,356.48-57.74,61.14-15.42,261.08-87.49,299.68-107.81,118-62.13,224.06-138,291.55-256.26C6983.06-136.91,7001.81-218.89,6964.38-303Z" transform="translate(-2842.28 3088.66)"/><path class="cls-5" d="M5338.05-124.63c1.09,54.36-4.69,101.63-27.42,147.08-34.43,68.86-91.81,85.06-161.76,79-59.24-5.15-98.12-38.64-118.26-91.28C4994.21-85,4994-180.3,5041-273.19c27.35-54.05,76-69,131-70.07,58.69-1.18,104.77,23.14,134.64,74.63C5333.39-222.53,5341.36-172.14,5338.05-124.63Zm-108.78,10.82c-4.86-36.19,5.42-74.31-17.14-107.68-22.81-33.73-64.5-36.7-78.92-1.91-27.54,66.44-29.32,136.33-2.55,203.32,15.25,38.17,60.51,36.69,84.14,2C5235.39-48.26,5222.35-82.22,5229.27-113.81Z" transform="translate(-2842.28 3088.66)"/><path class="cls-5" d="M6099.85-147.93c-5.54,53.44,11.33,118.91-14.59,181.61-16,38.81-43.3,61.81-84.83,66.84-22.2,2.69-44.88,6.43-66.93,4.64-100.74-8.22-121.76-46.4-131.4-140.57-9-87.68-1.68-177-2.94-265.53-.34-23.93,10.38-28.91,31.14-28.6,94.64,1.41,76.33-9.58,77.61,73q1.67,109-.18,218.14c-.52,30.05,9.54,50,40.61,51.73,34,1.9,47.15-21.3,47.56-50.77,1.16-83.27,1.93-166.61-.13-249.85-.8-32.45,8.07-47.18,41.73-42.31a101.24,101.24,0,0,0,27.71,0c28.72-3.87,36.21,9.46,35.13,36.28C6098.54-248.4,6099.85-203.4,6099.85-147.93Z" transform="translate(-2842.28 3088.66)"/><path class="cls-5" d="M5399.51-120.54c-2.47-53.71,2.68-105.57,33-152.22,59.93-92.33,203.66-95.29,261.5-6,16,24.7,11.48,36.5-15.6,47-31.39,12.15-57.62,23.92-89.18-5.43-27.1-25.22-66.5-6.87-75.24,31.43-12.78,56-14.08,112.83.22,168.65,6.42,25.06,21,44.77,52.74,44,28.58-.71,43.31-15,51-40.62,4.63-15.38,4.18-25.51-15.9-26.11-48.49-1.45-21.78-38.57-26.25-59.58-5.6-26.38,15.61-24.91,33.18-24.78,11.89.09,23.8-.19,35.69,0,91.58,1.55,83.6-16,81.7,85.8-1.57,84.22-49.9,148.29-115.09,158.76-104,16.71-161.86-17.13-199.18-111.67C5397.79-47.59,5402.42-84.11,5399.51-120.54Z" transform="translate(-2842.28 3088.66)"/><path class="cls-5" d="M6292.55-83c0,47-1.43,94.12.53,141.08,1.18,28.34-9.21,36.45-36.59,35.61-71.17-2.18-61.25,5.88-61.52-61.64-.44-108.55.67-217.11-.79-325.64-.37-27.62,7.62-38.58,35.71-36.06,54.75,4.91,110.57-8.86,164.39,14.87,80,35.3,102.22,134.62,39.08,195.75-22,21.33-20.36,39.33-10.33,62.4,17.85,41.05,35.25,82.29,53.47,123.16,8.46,19,3.44,27.62-17.42,26.72-1.32,0-2.65-.06-4,0-73.43,4-73.09,3.85-102.08-65.85-15.58-37.47-32.56-74.36-48.91-111.52Zm-1.35-118.27c8.65,18.14-15.23,53.89,26.57,52.31,27.07-1,51-13.81,50-48.34-.91-30-23.23-52-52.92-51.27C6276.55-247.58,6299.67-217.33,6291.2-201.25Z" transform="translate(-2842.28 3088.66)"/><path class="cls-5" d="M4823.7-182.81c13.93-42.45,27.3-79.11,37.79-116.78,5.74-20.6,16.41-29,34.12-29.48,11.89-.3,23.8-.15,35.69-.15,64,0,64.12.1,33.45,64.09-26.12,54.48-51.86,109.2-79.15,162.92-9.08,17.87-11.3,35.94-11.29,55.37,0,53.45-.62,106.93.4,160.36.43,22.8-7.05,30.74-27.32,32.37-80.87,6.51-87.87,6.34-79.15-83.09,12.83-131.63-42.59-233.31-98.17-337-7.67-14.32-15.76-30.37-12.3-44.71,4.45-18.42,22.69-10,34.59-9.76,83.55,1.54,62.7-16.42,96.46,69.55C4798.21-235.21,4801-207.44,4823.7-182.81Z" transform="translate(-2842.28 3088.66)"/><path class="cls-5" d="M6584.57-44c0-49-.9-98,.38-146.93.73-27.74-4.39-45.08-32.34-40.8-58.84,9-34.22-43-38.95-72.79-6.61-41.61,18.5-38.23,41.51-38.09,55.46.33,111,2.18,166.36-.61,30.87-1.55,40.63,11.92,37,44.91a137.45,137.45,0,0,0-.19,27.51c2.73,29-6.27,44.42-33.09,39-34.22-6.94-38.37,14.45-38,47.41,1.09,94.87-2.45,189.87.18,284.66,1.71,61.53-34.75,42.91-61.74,47.05-29.29,4.49-44.05-5.39-41.83-44.4C6586.66,54.17,6584.55,5,6584.57-44Z" transform="translate(-2842.28 3088.66)"/><path class="cls-6" d="M5229.27-113.81c-6.92,31.59,6.12,65.55-14.47,95.76-23.63,34.66-68.89,36.14-84.14-2-26.77-67-25-136.88,2.55-203.32,14.42-34.79,56.11-31.82,78.92,1.91C5234.69-188.12,5224.41-150,5229.27-113.81Z" transform="translate(-2842.28 3088.66)"/><path class="cls-6" d="M6291.2-201.25c8.47-16.08-14.65-46.33,23.62-47.3,29.69-.75,52,21.25,52.92,51.27,1.05,34.53-22.9,47.32-50,48.34C6276-147.36,6299.85-183.11,6291.2-201.25Z" transform="translate(-2842.28 3088.66)"/><ellipse class="cls-7" cx="2865.83" cy="538.58" rx="2727.01" ry="399.76"/></g></g></svg>