<svg xmlns="http://www.w3.org/2000/svg" viewBox="0 0 3857.45 4448.11"><defs><style>.cls-1{fill:#e3f1fa;stroke:#c5e2f2;stroke-width:218.21px;}.cls-1,.cls-10,.cls-3,.cls-4,.cls-5,.cls-6,.cls-8,.cls-9{stroke-miterlimit:10;}.cls-2{fill:#efb64f;}.cls-3{fill:#f9e26e;stroke:#e5ca59;stroke-width:250.91px;}.cls-4,.cls-6{fill:#3a3a38;}.cls-4,.cls-8,.cls-9{stroke:#000;}.cls-4{stroke-width:77.13px;}.cls-5{fill:#ebe672;stroke:#efe53d;stroke-width:51.52px;}.cls-6{stroke:#1a150e;stroke-width:29.32px;}.cls-7{fill:#1a150e;}.cls-8{fill:#3f3f3f;}.cls-8,.cls-9{stroke-width:14.66px;}.cls-10,.cls-9{fill:none;}.cls-10{stroke:#f2f2f2;stroke-width:74.16px;}</style></defs><g id="Livello_2" data-name="Livello 2"><g id="Livello_7" data-name="Livello 7"><g id="latte"><path class="cls-1" d="M1527.62,4334.18l156.48-.06,17.82.6c40.38,6.42,81.23,4.53,122.16,1.42l34.87-2,208.83.08,34.93,1.59c40.85,3.51,81.62,5.21,122.11-.93,197.69,6.75,395.4-.09,593.09,0,92.94,5.88,186.05,3.7,279.17,1.25,12.18,3,23.88,3.25,34.75-1.23l52.41-2.33c15,1.65,28.87,1.14,39.87-4.48,22.68-1.78,46.13-2.45,67.92-5.52,277-39,455.15-150.92,455.41-288.69q1.42-758.26.71-1516.52.1-476.7-.09-953.41c-.36-206.35-146.6-389.73-436.57-549.31-16.33-232.8-44.6-374.32-24.9-565.3,14.61-30.05-3.05-33.72-63.81-33.64-677.15.88-1908.27,1.41-2585.42,0-76.26-.16-75.94,10.72-62,38.1,40.85,48.44,24.3,228.2,7.83,543.76-22,6.51-39.58,14.68-48.84,26-13.31,6.8-27.77,13.22-39.77,20.47-254.69,153.71-384.51,326.34-384.66,518.23q-.52,636.78.07,1273.56,0,332.85-.24,665.71c0,180.46-2,360.92,1.19,541.37,1.88,105.21,99.47,188.57,301.81,244.74l15.89,5.67,48.37,11c25.42,10.63,55.9,15.51,90.19,16.07,25.31,12.7,62.34,14.27,94.21,14.49,143.08,1,286.25-.34,429.38-.83l18.22.67c81.38,8.85,162.53.17,243.78-.65l35,1.75a472.86,472.86,0,0,0,105,.06Z"/><path class="cls-2" d="M1809,4013.1l-136.62-.78c-192.09-8-384.12-2.58-576.15.67l-85.21.17-157.57-16.27c-18-8.9-40.68-10.12-64-10.28l-50-12.21c-59.51-19.29-115.24-41.12-165.68-66.49C447,3830.2,403.53,3740.16,404,3639.1c2.93-704.17,1.32-1408.34,1.37-2112.5C526.24,1070,3010.94,1174.35,3441.09,1426.27c22.09,242,7.66,484,9.22,726,3.22,495.85-1.22,991.71,2,1487.56.69,104.39-47.67,196.58-183.12,274.9l-15.1,7.66c-18.49,5.66-38.59,10.65-38,24.33-98.18,25-190.7,57.45-304.09,62.62-39.86-2.66-79.46-2.86-118.46,3.13-226.63-7.45-453.24-2.8-679.84.39C2012.11,4006.48,1910.53,4006.15,1809,4013.1Z"/><rect class="cls-3" x="318.84" y="125.45" width="3219.78" height="414" rx="1.36"/></g><ellipse class="cls-4" cx="1917.93" cy="2383.75" rx="132.09" ry="115.4"/><path class="cls-5" d="M2173.6,2693.89c.8,202.06-109.3,365.87-244.12,365.87s-240.55-163.84-244.13-365.87c-3.86-217.65,104.84-304.61,244.08-292.94C2055.9,2411.56,2172.8,2491.31,2173.6,2693.89Z"/><path class="cls-6" d="M1929,2691.4c-73.13,15.46-141.86-14.65-212.61-27.92-29.48-5.53-34.62-33.85-29.18-59.55,8.33-39.41,12.73-65.11,35.35-110.45,8-18.69,12.72-25.63,33.56-16.33,100.39,44.17,179.9,36.45,285.4,17.46-7,1.86,35.12-9,47.19-16.86,11.58-9.61,16.73-3.54,29.32,13.8,33.87,46.7,57.6,88.29,58.81,139.81.38,16.36-10.2,19-20.86,23.16C2083.43,2683,2009.31,2702.43,1929,2691.4Z"/><path class="cls-6" d="M2174.87,2768.18c-4.9,61.32-30.82,127.78-60.9,176.16-18.55,31.22-38.61,26.45-71.85,29.17-57,4.66-109.93,17.29-164.37,13.1-49.75-3.84-80.83-24.36-128.33-41.5-4.89-1.77-6.79-4.89-8.92-9.46-24.65-52.92-42.29-103.86-51.81-164.62C1852,2839,2009.2,2837.93,2174.87,2768.18Z"/><path class="cls-7" d="M2058,3045.21c-28.18,47.19-76.33,66.32-119.23,92.11-8.54,5.13-15,2.78-24.62-2.55-39.46-21.8-72.79-51.3-107.68-79-5.48-4.34-8.46-8.61-6.27-14.2,1.72-4.42,6.31-4.48,11.55-2.15,77.39,34.42,155.85,25.11,234.56,5.36C2049.44,3044,2053,3045,2058,3045.21Z"/><ellipse class="cls-8" cx="1774.18" cy="2110.61" rx="56.61" ry="26.89"/><ellipse class="cls-8" cx="2063" cy="2110.61" rx="56.61" ry="26.89"/><path class="cls-9" d="M1830.78,2110.61s58.34,5.41,41.83,146.48"/><path class="cls-9" d="M2011.39,2110.61s-58.34,5.41-41.83,146.48"/><path class="cls-10" d="M1772,2666.72c-175.35,27.11-350.45,48.1-527.47,20.83-27.26-4.2-54-11.93-80.8-19-123.76-32.5-180.85-154-184-243.47-3.31-93,41.15-158.62,122.85-199.48,135.44-67.72,293.51-47.26,408.14,53.56,117.89,103.7,196.79,234.78,259.42,376.79C1771.32,2658.64,1771.22,2661.83,1772,2666.72Z"/><path class="cls-10" d="M2081.33,2666.76c41.1-98.86,92.23-188.34,155.19-270.94,52-68.27,111.59-128.72,188-170.21,115.85-62.9,286.4-48.22,385.48,37.36,54.86,47.38,76.76,111.84,64.64,183.58-19.14,113.29-77.45,198.15-194.4,224.65-71.55,16.22-145.84,24.64-219.22,27.16-74.63,2.56-149.77-4.87-224.44-10.9C2185.55,2683.33,2134.93,2674.1,2081.33,2666.76Z"/><path class="cls-10" d="M2091.49,2688.86c91.85,8.07,183.63,21.57,275.57,22.68,90.8,1.08,181.74-10.81,272.69-15.61,9.08-.48,23.15,6.33,27.33,13.93,35.25,64,37.24,129.26-11,186.58-46,54.74-107.92,88.56-179.83,65.15-58.42-19-116.29-47.29-166.29-82.86-78.71-56-150.61-121.57-225.4-183.09Z"/><path class="cls-10" d="M1737.69,2719.9c-105.55,101.87-208.15,199.22-339.56,258.14-96.62,43.33-190.72,17-243.44-64.84-33-51.32-32.18-129.65,3-177.77,3.77-5.16,13.83-9.86,19.76-8.68,183.37,36.59,365.72,17.39,548-9C1727.29,2717.45,1729.3,2718.35,1737.69,2719.9Z"/></g></g></svg>