<svg xmlns="http://www.w3.org/2000/svg" viewBox="0 0 2424.64 2133.17"><defs><style>.cls-1{fill:#96cef1;stroke:#76bce9;}.cls-1,.cls-10,.cls-11,.cls-12,.cls-13,.cls-14,.cls-2,.cls-8,.cls-9{stroke-miterlimit:10;}.cls-1,.cls-14,.cls-2,.cls-8,.cls-9{stroke-width:90.96px;}.cls-10,.cls-2{fill:#efefef;stroke:#b7b7b7;}.cls-3{fill:#7eb345;}.cls-12,.cls-14,.cls-4,.cls-5,.cls-6{fill:none;}.cls-4,.cls-5,.cls-6,.cls-9{stroke:#943530;}.cls-4,.cls-5,.cls-6{stroke-linejoin:bevel;stroke-width:85.28px;}.cls-5{stroke-dasharray:0.01 0 0 0;}.cls-6{stroke-dasharray:5.62 5.61 0.01 0 0 0;}.cls-7{opacity:0.8;}.cls-8{fill:#fff;}.cls-14,.cls-8{stroke:#ccc;}.cls-9{fill:#aa464b;}.cls-10{stroke-width:68.02px;}.cls-11{fill:#999;stroke:#7a7a7a;stroke-width:28.43px;}.cls-12{stroke:#706f6f;stroke-width:22.74px;}.cls-13{fill:#ab9897;stroke:#7d7576;stroke-width:72.96px;}</style></defs><g id="Livello_2" data-name="Livello 2"><g id="Livello_7" data-name="Livello 7"><rect class="cls-1" x="116.14" y="134.94" width="1818.1" height="1818.1" rx="12"/><rect class="cls-2" x="842.9" y="2040.51" width="364.57" height="47.18" rx="0.11"/><circle class="cls-3" cx="1740.52" cy="1779.17" r="53.92"/><line class="cls-4" x1="795.22" y1="2064.1" x2="798.06" y2="2064.1"/><line class="cls-5" x1="803.66" y1="2064.1" x2="803.67" y2="2064.1"/><line class="cls-6" x1="803.67" y1="2064.1" x2="1252.95" y2="2064.1"/><line class="cls-4" x1="1252.95" y1="2064.1" x2="1255.79" y2="2064.1"/><g class="cls-7"><path class="cls-8" d="M1874.19,730.47c-1-3.54-2-7.09-2.74-10.67C1859,663.5,1842,608.69,1819.39,555.6c-16.2-38-36.45-73.86-57.4-109.37-34.62-58.64-77.17-111-125.7-158.57-24.52-24-51-45.77-78.31-66.71-34.22-26.2-69.84-49.87-107.62-70.34a862.72,862.72,0,0,0-290-96c-146.64-21.13-289.39-5.47-428.06,45.78C605.28,147.32,495,220,403.34,320Q291.7,441.84,232.75,596.3c-5.73,15-10.81,30.28-20.92,43.08C193.33,662.79,171.44,683,149.51,703c-39.3,35.91-70.18,77.82-88.84,127.65-23.87,63.71-19.1,126.41,10.74,187.52,23.88,48.92,60.5,87,101.07,122.08,26,22.47,51.34,45.32,64.16,79,18.31,48.14,42.09,93.71,69.68,137.18,77.78,122.56,179.58,219.69,307,289.82,132,72.65,273.5,108.34,423.82,110,80.9.89,159.6-13.34,237-35.76a848.07,848.07,0,0,0,280.38-141.29q109.52-83.49,185.77-198.83a884.65,884.65,0,0,0,120.88-271.56q3.18-12.42,6.19-24.9C1892.39,1095.71,1897.4,720.57,1874.19,730.47Z"/><line class="cls-8" x1="1874.19" y1="730.47" x2="1867.39" y2="1083.89"/></g><circle class="cls-9" cx="1039.43" cy="900.88" r="280.38"/><path class="cls-10" d="M1393.65,974.43c-23-14-131.67-74.51-163.54-89.53-23.37-11-95.82-39.14-95.38-39,0,.39,6.16-83.87,6.32-86.47,2.78-44.41,5.32-88.83,8.13-133.24,1.26-20,3.56-40,4.24-60,.52-15.5-36.22-22.72-42.84-11.81-14,23-74.56,131.64-89.53,163.54-9.67,20.63-37.38,90.23-34.58,83.22l-.27.16-.4.23h0c1.35.1-92.44-4.53-95.56-4.73C845.83,794,801.4,791.53,757,788.73c-20-1.26-40-3.56-60-4.24-15.51-.53-22.73,36.22-11.82,42.84,23,13.95,131.66,74.53,163.55,89.52,23.58,11.09,96.37,39.38,95.37,39,2,.4-5.91,83.84-6.32,86.47-6.83,44-5.32,88.84-8.12,133.25-1.26,20-3.56,40-4.24,60-.53,15.51,36.22,22.73,42.84,11.82,14-23,74.48-131.68,89.52-163.55,9.36-19.83,34.32-83.35,34.59-83.22l.67-.39c33.45,2.51,93,4.57,95.56,4.73,44.41,2.77,88.83,5.32,133.24,8.12,20,1.27,40,3.57,60,4.24C1397.34,1017.79,1404.56,981,1393.65,974.43Z"/><circle class="cls-11" cx="1039.43" cy="900.88" r="47.3"/><path class="cls-12" d="M931.17,138.4c16.54-5.85,51.51-16.35,98.4-16.35s81.78,10.5,98.31,16.35"/><path class="cls-12" d="M972.4,331.9a174.37,174.37,0,0,1,112.84,0"/><path class="cls-12" d="M951.73,235.75a238.22,238.22,0,0,1,154.19,0"/><path class="cls-13" d="M2232.85,752H1988.77a153.31,153.31,0,0,0-60.49,12.39c-.79-2.85-7.08,291.29-5.45,284.59a153.28,153.28,0,0,0,65.94,14.88h244.08c85.42,0,155.31-70.17,155.31-155.93h0C2388.16,822.19,2318.27,752,2232.85,752Z"/><path class="cls-14" d="M1879.29,730.47c-1-3.54-2-7.09-2.75-10.67-12.44-56.3-29.45-111.11-52.06-164.2-16.2-38-36.45-73.86-57.4-109.37-34.61-58.64-77.17-111-125.7-158.57-24.52-24-51-45.77-78.31-66.71-34.22-26.2-69.84-49.87-107.62-70.34a862.74,862.74,0,0,0-290-96C1018.76,33.48,876,49.14,737.34,100.39,610.37,147.32,500.11,220,408.43,320Q296.78,441.84,237.84,596.3c-5.73,15-10.81,30.28-20.91,43.08C198.43,662.79,176.53,683,154.6,703c-39.3,35.91-70.18,77.82-88.84,127.65C41.89,894.35,46.67,957.05,76.5,1018.16c23.88,48.92,60.5,87,101.07,122.08,26,22.47,51.34,45.32,64.16,79,18.31,48.14,42.09,93.71,69.68,137.18,77.78,122.56,179.58,219.69,307,289.82,132,72.65,273.5,108.34,423.82,110,80.9.89,159.61-13.34,237-35.76a848.12,848.12,0,0,0,280.37-141.29q109.53-83.49,185.77-198.83a884.65,884.65,0,0,0,120.88-271.56c2.13-8.28,4.17-16.59,6.19-24.9C1897.48,1095.71,1902.49,720.57,1879.29,730.47Z"/><line class="cls-14" x1="1879.29" y1="730.47" x2="1872.48" y2="1083.89"/></g></g></svg>