<svg xmlns="http://www.w3.org/2000/svg" viewBox="0 0 4519.53 4545.91"><defs><style>.cls-1{fill:#805232;stroke:#7f431f;}.cls-1,.cls-2{stroke-miterlimit:10;stroke-width:254.06px;}.cls-2{fill:#d4472c;stroke:#d02e26;}</style></defs><g id="Livello_2" data-name="Livello 2"><g id="Livello_7" data-name="Livello 7"><path class="cls-1" d="M6362.21-2289.4c-6-59.23-96.3-287.31-380.24-524.83-86.86-63.25-172-129.15-267.19-180.79-57.33-31.1-96.44-80.8-91.44-149.73,5-68.61,50.79-108.94,111-136.26,118.84-53.94,295-7.28,365,104.57,112.61,179.82,163,387.61,247.57,581.16,5.74,21.74,125.79,291.2,130,321.17" transform="translate(-4051.14 3430.46)"/><path class="cls-2" d="M6476.15-2238.93c164.07-68.87,335.71-114.62,509.45-145.49,164.94-29.31,330.46-30.53,500.88-1.93,450.18,75.56,708.6,357.59,851.48,762.05C8494.6-1180.9,8466.3-732,8324-290.58,8185.59,138.67,7948.2,500.3,7559.11,747c-233.3,147.92-490.48,221.72-765.82,222.91-109.4.48-218-16.39-329-24.06-30-2.07-49.23-65.89-78.23-91.42-18.17-11.58-69.39-13.7-75.2-1.92-18.73,14.37-26.38,85.94-54.3,95.46-74.19,30.14-155.34,46.66-241.44,38-84.83,5.82-169.19-.68-253,.07-99,.9-191.69-15.58-285.44-37.35-315.45-73.24-564.59-251.46-774.18-491.19-173.06-197.93-296-424.63-382.58-671.75-163.8-467.75-195.07-940.49-44.3-1417.36,47.64-150.69,120-289.05,225.31-411.48,43.71-50.81,85.11-102.94,136-146.63,142.38-122.35,305.63-200.1,489.48-242,100.55-22.93,203-30,302.33-29.61,175.89.77,351.07,26.13,523.46,70.44,107.47,27.62,212.14,62.95,322.68,97.86C6308.16-2295.12,6453-2214.87,6476.15-2238.93Z" transform="translate(-4051.14 3430.46)"/></g></g></svg>