<svg xmlns="http://www.w3.org/2000/svg" viewBox="0 0 3794.49 8990.86"><defs><style>.cls-1{fill:#e3f1fa;stroke:#c5e2f2;}.cls-1,.cls-3{stroke-miterlimit:10;stroke-width:311.34px;}.cls-2{fill:#fff;}.cls-3{fill:#757575;stroke:#757575;}.cls-4{fill:#504f4f;}</style></defs><g id="Livello_2" data-name="Livello 2"><g id="Livello_7" data-name="Livello 7"><g id="latte"><path class="cls-1" d="M1513.35,8824.92l149.76-.12,17.05,1.28c38.65,13.64,77.76,9.63,116.93,3l33.37-4.18,199.87.16,33.44,3.38c39.09,7.48,78.12,11.09,116.87-2,189.21,14.35,378.43-.21,567.65,0,88.95,12.52,178.07,7.88,267.19,2.66,11.66,6.41,22.86,6.92,33.27-2.61l50.15-4.95c14.4,3.52,27.64,2.42,38.17-9.53,21.71-3.8,44.15-5.22,65-11.75,265.14-83,435.63-321,435.88-614q1.37-1612.81.68-3225.62.09-1013.94-.09-2027.88-.52-658.37-417.83-1168.38-435-532-289.85-1201.75c14-63.91-2.92-71.72-61.08-71.56q-972.17,2.81-1944.33-.63c-73-.34-72.68,22.8-59.35,81,55.08,240.61,42.74,478.6-26.84,716.27-47.8,163.3-147.14,296.8-229.85,440.31-21,13.85-37.88,31.22-46.74,55.34-12.74,14.47-26.58,28.13-38.07,43.53-243.76,327-368,694.14-368.16,1102.29q-.49,1354.41.07,2708.83,0,708-.23,1415.95c0,383.84-2,767.69,1.14,1151.5,1.8,223.77,95.2,401.07,288.86,520.55l15.21,12.06,46.29,23.46c24.34,22.61,53.51,33,86.32,34.18,24.24,27,59.67,30.36,90.17,30.83,137,2.12,274-.72,411-1.78l17.44,1.43c77.89,18.82,155.56.37,233.33-1.37l33.44,3.72c33.48,8.52,67,8.17,100.46.12Z"/><path class="cls-2" d="M1782.64,8557.54l-130.77-1.44c-183.84-14.8-367.64-4.76-551.44,1.23l-81.54.32-150.82-30c-17.27-16.43-38.93-18.69-61.21-19L759,8486.1c-57-35.6-110.29-75.89-158.57-122.72-121.29-143.46-162.93-309.64-162.52-496.2q4.2-1949.66,1.31-3899.33c0-183.15,1.12-180.78,173.69-226.2,427.87-112.61,855.22-115.91,1282.87-.47,456,123.09,910.24,109.6,1361.68-21.8,67.49-19.64,84.2-2.62,87.32,63.28,21.14,446.61,7.33,893.4,8.83,1340.07,3.08,915.25-1.17,1830.53,1.94,2745.79.66,192.69-45.63,362.85-175.27,507.43l-14.45,14.13c-17.7,10.45-36.93,19.67-36.4,44.9-94,46.23-182.52,106.05-291,115.59-38.14-4.91-76.05-5.27-113.38,5.78-216.91-13.74-433.79-5.15-650.68.73C1977.05,8545.31,1879.83,8544.71,1782.64,8557.54Z"/><rect class="cls-3" x="557.14" y="155.67" width="2680.21" height="169.44" rx="2.47"/><path class="cls-4" d="M1293.27,5032.46c0-77-1.72-147.43.72-217.7,1.25-35.86,11.7-72.06,50-86.64s68,6.79,94.79,31.56c44.75,41.3,76,91.62,98.81,147.71,12,29.45,24.14,49.59,65.87,37.36,152.76-44.76,306.48-31.05,459.33,3.12,48.75,10.9,95.73,20.06,126-35.31,4.95-9.05,14.82-15.93,23.49-22.34,53.44-39.52,101.68-108,175.86-81.18,75.49,27.33,57.62,108.92,62.37,171.35,3.81,50.12,18.24,60.16,65.19,40.26,52.13-22.09,106.75-41.75,162.22-51.82,123.5-22.42,201.46,50.2,188.41,174.08C2846,5336.23,2777.65,5502,2587.2,5588.84c-38.59,17.6-29.64,43.22-26.55,73.51,26.16,256.65,65.24,512.87,54.83,771.57-8.41,208.83-122.71,333.72-328.21,360.62-255.24,33.42-511,17.67-760.29-41.21-282.87-66.81-426.19-262.09-429.76-555.77-2.75-225.65,15.18-450.57,28.55-675.54,2.57-43.25-8-59.8-47.22-75.8-176.38-71.94-274-302.73-206.62-480.1,31.06-81.78,74-99.24,150.86-58.91C1108.34,4952.11,1193.83,4996.87,1293.27,5032.46Zm1215,1508.32c33.64-36,27.12-81.43,29.14-124,12.59-264.44-21.27-525.79-59-786.3-8.67-59.81,11.16-84.68,59.78-104.49,161-65.64,233.07-195.73,252.75-360,11.2-93.4-33.54-132.15-124.93-117.63-127.52,20.26-218.92,88.6-275.68,203.72-80.62,163.53-212,186.16-343,57.48-29.82-29.29-61-59.45-103-60.74-131.94-4.05-186.7-89.08-208.61-200.84-10.44-53.24-33-55.33-71.36-39.78-90.32,36.65-190.14,53-259.9,133.31-18.67,21.49-64.82,69.24-85.56,24.83-42.66-91.35-138.54-69.44-197.15-128-19.3,59.13,11,87.93,39.5,116.63,36.34,36.56,78.14,68.57,109.86,108.65,74,93.55,60.71,165.68-38.89,229.29-22.43,14.33-34.68,27.34-35.11,56.4-3.35,230.92-33.78,461.12-20.17,692.46,4.76,80.85,23.8,158.31,76,231.79,23.46-180.6,66.31-260.16,168.06-345.51C1742.34,5858.48,2398.9,5972.43,2508.3,6540.78Zm-459.47,189.1c54.31,0,108.7,1.64,162.92-.65,29.57-1.25,59-8.28,88.23-14.21,126.87-25.76,156.64-74.24,124.93-202.11-71.81-289.63-362.51-483.13-661.09-442.59-189.68,25.76-350.54,96.77-409,294.46-47.61,161.14-12.16,254.77,146.27,303.18C1680.64,6722.8,1865.41,6718.18,2048.83,6729.88ZM1886.1,4997c-23.9,10.47-73.85-26.91-75.16,23.94-1.47,56.46,18.79,124.75,81.32,137.52,97.41,19.89,175.45,60.22,244.74,131.61,47,48.42,125.61,25.69,167.4-36.37,46.11-68.47,37.12-109.19-34.83-151.4C2152.06,5033.32,2022.28,5008.74,1886.1,4997Zm-850.82,56.47c22.13-45.91-5.81-66-44.76-69.61-45.37-4.24-57.53,27.17-59.79,68-10,179.79,47.24,264.82,236.77,344.24,18.54,7.76,33.1,42.5,61,11.21,24.07-27,9.79-50.28-3.18-74-22.62-41.29-58.66-70-94.22-99.43C1075,5187.47,1034.84,5131.77,1035.28,5053.44Z"/><path class="cls-4" d="M1626.52,5713.6c.53,73.19-44.63,130.26-103.91,131.31-59.87,1.07-114.28-63-113.46-133.56.78-67.55,46.74-127.41,99-129C1565.07,5580.59,1626,5648.24,1626.52,5713.6Z"/><path class="cls-4" d="M2309.11,5733.27c.75,61.22-28.71,98.53-90.05,102.41-55.55,3.52-105.24-56.1-100.68-124.26,3.7-55.4,18.85-110.36,89.83-114.23C2259.6,5594.39,2307.26,5661.05,2309.11,5733.27Z"/><path class="cls-4" d="M1607.57,6572.56c-97.13-3.67-130.3-43.67-126.82-152.94,3.07-96.78,56.46-144.62,157.31-141,84.87,3.08,152.41,75.86,148.2,159.68C1782,6522.78,1710.56,6576.45,1607.57,6572.56Zm-.94-76.21c63.47-.41,100.81-20.94,101.83-73.39,1-51.6-39.12-65.75-83.52-66.49-47.29-.78-68,24.31-67.21,70.92C1558.41,6469.64,1562.8,6506.31,1606.63,6496.35Z"/><path class="cls-4" d="M2142.24,6295c70.74,1.92,152.58,82.73,149,147.14-2.84,51.37-74.21,112.15-132.55,112.88-71.34.9-144.87-70.31-142.4-137.89C2018.83,6348.37,2075.7,6293.22,2142.24,6295Zm72.31,137.23c-16.9-28.78-36.85-54.92-72.05-58.77-29.77-3.25-47.85,20.26-48.47,43.92-1.07,40.59,35.06,52.93,66.69,55.75C2184.24,6475.25,2205.25,6458.07,2214.55,6432.26Z"/></g></g></g></svg>