<svg xmlns="http://www.w3.org/2000/svg" viewBox="0 0 4329.45 5810.74"><defs><style>.cls-1{fill:#cc5861;stroke:#bb3a44;stroke-width:456.43px;}.cls-1,.cls-19{stroke-miterlimit:10;}.cls-2{fill:#da6631;}.cls-3{fill:#da662f;}.cls-4{fill:#da652f;}.cls-5{fill:#da6733;}.cls-6{fill:#da6530;}.cls-7{fill:#da6430;}.cls-8{fill:#da6531;}.cls-9{fill:#da642f;}.cls-10{fill:#d96430;}.cls-11{fill:#db6935;}.cls-12{fill:#db6933;}.cls-13{fill:#da6632;}.cls-14{fill:#da6732;}.cls-15{fill:#da6431;}.cls-16{fill:#d96431;}.cls-17{fill:#d96331;}.cls-18{fill:#d96330;}.cls-19{fill:#0f9549;stroke:#4ca347;stroke-width:228.21px;}</style></defs><g id="Livello_2" data-name="Livello 2"><g id="Livello_7" data-name="Livello 7"><path class="cls-1" d="M818.15,1584.2c-135,86.26-253.84,193.69-348,332.31C326,2128.94,252.73,2371.44,234.43,2634,198,3156.76,323.21,3635.85,573.66,4074.29c205.72,360.15,437.18,700.36,700.69,1011.8,156.87,185.4,336.18,338.76,554.93,425.8,317.42,126.31,617.4,80.85,901.08-117.47,280.41-196,498.73-461.75,688.66-758.09,287-447.85,507.6-932,627.1-1467.46,64.57-289.37,77.65-582.54,11-874.85-66.84-293.14-223.43-512-456.76-665.33-6.12-4-11.81-8.85-17.71-13.3-21.25-7.15-39.41,4.49-57.3,13.29-88.06,43.31-172.09,36.87-252.59-22.37-8.32-6.12-17.58-10.75-25.71-17.1-37.62-29.36-74.74-28.63-120.64-18-138.85,32.19-279.87,40.75-420.68,10.43-57.91-12.46-105.39-46.92-148.27-90.45-42.71-43.36-43.29-43.54-84.67,3.63-27.27,31.08-58.89,54.54-93.34,74.61-109,63.5-224.81,109.3-337.93,162.06-39.68,18.51-61.48,3.6-60.52-45.62,1.22-62.47-15-118.16-38-173.42-12.94-31.07-32.46-47-63.19-46.2-71.28,1.8-142.77-6.17-213.83,7-28.42,5.28-56.87.67-85.22-4.47-41-7.43-76.66.59-111.8,30.91-81.48,70.32-179.7,92.63-279.55,108.88-112.12,18.25-222,9.26-330.56-25.44C845.5,1578.9,831.44,1571.89,818.15,1584.2Z"/><path class="cls-2" d="M3430.13,2696.35a80.88,80.88,0,0,0,80.41-87.77c-6.38-81-39.87-144.21-99.36-140.68-42.68,2.54-81.29,41.66-78.68,87.51C3336.76,2630.42,3377,2709.94,3430.13,2696.35Z"/><path class="cls-3" d="M2100,2354c63.21-1.43,91.15-53,68.48-122.47-8.32-25.5-.64-55.23-24-77.51-29-27.62-58.88-39.12-93.32-19.89-41.94,23.42-55.45,56.91-45,104.82,4.31,19.73,12.27,38.46,16.88,58.13C2033.56,2341.85,2061.45,2356.45,2100,2354Z"/><path class="cls-3" d="M3160,3996.14c1,98.5,60.71,157.2,130.09,127.56,32.89-14.05,48.83-40.37,44.63-80.28-3.13-29.65-6.41-59.26-18.15-86.61-17.6-41-56.29-61.85-95.5-51.79C3185.75,3914.09,3159.56,3953.16,3160,3996.14Z"/><path class="cls-4" d="M2953.56,4608.52c47.57.17,69-20.47,69.36-66.73.37-52.61-32.71-94.15-75.85-95.24-41.94-1.06-68.66,30.34-69.92,82.19C2876,4577.11,2905.89,4608.35,2953.56,4608.52Z"/><path class="cls-5" d="M715,2988.46c.74,46.84,35.74,88.24,74.17,87.75,41.7-.54,72.26-33.22,71.81-76.79-.44-43.72-45.83-93.52-83.83-92C739.76,2908.94,714.3,2942.14,715,2988.46Z"/><path class="cls-4" d="M2259.52,3781c43.66-.18,69.09-26,68.2-69.2-.93-44.72-42.82-90.75-83.53-91.79-36.41-.92-62.77,35-62.4,85C2182.16,3755.45,2208.51,3781.2,2259.52,3781Z"/><path class="cls-6" d="M2499.35,2470.24c-.86,51.27,25.75,81.37,73.7,83.39,39.64,1.66,71.06-28.06,72.16-68.26,1.18-42.75-41.35-92.55-79.6-93.23C2523.19,2391.39,2500.22,2418.47,2499.35,2470.24Z"/><path class="cls-7" d="M1617.22,3532.67c-46.4,0-61.29,16.19-61.28,66.65,0,56.48,25.22,86.27,73.08,86.37,45.13.09,72.47-26.52,72.7-70.72C1702,3567.68,1666,3532.67,1617.22,3532.67Z"/><path class="cls-4" d="M2388.27,2821.07c.06-49.62-21.79-77.1-61-76.76-40.75.35-75.79,35.61-76.59,77.07-.8,42,29.68,73.77,71.56,74.47C2369.3,2896.63,2388.2,2875.23,2388.27,2821.07Z"/><path class="cls-8" d="M1821.47,2573.35c.55,46.79,25.14,76.22,62.86,75.24,40.16-1.05,66.83-33.41,66.51-80.7-.27-40-31.93-79.55-64.25-80.16C1847.92,2487,1820.87,2522.55,1821.47,2573.35Z"/><path class="cls-9" d="M1856.3,3194.76c.91,42.48,28,73.48,63,71.95,38.11-1.67,59-31.57,57.24-81.94-1.52-43.44-24-69.61-59.85-69.68S1855.31,3148.55,1856.3,3194.76Z"/><path class="cls-10" d="M2765.6,3703.27c.64,39.78,34.6,78.92,66.73,76.89,29.93-1.89,60.09-41.9,60.35-80.07.26-37.43-29-72.42-60.18-71.88C2795,3628.86,2764.94,3662.62,2765.6,3703.27Z"/><path class="cls-7" d="M1341.64,4414.14c-.1-45.32-23-72.89-60.18-72.44-34,.41-59.91,30-60,68.55-.08,48,25.26,84.07,58.33,82.95C1316.13,4492,1341.74,4459.22,1341.64,4414.14Z"/><path class="cls-11" d="M2070.79,4560.61c-.13,53.39,18.25,76.42,60.72,76.07,40.18-.33,58.62-23.2,59.13-73.35.5-49.37-17.78-70.4-60.91-70.07C2088.83,4493.58,2070.9,4514.06,2070.79,4560.61Z"/><path class="cls-6" d="M1615.63,1889.15c-.08,52.85,16.08,74.65,55.56,75,36.51.29,65-33.8,64.13-76.77-.75-37.32-30.25-74.27-59.47-74.49C1634.78,1812.55,1615.71,1836.72,1615.63,1889.15Z"/><path class="cls-8" d="M3545.77,3113.21c-.4,44.21,24.23,76.74,58.71,77.56,34.84.83,61.15-31,61.53-74.42.39-44-24.37-76.69-58.69-77.58C3572.36,3037.86,3546.17,3069.55,3545.77,3113.21Z"/><path class="cls-10" d="M861.94,3660.65c-.12,37.48,28.38,72,59.66,72.36,39.85.42,63.56-29,65.22-80.87,1-29.79-31.47-67.82-59.29-69.54C895.69,3580.63,862.07,3620.64,861.94,3660.65Z"/><path class="cls-12" d="M2611.05,1881.13c0-46.63-22.42-76.83-57.58-77.6-31.55-.69-63,40.46-62.31,81.56.64,38.72,28.12,69.94,61.22,69.55C2593.24,1954.17,2611.07,1931.83,2611.05,1881.13Z"/><path class="cls-4" d="M1839.41,5069.78c.11-48.22-21.07-79-55.06-80-35.3-1-64.09,30.93-65.14,72.31s25.91,77.33,58.76,78.1C1818.39,5141.15,1839.3,5117.19,1839.41,5069.78Z"/><path class="cls-13" d="M1178.76,3247.86c-.39,50.55,20.57,77,60.83,76.66,37.92-.29,58.55-26.14,59-73.92.42-49.28-17.35-69.55-60.7-69.25C1197,3181.63,1179.11,3201.76,1178.76,3247.86Z"/><path class="cls-6" d="M1487.32,2818.34c.9,52.53,21.12,78.27,61,77.6,33-.56,59.7-35.59,59.09-77.36-.6-41.1-28.78-74.14-63.28-74.21C1513.33,2744.31,1486.65,2779.07,1487.32,2818.34Z"/><path class="cls-6" d="M2924.91,2771.94c-40.08-.24-63.08,26.18-64.33,73.87-.88,33.58,29.15,69.46,57.71,69,39.95-.72,70.31-32.32,69.6-72.45C2987.13,2799.7,2962.5,2772.17,2924.91,2771.94Z"/><path class="cls-14" d="M2568.44,5085.27c-.85-39.05-27.09-68.71-60.54-68.45-34.14.27-60.2,37.55-58.12,83.13,1.77,38.62,30.2,69.47,63.36,68.76C2550.69,5167.91,2569.61,5139.36,2568.44,5085.27Z"/><path class="cls-4" d="M2457,4244c.35-49-19.31-79.13-53-81.25-29.85-1.88-66.65,41.09-67,78.28-.41,39.66,24.73,70.85,58.1,72.07C2434.73,4314.54,2456.67,4290.08,2457,4244Z"/><path class="cls-6" d="M1959.24,4107.24c-.13-48.5-17.44-70.39-55.8-70.58-36.61-.17-64,30.08-64.37,71.11-.43,46.82,21.58,73,61.06,72.53C1940.14,4179.86,1959.36,4156.09,1959.24,4107.24Z"/><path class="cls-15" d="M1072.48,2563c-35.68-.41-57.37,22.2-56.6,59,.86,41.34,40.43,83.71,77.18,84.31,37.54.61,48.85-25.67,50.61-60.1C1145.71,2606.42,1107.83,2563.4,1072.48,2563Z"/><path class="cls-6" d="M2548.15,3238.65c-20.13,1.76-39.94,19.35-39.88,58.2.06,41.49,40,84.82,75.8,84.92,35,.1,48.6-24.42,51.09-56.62C2638.45,3282.57,2598.13,3237.55,2548.15,3238.65Z"/><path class="cls-16" d="M3125.45,3462.28c3.76,29.14,17.84,51.12,51.06,51.55,33,.43,53.46-24.89,52.19-64.15-1.09-33.69-26-61.43-54.64-57.59C3140.17,3396.65,3126.1,3421.56,3125.45,3462.28Z"/><path class="cls-11" d="M3029.63,2154.62c-27.3,3.6-40.94,29.75-39.48,61.73,1.38,30.15,12.67,59.77,47.36,60.44,34.45.66,55.3-26.9,54.07-68.39C3090.52,2172.47,3071.11,2153.59,3029.63,2154.62Z"/><path class="cls-15" d="M2078.86,5085.85c-3.45,29.4,3.78,55,38.76,53.69,30.49-1.13,56-11.95,56.31-54.24.25-37.72-25.2-69.59-57-67.73C2078.41,5019.83,2078.28,5051.3,2078.86,5085.85Z"/><path class="cls-10" d="M852.43,2146.76c8.86,25.75,3.52,63,42.83,64.1,31,.83,60.59-28.19,60-58.43s-30.23-63.26-58.19-63.51C862.35,2088.62,857.84,2117.77,852.43,2146.76Z"/><path class="cls-17" d="M1341.57,2371.56c-1.51,32,13.38,50.88,48.34,49.46,34.07-1.39,53.53-19.2,54.4-57.7,1-41.87-26.1-54.63-56-56.28C1353.94,2305.14,1341.78,2331.28,1341.57,2371.56Z"/><path class="cls-17" d="M2903.12,4108.25c1-45.83-21.12-60.78-53.66-61.24-35-.49-49.13,26.93-47.78,59,1.27,30.15,11.93,59.33,49.74,55.54C2884.39,4158.21,2906.79,4145.78,2903.12,4108.25Z"/><path class="cls-8" d="M1404.93,4056.73c26.93-1.89,47.61-18.88,48.15-57.14.59-40.79-25.22-60-55.69-64.53-34.22-5.08-39.78,31.11-44.57,56.77C1346.45,4025.94,1370.53,4055.57,1404.93,4056.73Z"/><path class="cls-18" d="M1667.06,4632.54c-1.6,33.19,7.58,57.69,40.1,60.16,29.18,2.2,54.76-29.21,54.82-64.6.07-40.86-26.55-54.75-55.33-56.84C1668.35,4568.49,1666.4,4601.75,1667.06,4632.54Z"/><path class="cls-13" d="M560.85,2504.68c-.88,37.13,7.74,66.86,45.27,67.2,32,.29,48.84-21.26,49.64-57.29.85-38.14-21.53-66.65-54.23-63C574.56,2454.69,557.57,2472.68,560.85,2504.68Z"/><path class="cls-8" d="M2576.81,4711.14c2.1-38.19-13.36-56.13-47.63-56.46-38.28-.36-48.22,22.88-47.7,60.64.48,34.34,11.32,55.67,44.38,54C2558.66,4767.65,2580,4751.48,2576.81,4711.14Z"/><path class="cls-19" d="M604.25,1944c244.3-34.24,461.35-141.87,679.17-249,87-42,264-106,249.94-100.84-14.27,64.41-26.33,123.23-27.91,183.56-3.31,126.35,18.11,249.24,51.06,370.5,9.58,35.29,20.51,70.23,31.71,105,13.91,43.2,40.72,51,77,22.76,44-34.27,85-71.69,122.53-113,5.81-6.4,9.87-15.07,19.72-16.81,36.88-28.15,67.82-60.88,82-106.49,52.12-83.13,106.08-165.14,153.67-257.85-4.66-16.14,58.17,199.41,102.13,306.58,53,124.85,118.36,240.79,234.39,319.29,74.31,50.27,122.51,34.16,154.23-50.16,27.53-73.16,62.75-143.46,84.17-218.85,33.55-118.06,21.29-238.73,17.61-358.8-.5-16.32-2.48-32.6-4.69-60.56-6.46-6.77,86.4,90,133.29,136.3,77.25,76.07,166.81,134.8,262.77,184.59,31.32,16.25,61.42,35.13,90.87,54.62,50.72,33.58,93.44,73.4,100.14,139.25,2.7,26.48,12.64,48.39,45.44,40.49,32.3-7.78,40.26-32.47,34.92-61.67-7.7-42.19-21.54-82.88-27.51-125.76-14.6-104.87-24.32-210.31-49.91-313.81-30.62-123.79-93.52-230-164.67-332.87-8.12-11.62-18-25.63-14.41-20.52-10.62-2.83,305.22,80.88,466.46,102.93,53.13,3,106.28,7.64,159.47,2.79,21.39-2,44.32-4.32,51.88-30.19,7.18-24.55-6.55-40.31-23.91-55.34-196.68-170.34-419.56-285.67-678.22-328.91-180.17-30.11-360-62.09-543.8-52.49-70.86,3.71-141.64,9.36-212.31,15.74-26.78,2.42-34-5.8-33.8-33,.87-152.35,32.46-299,74.1-444.63,33.5-117.15,71.47-232.17,127.39-340.84,15-29.23,26.59-60.39,32.62-93,4.31-23.33-5.52-39.83-28.4-46.68-23-6.9-40.21,1.91-49.25,23.73-75.16,181.28-148.82,362.94-193.69,555-26.11,111.79-38.78,224.8-40.83,339-.58,32.33-10.64,37-40.17,32.44-102.61-15.81-204.47-36.8-308.87-40.46-176.14-6.17-342.83,27.88-498.46,111.39-19.51,10.47-39.07,10.89-58.93,9.33-104.06-8.19-201.15,10.57-291.9,64.86-47.63,28.5-104.44,28.38-158.06,36.77-48.81,7.64-97.65,14.63-145.2,28.88-22.21,6.66-39.58,16.51-43,41.68-3.47,25.33,15,35.72,32.34,46,58.43,34.56,123,53.13,187.7,71.5,14.26,4,46.81,12.7,46.81,12.7,7.41-7.65-126,130.56-185.88,208.65a1522.37,1522.37,0,0,0-133.82,211.48c-9.62,18.39-19.2,36.78-5.83,57C560.54,1947.8,582.18,1947.13,604.25,1944Z"/></g></g></svg>