<svg xmlns="http://www.w3.org/2000/svg" viewBox="0 0 2945.63 2113.68"><defs><style>.cls-1{fill:#f2f2f2;}.cls-1,.cls-2{stroke:#d6d6d6;}.cls-1,.cls-2,.cls-3,.cls-4,.cls-5{stroke-miterlimit:10;}.cls-1,.cls-2,.cls-3{stroke-width:105.16px;}.cls-2{fill:none;stroke-linecap:round;}.cls-3{fill:#d64b4f;stroke:#d23c34;}.cls-4{fill:#d64b4e;stroke:#d23b33;}.cls-4,.cls-5{stroke-width:35.67px;}.cls-5{fill:#47964e;stroke:#38803f;}</style></defs><g id="Livello_2" data-name="Livello 2"><g id="Livello_7" data-name="Livello 7"><g id="latte_cond." data-name="latte cond."><path class="cls-1" d="M2893.05,640.86c0,784.38-635.86,1420.24-1420.23,1420.24S52.58,1425.24,52.58,640.86,2893.05-143.51,2893.05,640.86Z"/><path class="cls-2" d="M2521.32,701.71c-25.83,49.94-358.3,289.84-1056.81,270.07-371.8-10.53-739.86-82.63-1040.2-270.07"/><ellipse class="cls-3" cx="1477.75" cy="538.17" rx="997.94" ry="286.6"/></g><path class="cls-4" d="M1696.89,1352.5c4,12.46,9.76,24.19,13.23,37,5.13,18.92,9.27,37.84,10.76,57.31q0,15.69-.07,31.48c-3.29,47.32-21.25,89.13-47.79,127.79-18.12,26.4-40.42,48.84-67.51,65.45a292.74,292.74,0,0,1-77.77,33.46c-34,9.07-68.26,10.57-102.45,5.71a255.91,255.91,0,0,1-102.55-38.23c-27.76-17.7-52.43-38.46-73.25-63.74a215.36,215.36,0,0,1-38.86-71c-10.91-33.49-13.27-67.48-9.11-101.91a251.68,251.68,0,0,1,31.3-94.9c12-21.09,25.82-40.53,43.55-57.42,13.21-12.59,27.53-23.79,43.88-30.82,13.86-6,28.13-11.79,43.38-14.87,9.47-1.91,18.77-5.11,28.5-6.27,11.42,4.5,19.3,13.57,27.53,22,6.42,6.56,10.56,14.79,13.11,23.62.88,3,1.62,6.74-1.1,9.33-2.52,2.39-4.16-1-6.25-1.63-12.3-3.92-24.48-8.88-37.37-10a428.92,428.92,0,0,0-52.84-1.09c-18.76.64-52,5.14-47.91,4.59,1.41,4.18,3.81,5.08,6.92,6,14.61,4.47,29.38,8.68,43.55,14.34,21,8.39,41.46,18,59.72,31.74,4.8,3.62,8.47,5,2.15,11.43-14.91,15.12-25.36,32.32-18.83,55.2,1,3.53,2.09,7.29,4.81,8.77s5.43-2.27,7.31-4.18c7.76-7.87,16.57-14.47,25.19-21.25,15.17-11.91,32.49-20,51.48-22.92,12-1.84,24.8-2.62,36.73.8,19.34,5.53,34.44,17.52,46.66,33.45,5.63,7.33,12.12,14,18.25,20.94,1.36,1.54,2.39,3.84,5.18,2.85,2.44-.87,1.57-3.15,2.09-4.86,2-6.5,2.34-13.52,4.37-19.76,3.76-11.53,1-21.28-3.29-31.77-3-7.39-10.27-11-13.91-17.94,9.82-2.46,19.06-6.23,28.5-6.86,21.18-1.41,42.39-3.16,63.59,2.2C1671.73,1340,1685,1344.28,1696.89,1352.5Z"/><path class="cls-5" d="M1685.05,1347c-22.76-7.17-46-6.6-69.14-6.4-10.33.09-20.63,3.61-31.49,5.68,3.53,7.8,11.19,12.18,14,20.42,4,11.7,6.4,22.49,1.59,34.82-2.61,6.67-3.43,14.31-6,21.26-.68,1.82.13,4.36-2.59,5.16-3.1.9-4.07-1.66-5.46-3.43-6.24-8-12.89-15.63-18.56-24-12.32-18.12-28-32.13-48.73-39.38-12.79-4.47-26.75-4.42-40-3.18-20.86,2-40.25,9.71-57.53,21.74-9.82,6.83-19.83,13.47-28.78,21.56-2.16,2-5.26,5.93-8.22,4.09s-3.82-5.95-4.69-9.85c-5.68-25.34,6.79-43.42,24-59,7.29-6.59,3.37-8.35-1.63-12.59-19-16.15-40.72-27.88-63.07-38.35-15.08-7.06-30.9-12.57-46.54-18.37-3.32-1.23-5.88-2.36-7.16-7-5.86.45,30.84-2.5,52.49-2a467.09,467.09,0,0,1,57.5,4.51c14,2,26.93,8.19,40.08,13.23,2.24.86,3.82,4.62,6.72,2.17,3.12-2.64,2.54-6.75,1.78-10.09-2.22-9.78-6.21-19-12.79-26.56-8.45-9.69-43.71-38.48-50.42-47.4-6,0,58.68-.3,89.74,17.48,3.28,1.88,40.63,44.43,35.77,39.09,2.35-10.83,7-19,5.35-28.54,5.47-28.2,12-56.14,27.44-80.84,10.45-16.65,20.82-33.89,41.87-39.39,13.53-3.54,26.68-4.16,37.62,6.83,4.66,4.68,5.31,7.77-1.74,11.85-41.17,23.81-66.8,60.32-83.19,104.08-.71,1.9-2.1,3.72-.88,5.92-7.29,8.31-9.24,18.72-12.78,30.29-5,2.13,21.81-9.33,37.64-16.11,41-6.38,115.29,11.54,109.22,10.11-12.56,2.8-25.58,2.39-37.79,6.49-6.55,2.2-13.78,3.37-18.11,9.76-7.49,1.68-11,8-15,13.45-2.35,3.19-.74,6.72,3.64,7,10.14.59,19.78,3.33,29.53,5.82a297.91,297.91,0,0,1,44.23,15.46c10.72,4.63,19.8,12.34,31.08,15.72,8.53,9.1,19.84,15.39,27.28,25.49,21.15,28.7,30.84,43.36,20.24,28C1741.79,1377.62,1700,1351.72,1685.05,1347Z"/></g></g></svg>