<svg xmlns="http://www.w3.org/2000/svg" viewBox="0 0 6591.73 4729.98"><defs><style>.cls-1{fill:#f2f2f2;}.cls-1,.cls-2{stroke:#d6d6d6;}.cls-1,.cls-2,.cls-3{stroke-miterlimit:10;stroke-width:235.33px;}.cls-2{fill:none;stroke-linecap:round;}.cls-3{fill:#fffceb;stroke:#fbf4b2;}.cls-4{fill:#6e6e6d;}</style></defs><g id="Livello_2" data-name="Livello 2"><g id="Livello_7" data-name="Livello 7"><g id="latte_cond." data-name="latte cond."><path class="cls-1" d="M6474.07,1434.12c0,1755.27-1422.93,3178.2-3178.21,3178.2S117.66,3189.39,117.66,1434.12,6474.07-321.15,6474.07,1434.12Z"/><path class="cls-2" d="M5642.21,1570.28c-57.8,111.76-801.81,648.61-2364.93,604.36-832-23.55-1655.66-184.91-2327.76-604.36"/><ellipse class="cls-3" cx="3306.9" cy="1204.31" rx="2233.18" ry="641.36"/></g><path class="cls-4" d="M2970.49,2632.75c0-44.28-1-84.77.41-125.18.72-20.62,6.73-41.43,28.76-49.82s39.07,3.91,54.5,18.15c25.73,23.75,43.73,52.68,56.82,84.93,6.87,16.94,13.88,28.52,37.88,21.49,87.84-25.74,176.22-17.86,264.11,1.79,28,6.27,55.05,11.53,72.46-20.31,2.84-5.2,8.52-9.15,13.51-12.84,30.72-22.72,58.46-62.12,101.12-46.68,43.4,15.72,33.13,62.63,35.86,98.53,2.19,28.82,10.49,34.59,37.48,23.15,30-12.7,61.39-24,93.28-29.8,71-12.89,115.84,28.87,108.34,100.1-11.71,111.16-51,206.48-160.51,256.42-22.19,10.11-17,24.85-15.27,42.26,15.05,147.58,37.52,294.91,31.53,443.67-4.83,120.08-70.56,191.89-188.72,207.36-146.77,19.21-293.81,10.16-437.18-23.7-162.65-38.42-245.06-150.71-247.12-319.58-1.58-129.75,8.73-259.08,16.42-388.44,1.48-24.87-4.59-34.38-27.15-43.58-101.42-41.37-157.54-174.08-118.81-276.07,17.86-47,42.56-57.06,86.75-33.87C2864.15,2586.55,2913.31,2612.28,2970.49,2632.75Zm698.65,867.3c19.34-20.69,15.59-46.82,16.76-71.3,7.24-152.05-12.23-302.33-33.93-452.13-5-34.39,6.42-48.69,34.37-60.08,92.6-37.74,134-112.55,145.34-207,6.43-53.71-19.29-76-71.84-67.64-73.33,11.65-125.88,50.94-158.52,117.14-46.36,94-121.91,107-197.22,33.05-17.14-16.84-35-34.19-59.25-34.93-75.86-2.32-107.35-51.22-119.95-115.48-6-30.61-19-31.82-41-22.87-51.94,21.07-109.33,30.46-149.45,76.65-10.73,12.36-37.27,39.81-49.2,14.28-24.53-52.53-79.66-39.93-113.36-73.62-11.1,34,6.32,50.56,22.72,67.06,20.89,21,44.93,39.43,63.16,62.48,42.56,53.79,34.91,95.26-22.36,131.84-12.9,8.24-19.94,15.72-20.18,32.43-1.93,132.78-19.43,265.15-11.6,398.18,2.73,46.48,13.68,91,43.69,133.28,13.48-103.85,38.12-149.6,96.63-198.68C3228.71,3107.72,3606.24,3173.24,3669.14,3500.05Zm-264.2,108.74c31.23,0,62.51.94,93.69-.38,17-.72,33.94-4.76,50.73-8.17,72.95-14.81,90.06-42.69,71.83-116.22-41.29-166.54-208.45-277.8-380.13-254.49-109.07,14.81-201.57,55.65-235.15,169.32-27.38,92.66-7,146.49,84.11,174.33C3193.23,3604.71,3299.48,3602.05,3404.94,3608.79Zm-93.57-996.45c-13.74,6-42.46-15.47-43.22,13.77-.84,32.46,10.81,71.73,46.76,79.07,56,11.44,100.89,34.63,140.73,75.68,27,27.84,72.23,14.77,96.26-20.91,26.51-39.37,21.34-62.79-20-87.06C3464.3,2633.24,3389.68,2619.11,3311.37,2612.34Zm-489.23,32.47c12.72-26.39-3.34-37.93-25.74-40-26.09-2.44-33.08,15.62-34.38,39.12-5.72,103.37,27.17,152.27,136.15,197.93,10.66,4.47,19,24.45,35.07,6.45,13.84-15.53,5.63-28.91-1.83-42.52-13-23.75-33.73-40.25-54.18-57.18C2845,2721.88,2821.89,2689.85,2822.14,2644.81Z"/><path class="cls-4" d="M3162.11,3024.41c.3,42.09-25.66,74.9-59.75,75.51-34.43.61-65.71-36.22-65.24-76.8.45-38.84,26.87-73.27,57-74.19C3126.77,2947.93,3161.84,2986.83,3162.11,3024.41Z"/><path class="cls-4" d="M3554.61,3035.73c.42,35.2-16.51,56.65-51.78,58.88-31.94,2-60.52-32.26-57.9-71.45,2.13-31.86,10.84-63.46,51.65-65.69C3526.14,2955.86,3553.55,2994.2,3554.61,3035.73Z"/><path class="cls-4" d="M3151.21,3518.33c-55.85-2.11-74.92-25.11-72.92-87.95,1.77-55.65,32.47-83.16,90.46-81.05,48.8,1.77,87.63,43.62,85.21,91.82C3251.52,3489.7,3210.43,3520.56,3151.21,3518.33Zm-.54-43.83c36.5-.23,58-12,58.56-42.2.57-29.67-22.5-37.81-48-38.23-27.19-.45-39.08,14-38.65,40.78C3122.94,3459.14,3125.47,3480.23,3150.67,3474.5Z"/><path class="cls-4" d="M3458.66,3358.74c40.67,1.11,87.73,47.57,85.69,84.61-1.64,29.54-42.68,64.49-76.22,64.91-41,.51-83.3-40.43-81.88-79.3C3387.69,3389.41,3420.39,3357.7,3458.66,3358.74Zm41.57,78.91c-9.72-16.55-21.18-31.58-41.43-33.79-17.12-1.87-27.51,11.65-27.87,25.25-.61,23.34,20.16,30.44,38.35,32.06C3482.8,3462.37,3494.88,3452.49,3500.23,3437.65Z"/></g></g></svg>