<svg xmlns="http://www.w3.org/2000/svg" viewBox="0 0 1481 1502.04"><defs><style>.cls-1{fill:#ebf5fa;stroke-width:77.67px;}.cls-1,.cls-2,.cls-3,.cls-4{stroke:#c9e3f7;stroke-miterlimit:10;}.cls-2,.cls-3{fill:none;}.cls-2{stroke-width:71.64px;}.cls-3{stroke-width:81.89px;}.cls-4{fill:#fff;stroke-width:9.31px;}</style></defs><g id="Livello_2" data-name="Livello 2"><g id="Livello_7" data-name="Livello 7"><g id="ghiaccio"><path class="cls-1" d="M1108.45,134.52c32.47,9.53,65.18,18.54,98.27,25.56,16.63,3.54,114,19,118.66,22.74,22.85,18.14,50.79,23.89,77.35,33,29.48,10.1,34.18,35.94,38.14,61.3,2.28,14.54.21,29.71,1.24,44.52,1,13.78-9.52,142.18-12.95,175.11-1,9.55,6.17,19.76,6.2,29.67,0,9.42-30.31,103.88-20.17,144.67,3.57,14.34,3,29.89,3,44.89,0,16.54-1.54,33.09-2.64,49.62-.17,2.47-24.24,101.55-23.83,114.38.33,10.5,6.09,100.5,4.82,116.17-2.49,30.9-6.12,61.61-21,89.72-2.26,4.27-2,10-4.44,14a124.45,124.45,0,0,1-15.57,20.45c-3.91,4.09-12.07,5.48-13.94,9.92-8,19.13-28.2,23-42,34.66-4.46,3.77-161.83,89.81-176.4,86.53-1.53-.35-18.1,15-26.54,19.46-9.65,5.14-17.55,8.71-29.24,9.31-9.8.51-58.59,37.8-75,39.6-14.37,1.58-24.18,7.88-34.88,15-2.9,1.93-45.33,21.63-61.74,33.12-9.41,6.6-19.45,12.36-28.54,19.36-7.64,5.88-14.31,13-21.42,19.57a14.36,14.36,0,0,1-3,2.63c-17,8.3-34,16.6-51.08,24.69-3.55,1.69-40.35,23.39-49.62,21.91-4.8-.77-11.05-2.31-14.51-.13-28.44,18-49.91-1.86-72.36-13.24-19.55-9.9-37.43-23.06-56.88-33.16-14.13-7.33-30.79-10.15-44.23-18.39-15.86-9.74-28.77-24.18-44.2-34.76-32.53-22.31-65.94-43.32-98.85-65.09-9.73-6.44-19.29-13.22-28.35-20.56-12.91-10.47-81.73-38.7-93.78-59.69-7.63-13.28-22.48-23.36-35.87-32.21-25.44-16.82-157.83-104.63-161.07-126.67-.39-2.67-3.42-4.91-5-7.47-1.28-2-3.67-5.56-3.2-6,14.74-14.44-1.06-103-2.92-131.76-3.3-51.16-12-209-14.38-236.6-2.63-30.55-6.66-61-10.42-91.44-.41-3.27-2.5-6.74-4.72-9.33-13.63-15.9-8-132.4-8.38-149.29-.61-26.5.55-53.25-2.68-79.44-3.26-26.45-1-52,3.76-77.67,3.91-21.2,31-74.08,40.13-79,7.57-4.08,209.73-47.46,215.26-48.11,12.13-1.44,68.49-12.26,84.65-15.66,10.42-2.19,21-3.58,31.54-5.25,2.18-.35,71.25-27.72,83.21-30.93,12.92-3.46,130.73-26.74,151.66-29.75a194,194,0,0,0,27.12-6c11.23-3.32,153.95-10.3,154.79-9.58C846.24,50.66,902.54,61.62,908,68.15c5,6,45.12,16,55,19.2,12.32,4.06,24.43,9.14,37.05,11.81C1015.14,102.38,1100.73,132.25,1108.45,134.52Z"/><path class="cls-2" d="M1412.68,220.33c-2.32,2.93-11.79,10.55-14.35,13.33a99.89,99.89,0,0,1-16,14.06c-4,2.81-12.38,3.77-14.29,6.82-8.26,13.15-28.92,15.8-43.06,23.82-4.57,2.59-166,61.75-180.91,59.49-1.56-.24-18.56,10.28-27.22,13.38-9.89,3.53-18,6-30,6.4-10.05.35-60.09,26-76.88,27.22-14.74,1.09-24.8,5.42-35.77,10.31-3,1.33-46.49,14.88-63.32,22.78-9.65,4.53-19.94,8.49-29.27,13.3-7.83,4-14.68,8.94-22,13.46a14.15,14.15,0,0,1-3.06,1.8c-17.42,5.71-34.85,11.42-52.38,17-3.65,1.16-41.38,16.08-50.89,15.06-4.92-.53-11.33-1.59-14.88-.09-29.16,12.36-51.19-1.28-74.21-9.1-20-6.81-38.38-15.85-58.34-22.8-14.49-5-31.57-7-45.35-12.64-16.27-6.69-29.51-16.62-45.34-23.89-33.36-15.34-67.63-29.78-101.37-44.75-10-4.42-19.79-9.09-29.08-14.13-13.24-7.2-83.82-26.61-96.18-41C280.79,301,265.56,294,251.83,288,225.73,276.4,90,216,86.65,200.89c-.41-1.84-3.52-3.38-5.19-5.14-1.31-1.37-3-5.88-2.53-6.19"/><path class="cls-3" d="M742.21,1456.1c-2.83-4.7-8.5-6.79-11-11.69a141.15,141.15,0,0,1-10.85-28.49c-1.73-6.7,1.57-17.6-1.64-21.88-13.85-18.43-6.13-45.52-9.54-68-1.1-7.25,5.37-243,16.8-260,1.2-1.77-4.13-29.31-3.67-41.9.52-14.4,4.49-131.19,12-152.61,6.64-18.82,6.14-33.92,5.35-50.5-.21-4.49,4.9-66.56,3.15-92.22-1-14.74-.86-29.89-2.44-44.39-1.32-12.18-4.39-23.69-6.69-35.5-.31-1.62-.94-3.21-.83-4.9,1.65-25,3.3-50.06,5.21-75.12.4-5.22.39-61,7.08-72.08,3.46-5.73,8.49-12.94,8.35-18.25"/><path class="cls-4" d="M1064.52,852.22s122.78-36.72,117.13-52.28-27.45-9.3-27.45-9.3L1077,821.44c-29.06,9.81-87.72,28.15-19.47,12C1066,831.46,1064.52,852.22,1064.52,852.22Z"/><path class="cls-4" d="M1025.53,729.17s147.3-48.4,143.47-64.5c-3.11-13.08-32.73,1.29-43.73,7.14a60.59,60.59,0,0,1-9.69,4.08L1041.43,700s-14.18,4-20.72,9.71C986.15,740.15,1005.87,741.1,1025.53,729.17Z"/><path class="cls-4" d="M1033.53,983.28s115.39-28.21,117.12-44.67c2-19.07,94.7-70.18,75-59l-113.32,46.22s-33.59,9.68-26.92,15.27S1033.53,983.28,1033.53,983.28Z"/><path class="cls-4" d="M387.57,820.31S275.07,697.22,274.28,676.08s9-2.66,9-2.66l15.25,6.15s164.61,135.07,98.68,124C392.68,802.82,387.57,820.31,387.57,820.31Z"/><path class="cls-4" d="M467.28,710.09s-171.36-136.84-164-157.38,20-4.23,20-4.23l29.38,3.27c35.93,27.31,179.88,166.3,123.72,133.64C468.51,680.8,467.28,710.09,467.28,710.09Z"/><path class="cls-4" d="M331.45,939.68s-132.65-104.71-113-104S307.7,894,307.7,894l35.39,24.65s24.69,27.9,12.31,22.08A31.87,31.87,0,0,0,331.45,939.68Z"/><path class="cls-4" d="M765.75,213.46s-54.06,108.3-74.67,113q-2.21.51-3.87.75l-16.47-1-20.32,10.23S791.7,115,793.22,181.84C793.32,186.41,765.75,213.46,765.75,213.46Z"/><path class="cls-4" d="M668.3,167.41S586,324.57,564.45,321.17s-7.91-18.82-7.91-18.82l19.84-45c9-11.16,71.19-96.62,85.86-131.11C665.82,117.86,668.3,167.41,668.3,167.41Z"/><path class="cls-4" d="M939.25,220.83s-77.93,150-81,130.52,40.51-98.6,40.51-98.6l17.56-39.39s22.77-29.49,19.37-16.24A31.89,31.89,0,0,0,939.25,220.83Z"/></g></g></g></svg>