<svg xmlns="http://www.w3.org/2000/svg" viewBox="0 0 3553.65 5156.6"><defs><style>.cls-1{fill:#de7840;}.cls-1,.cls-3{stroke:#d35d2c;}.cls-1,.cls-10,.cls-14,.cls-15,.cls-17,.cls-18,.cls-19,.cls-2,.cls-20,.cls-3,.cls-4,.cls-6,.cls-9{stroke-miterlimit:10;}.cls-1,.cls-10,.cls-2,.cls-20,.cls-3,.cls-4,.cls-6{stroke-width:66.44px;}.cls-2{fill:#eddbd2;stroke:#e9d5d1;}.cls-10,.cls-3{fill:#de783f;}.cls-4,.cls-6,.cls-7{fill:#f5eed6;}.cls-4{stroke:#f8e9c1;}.cls-5{fill:#7bba97;}.cls-6{stroke:#f8e6bf;}.cls-8{fill:#f8e6bf;}.cls-9{fill:#eedad2;stroke:#d7b8ac;stroke-width:65.73px;}.cls-10{stroke:#d35d2b;}.cls-11{fill:#2d2623;}.cls-12{fill:#28272b;}.cls-13{fill:#d55c2b;}.cls-14{fill:#d6602e;}.cls-14,.cls-15{stroke:#d85c46;}.cls-14,.cls-15,.cls-18,.cls-19{stroke-width:20.76px;}.cls-15{fill:#d6602d;}.cls-16{fill:#272523;}.cls-17{fill:#9b9994;stroke:#c1bebc;stroke-width:41.53px;}.cls-18{fill:#dd7840;}.cls-18,.cls-19{stroke:#d5672c;}.cls-19{fill:#de793e;}.cls-20{fill:#bcb6a6;stroke:#d8ceb8;}</style></defs><g id="Livello_2" data-name="Livello 2"><g id="Livello_7" data-name="Livello 7"><path class="cls-1" d="M5364.65-3963.61c27.64,8.83,33,24,29.67,54.87C5374-3720.62,5360-3532,5373.54-3342.47c1.53,21.43,4.51,35.56,27.92,41.67,26.54,6.92,52.15,17.43,78.16,26.38-10.65,69.33,10.28,135.91,18,203.62,1.73,15.17,13.73,31.43-8.59,41.19-76.73,33.61-155,61.72-237.33,79.59-159.76,34.67-311.66,21-456.66-59.08-69.34-38.28-320.28-234.16-357-276.19-11.69-36-4.5-72.31-.11-108.13,4.09-33.47,24.66-43.07,57.21-34.54,23.5,6.15,49.5,29.21,70.56,12.81,22.22-17.3.06-46.77.73-71,1.22-44.49,8.63-54.09,53-57.34,47.83-3.5,47.83-3.5,31.91-48.41-18.76-52.92-17.59-59.42,29-82.83,21.74-10.94,18.42-23.38,9.25-38.78-23.79-40-50.19-118.51-39.43-127.12,105.35-3.74,211.36-2,313.27-35.55,41.66-13.72,81.06-32.64,119.22-54.18,83.37-48.21,173-56.88,266.39-42.41,6.05.94,10.69,4.42,14.65,8.9Z" transform="translate(-4226.7 7936.92)"/><path class="cls-2" d="M4695.83-3842.07c19.12,36.07-14.79,105.13,6.11,140.19,12.75,21.39,9,29.76-15.87,35.22-53.52,11.73-53.25,13-33.33,65.25,26.74,70.2,26.64,71.91-47.06,67.65-32.62-1.88-51,11.58-38,39.14,13.14,28,27.39,80.65,4.13,91.26a343.73,343.73,0,0,1-98.64-18.74c-26.55-9-33.07,116.73-35.14,136.81-3.89,37.78-79.11-94.11-99.19-147.42-49.08-130.3-73.12-266.41-78.59-405.65-.17-4.4-.66-8.93.11-13.2,4.32-23.84-.48-55.85,23.09-66.86s43.75,13.48,65.45,24.79c42.94,22.38,89.17,38.29,136.58,50.77C4538-3829,4689.07-3854.83,4695.83-3842.07Z" transform="translate(-4226.7 7936.92)"/><path class="cls-3" d="M5422.3-3234c-5.95-22.84,2.14-31.09,19.08-38.83,151,33.67,686.81,61,745.63,61.62,200.52,2.05,398.5-23.61,596.18-53.18,39-5.84,39.07-5.41,47.51,18.17-7.49,107.15-36,211.34-45.61,318.1-10.47,116.6-84.17,127.85-162.47,104.76-44.38-13.08-58.43-50.5-67.13-90-22.53-102.46-22.05-103.89-127.49-105.16-200.28-2.42-400.58-3.17-600.87-4.58-7.36,0-14.74.11-22.08.56-81.22,5-84.49,8.46-98.71,87.71-16.86,93.91-60.46,121.24-160.86,107.89-28-3.72-45.46-21.79-56.57-49.17C5469-2925.23,5432.06-3196.53,5422.3-3234Z" transform="translate(-4226.7 7936.92)"/><path class="cls-4" d="M6708.68-7429.18c-33.9,7.94-31.6-8.28-24.89-30.3,11.35-37.24,22-74.75,34.89-111.46,46.46-132.33-21.89-234.84-115.66-292.23-57.88-35.41-123-36.49-189.48-40.15-125.79-6.93-209.94,83-244.39,184.59-20.2,59.58-30.78,61.5-80.67,19.12-42.62-36.2-92.25-56.7-150.92-62.06-90.35-8.25-127.31,74.72-195.15,103.24-1.8.76-1.62,5.52-3,8.09-37.23,70.53-8.54,126.42,38.73,178.92,23.71,26.32,18.82,45.24-15.18,45.12-41.75-.16-59.86,49-102.24,41.94-1.4-.24-5.42,6.82-5.89,10.76-8,67.19-11.55,134.55.41,201.53,1.78,10,12.27,20,21.12,27,45.63,35.87,100.87,49.27,156.09,55.71,62.47,7.29,122-11.1,177.78-40.2,17.29-9,34.52-17.2,39.47,8.46-.31.54-.62,1.05-.93,1.61,3.94,115.05,4.68,230.68,6.14,345.57.72,56.35-18.56,224.29,4.48,239.25,58.28,37.85,275.11.41,414.7,23.58,84.21,29.84,41.91-76.87,42.35-125.58,1.44-156.37,1.43-312.79,1.85-469.2l2,.14c15.8-10.46,33.69-9.85,51.3-8.82,70.39,4.07,137-13.31,202.36-36.24,63.73-22.35,108.46-76.28,108.3-129.52C6882-7373.48,6816.38-7454.37,6708.68-7429.18Z" transform="translate(-4226.7 7936.92)"/><path class="cls-5" d="M6020.85-7020.45c8.14-20.29,27.38-17,45.21-17q240.91.14,481.84.17.9,56.89,1.78,113.75c-4.31,10.7-14.69,10.17-24.43,10.14q-251.28-.75-502.55-1.65Q6021.77-6967.73,6020.85-7020.45Z" transform="translate(-4226.7 7936.92)"/><path class="cls-6" d="M6832.85-3229.73c-71.23,8-852.79,26.19-861.53,23-54.13-19.72-11.85-908.35-3.18-975.25,1.12-8.65,7.33-31.31,8-40.06,5.83-42.07,37.72-59.44,63.92-88.91,53.06-59.69,191.82-194.05,255.13-242.08,32-24.31,247.2-119.87,259-126.36,17.79-4.06,110.81-31.48,125.32-44.9,11.53,43.23,121.31,317.25,151.6,430.9,10.1,37.88,79.85,88.44,85.25,116.14C6988.91-4109.63,6880.21-3235,6832.85-3229.73Z" transform="translate(-4226.7 7936.92)"/><path class="cls-6" d="M5589.42-4808.95c36.07,10.94,70.6,27.64,109.62,27.58,6.41,0,16.49,4.38,18.68,9.43,57,26.51,79.2,34.83,115.27,42.86,9.9.48,19.62,4.95,29.41,7.58,15.19-3.46,25.84,5.44,34.57,15,64.76,71.23,151.22,92.88,241.22,106.67,24.35,3.73,60.07-.57,66.56,23.22,6.82,25,17.13,2-1.82,16.49,79.07-12.62,118.49,54.93-130,185.51-33.65,45.48-95.92,122-106.11,145.32-11.73,26.87-15.43,122.34-10.52,139.92,1.38,33-2.29,296.63-13.41,330.39-24.49,85,17.35,179.41,3.28,257.27-4.9,27.11,17.91,216.58,1.14,282.72-13.87,14.6-31.55,12.56-49.18,11.42-140.3-9.08-279.43-26.38-416.4-58.9a180.75,180.75,0,0,1-34.18-8.24c-78-26.74-77.92-34-84.78-116.45-13.57-163.39,47.57-604.32,47.83-628.07,1-90.7,70.8-378.44,80.24-435.67C5504.61-4538.63,5601.07-4765,5589.42-4808.95Z" transform="translate(-4226.7 7936.92)"/><path class="cls-5" d="M6423-4634.82c-46.85.78-96.83-20.1-139.69,1.57-49.21,24.87-79.78-27.35-122.18-19.08-2.84.55-5.88-.11-8.81,0-69.38,3.54-138.12-3.07-206.81-12.27-16.33-2.19-34.06-11.54-49.55,3.57,84.13,109.5,203.94,144.35,342.87,162.16-68.63,42.62-123.1,85-176.84,128.49-69.62,56.29-134.51,137.58-125.53,235.94,1.62,17.72,2.39,34.52,1.2,52.29-3.12,46.44-6.51,77.69-4.41,91.31-1.77,12.39-1.29,25.54-1.34,37.27-.67,145.68,0,291.39.2,437.08q-.18,170.31-.35,340.62c29.55,7.44,28.87-24.12,29-57.23.42-104.29,1.59-208.58,2.47-312.94.1-153.74,8.42-361.72,8.52-515.42l0,0c3.84-35.37-3.5-96.66,4.43-151,.6-17.93,25.42-46.48,35.58-58.72,77.8-93.72,175.94-161.57,277.23-225.28,12-7.52,25.43-5.06,38.47-6.46,95.78-10.24,177.91-46,232.22-132.39C6514.12-4635.16,6468.57-4635.58,6423-4634.82Z" transform="translate(-4226.7 7936.92)"/><path class="cls-7" d="M5542-3965.83c89.43,133.66,206.7,235.68,356.44,298,8.34,3.3,16.65,6.63,25.27,9.15,32.18,9.55,61.45,26.31,95.2,32.8,90.3,17.37,90.09,18.5,114.58-66.45,11.12-33.76,15.43-69.12,24.31-103.39,1.3-46.54-33-71.06-64.07-93.19-61.13-43.54-112.59-96.92-165.57-149-17.79-17.73-24.86-38.78-22.67-64.1" transform="translate(-4226.7 7936.92)"/><path class="cls-8" d="M5542-3965.83c7.83,8.38,15.16,17,22.91,25.33,2.67,2.77,11.07,11.88,13.89,14.91,5.09,5.47,13.44,13.94,18.8,19.46a1006.53,1006.53,0,0,0,99.79,88.83,848.34,848.34,0,0,0,213.12,120.63c7.81,2.89,15.19,5.61,22.92,7.68,10.75,3.07,21.28,6.8,31.63,10.71,19,7.32,41.29,16.47,58.76,19.66,18.72,3.42,37.58,7.54,54,8.87a38.73,38.73,0,0,0,7.23-.11c.4-.07.35-.1.06.05,0,.06-.19.06-.29.11a1.21,1.21,0,0,0-.3.2,4.17,4.17,0,0,0-1.11.86s0,.13,0,0a1.09,1.09,0,0,1,.13-.17,1.7,1.7,0,0,1,.14-.1c.48-.72,1-1.51,1.44-2.28a85.07,85.07,0,0,0,4.83-11.08c4.29-11.18,8.34-25.5,12-37.12,2.71-8.38,5.28-16,7.49-24.45,7-25.83,12-53.33,19.62-79.32l-.94,6.63c.79-11.47-1.39-21.77-7.63-31.82-9.25-15-24.74-27.18-39-38.59-58.62-45.84-107.7-102.85-154.75-159.76l-4.14-5-2.19-2.74c-12.28-15.36-18.71-35-16.92-54.64a94.22,94.22,0,0,1,2-12.94c.81,16.69,5.69,33.29,16.18,46.06a83.87,83.87,0,0,0,12.65,12.41c43.43,34.8,85.27,71.41,129.77,104.14,4.51,3.31,10.7,7.76,15.29,11,30.07,21.87,64,37.36,87,68.35,13.73,18,21.54,42.27,21.17,65.22v2.21l-.94,4.41c-1.26,5.57-2.72,13.23-3.82,18.84-4.66,24.94-8.4,50.43-15.19,75.28-1.16,4.59-2.71,9.14-3.84,13.47-.85,3.19-2.62,9.66-3.52,12.84-10.55,37.29-21.44,77-66.07,83.62-18.32,2.66-38.94-1.19-56.15-4.27-7.15-1.32-18.35-3.5-25.33-4.89-35.89-6.86-67.17-24.94-101-35.74-9.62-3.26-18.85-7-27.81-11.07-147-64.94-270.73-181.51-341.81-325.67Z" transform="translate(-4226.7 7936.92)"/><path class="cls-9" d="M4923-5494.62c98-24.79,195.4-52.75,294.21-73.67,168.54-35.67,335.72-25.29,503.94,13.44,153,35.24,270,131.26,393.37,218.33,27.51,50.92,66.88,86.75,122.49,103.35,25,7.45,62.35,8.22,87.2,0,54.65-18.09,95.43-52.38,121.13-105.07,61.27-42.75,121.49-87,184.16-127.75,134.38-87.47,285.51-109.64,439.07-124.52,64.62-24.73,127.82-14.08,190.55,8,120.88,13.62,236.21,52.08,353.41,82.21,32.85,8.44,143.88,46.63,129.91,55.74-123.49,80.48-278.81,158.7-383,263.21-132,132.29-148.21,153.88-277,260.71-295.67,245.18-644.16,278.66-705.15,283.73-52.08,4.33-386.69,28.19-693.19-140.42-130.48-71.77-255.5-178.33-267.36-188.38-68-57.64-129.28-123.76-191.87-187.83-96.59-98.88-199.93-206.88-310.38-288.29-26.75-21.31-18-35.86-18.9-30.17C4894.05-5468.63,4893.12-5484.15,4923-5494.62Z" transform="translate(-4226.7 7936.92)"/><path class="cls-10" d="M7541.33-5484.74c53.44,15.5,107,30.68,161.75,40.85,14.62,2.71,35.65,12.44,42.94-6.87,6.08-16.06-14.39-22.46-25.72-30.89-24.3-20.91-48.66-41.75-72.88-62.75-68.11-59.05-242.57-325.66-243.85-328.25-40-79.89-83.38-157.59-147.76-221.06-15.24-15-21.05-26.44-6.73-47.74,70.18-104.42,113.91-221.09,148.63-340.94,40.11-138.46,57.77-279.36,27.16-422.43-15.79-73.78-17.93-75.93-92-63.09-272.77,47.26-507.49,161.68-676.3,389.81-24.22,14.76-31.93,40.76-43.94,64-13.48,26-30.06,35.64-63.48,28.22-56.95-12.65-116.5-16.43-174.83-12.23-56,4-111.12,5.76-167.05-.78-46.46-5.43-92.3-4.13-139.39,9.08-36,10.09-77.1,15.15-115.62.29-46.55-81.66-99-158.62-170.7-221-167.45-145.66-362.77-229-580.77-263.53-36.06-5.72-53.44,5.34-63.7,39.9-28.77,96.9-27.42,195.93-12.65,293.09,27.72,182.3,84.57,355.53,190.34,509.38,10,14.57,2.65,20.88-6.25,28.94-48.42,43.84-83.87,97.4-116.79,153.18-43.92,74.43-80.45,153-128.9,224.94-46,68.33-104.53,126-156.26,189.46-1.47,26-34.11,48.41-8.78,77.37,10.53,2.49,20.12-1.38,30.06-4.1,126.05-34.49,251.92-69.73,382.85-81.65,192.25-17.5,377.77,6.31,553.54,89.56,58.69,27.8,109.87,67.76,163.41,103.91,26.42,17.84,48.77,43,82.28,49,57.25-38.22,120.29-46.82,188.3-46.17,54.1.51,100,18.59,146.39,40.53,17.88,2.44,31.22-7.28,43.82-17.38,47.2-37.85,99.28-68.42,150.51-100a732.91,732.91,0,0,1,197.59-85C6872.19-5526.27,7262.66-5603.53,7541.33-5484.74Z" transform="translate(-4226.7 7936.92)"/><path class="cls-11" d="M7001.87-5719.52c-.38,34.91-21.75,54.77-58.65,54.25-36.34-.5-52.68-22.33-54.48-55.41-1.75-32.11,26.63-58.82,58.41-58.22C6981.43-5778.26,7002.27-5755.65,7001.87-5719.52Z" transform="translate(-4226.7 7936.92)"/><path class="cls-12" d="M5688.17-5693.23c-30.72-.33-50.74-19-54.49-52.72-3.41-30.76,25.41-60.71,56.18-61.66,32.37-1,57.35,24.41,57.82,58.81C5748.12-5716.86,5725.37-5694,5688.17-5693.23Z" transform="translate(-4226.7 7936.92)"/><path class="cls-13" d="M5344.46-6248.49c.37-16.9-17.38-18.33-24.57-28.76-20.22-29.33-51.22-57-10.24-99.19-24.89,13.91-35.81,8.25-44.4-13.86-56.57-145.52-57.13-297.35-52.54-449.79.77-25.3,12-33.12,40.22-27.63,77.93,15.14,145.86,51.55,211.27,93,107.71,68.23,200.82,153.3,279.63,253.73,10.41,24.65-1.21,36.17-23.52,28.6-30.33-10.29-42.65-2.18-47.81,28.26-5.62,33.13-25.27,43.71-57.6,29.95-28.31-12-57.69-21.65-86-33.7-24.47-10.42-35.22-8-32.27,21.92,3.16,32.07,1.74,64.44.74,96.68-.91,29.35-12.47,49.39-45.68,43.44-30.16-5.4-40.17,8.27-47.71,35.53C5395.82-6240.66,5375.18-6226.1,5344.46-6248.49Z" transform="translate(-4226.7 7936.92)"/><path class="cls-13" d="M6796.28-6466c-8.07-13.38,40.44-13.06,8.55-35.33-3.41-2.38,24.93-14.88,36.65-31.6,22.89-32.66,42.23-80.68,96.65-79.26,3.32.08,8.28-4.43,9.94-8,20.55-44,65.19-63.72,98.47-94,65.84-59.89,148.79-91.22,233.83-116.19,25.23-7.41,33.11.06,39.21,24.31,20,79.32,2.89,157.95-3.37,236.3-5.57,69.68-21.09,138.29-39.48,206.32-11.31,41.85-40.37,73.52-53.07,114-5.36,17.07-10.88,29.45,6.58,40.78-64.17,30.59-85.65,18.66-111.42-61.58-1-1-1.5-3-2.59-3.39-65.58-22.68-65.07-22.67-66-96.33-.26-21.53,5.8-44-5.95-64.32-37.85-7.21-66.64,17.32-98.62,28.94-61.79,22.44-62,24.17-87.9-33.74-8.26-18.47-17.55-24.61-37.06-17.69C6812.23-6453.78,6797.22-6444.42,6796.28-6466Z" transform="translate(-4226.7 7936.92)"/><path class="cls-14" d="M5533.55-5848.17c18.82-126.29,112.13-172.15,196.21-174.82,25.44-.8,46.25,8.91,53.11,30.77,8,25.58-18.37,31.52-34.91,42.95-23.37,16.14-50.88,12.29-75.91,19.7C5622.67-5914.94,5579.38-5889.06,5533.55-5848.17Z" transform="translate(-4226.7 7936.92)"/><path class="cls-15" d="M7101.73-5859.36c-13.67,3.15-18.55-5.57-25-11.05-41.92-35.7-87.39-62.95-144.66-65.2-11.33-.45-22.82-5.61-33.57-10.17-20.56-8.7-44.42-18.36-39.17-45.84,5.54-29,33.24-35.78,55.71-30,63,16.32,132,23.36,166.27,93.58C7092.38-5905.37,7099.34-5883.46,7101.73-5859.36Z" transform="translate(-4226.7 7936.92)"/><path class="cls-16" d="M6449.33-5309.3c2.83,54.56-39,74.42-76.25,97.54-23.31,14.46-63.26,11.71-71.68,35.33-10.69,30-4.24,66.76-2.26,100.43,2.4,40.8,32.17,71.66,71.32,78,42,6.81,80.78-13.59,93.61-55.14,10.25-33.2,14-68.48,19.76-103,1.62-9.65,3.35-17.31,15-17,12.77.35,12.54,10,12.38,18.7-.88,48.92-7.79,97.15-33.57,139.34-35.45,58-128.28,64.28-175.92,10.84-17.52-19.66-21.81-24.53-42.19-1.64-60.22,67.62-162.73,43.34-192.71-42.41a295.17,295.17,0,0,1-16.55-94.64c-.14-11.12-5.9-26.53,11-28.15,16.24-1.55,15.78,13.29,16.49,25.24,1.73,29.29,6.15,58,16.11,85.92,16.95,47.44,47.94,68.64,92,62,46.19-7,74.54-38.73,77.47-86.83.18-2.93-.38-5.95.11-8.81,10.18-59.27-1.68-100.34-70.16-118.14-42.65-11.09-82.85-39.94-82-95.87C6196.7-5381.47,6358.73-5382.29,6449.33-5309.3Z" transform="translate(-4226.7 7936.92)"/><path class="cls-17" d="M7319.88-3646.7c-10.73,57.35-9.3,116.59-17,174.53-7,52.11-52.27,89.23-107.63,89.79-105.48,1.05-683.89,13.56-818.92,13-77.86-.31-124.92-37.64-137.58-114-10.49-63.24-42.66-411.07-44.26-446.94-1-22.22-4.5-42.92-18.91-60.56-45-57.93-93.06-113.57-134.49-174.31-13.76-20.18-27.76-41.43-3.88-62.41,25.79-22.67,49.64-10.64,69.37,10.49,28.11,30.11,51,64.38,73.6,99.82,1.37-51.44,11.31-63.38,60-73.06,241.39-.33,482.66-1.52,723.93-1.41,65.5,0,315.34,10.8,339.09,10.57,39.11-.38,61.79,13.83,60.21,55.82-.43,2.41-10,28.48-2.41,20.54,57.1-59.73,105.1-109.52,115.16-108.83,21.12,1.47,31.86,14.5,34.05,21.37,13,40.84-163.69,207.32-165.42,216.06C7320-3851.28,7323.08-3663.81,7319.88-3646.7Z" transform="translate(-4226.7 7936.92)"/><path class="cls-18" d="M6181.56-3772.7l52.94,1.57c44.69-1.26,78.26,25.41,113.88,46.21,17.05,10,23,28,16.18,46-9.71,25.54-28.51,44.41-56.26,49.31-18.63,3.29-38.08,1.89-57.17,2.6-23.94-3.47-47.91-6.74-71.81-10.51-15.55-2.45-26.89-9.53-26.35-27.62C6164.49-3700.5,6160.87-3739.83,6181.56-3772.7Z" transform="translate(-4226.7 7936.92)"/><path class="cls-19" d="M7280.58-3805q28.48-.55,56.93-1.14c53.22,37.5,60.19,120.7,13.7,164.15l-87-4.91q-2-41.16-4-82.33C7258.78-3756.65,7261.56-3783,7280.58-3805Z" transform="translate(-4226.7 7936.92)"/><path class="cls-20" d="M6635.2-3765.93c1.76,2.79,19.77,28.07,24.84,34.17,30.22,36.41,105.63,114,110.11,111.59,73.45-39.3,136.18-121.42,170.57-198.55,19.46-42.94,4.06-74.12-25-92.58-47.14-29.93-135.14,14.19-138.63,46.38-.05.38,0,.06,0,0-18.33-47.78-95.51-73.55-143-45.65-35.52,20.88-36.34,63.18-19.9,99.25,4.44,13.3,16.17,36.56,21,45.39" transform="translate(-4226.7 7936.92)"/></g></g></svg>