<svg xmlns="http://www.w3.org/2000/svg" viewBox="0 0 6440.17 4272.74"><defs><style>.cls-1{fill:#f9d775;}.cls-1,.cls-3{stroke:#efc848;}.cls-1,.cls-2,.cls-3{stroke-miterlimit:10;stroke-width:210.94px;}.cls-2{fill:#976850;stroke:#88583c;}.cls-3{fill:none;}</style></defs><g id="Livello_2" data-name="Livello 2"><g id="Livello_7" data-name="Livello 7"><path class="cls-1" d="M9583.41-1081.9c-39.56-60.53-98.41-82.44-167.71-89.1-115.67-11.11-213.09,33.36-307.77,91.7-439.16,270.75-899.54,496.53-1393.75,648.61-481,148-972,210.61-1472.41,139.32C5712.84-366.71,5240.11-580.28,4856.17-952c-462.95-448.27-859.63-939.61-865.21-1636.44-1.34-169.63-34.12-185.77-200.46-170.92-49.12,4.39-96,16.21-140.26,38.19-16.19,5.4-33.2,9.12-48.48,16.46-172.65,83.07-188.82,138.25-69.44,286.24,91.77,113.8,134.72,236.48,119,382.92-17,158.58-65.35,308-118.31,456.7-57.06,160.2-103,322.56-107.73,494.2C3414.81-705,3531.72-362,3751.94-60c512.27,702.38,1199.32,1138.78,2056.31,1292.7,476.15,85.5,956.92,89.79,1433.35-2.26C8092.69,1066,8776.71,631.82,9285-71.21c156.53-216.48,306.24-440.31,357.34-710.66C9662.34-887.78,9664.14-993.95,9583.41-1081.9Z" transform="translate(-3319.21 2869.16)"/><path class="cls-2" d="M4198.29-1769.42c11.13,8.85-201.82-505-209.35-819.06-4.07-169.59-34.12-185.77-200.46-170.92-49.12,4.39-96,16.21-140.26,38.19-16.2,5.4-33.2,9.12-48.48,16.46-172.66,83.07-188.82,138.25-69.45,286.24,91.78,113.8,135.91,236.61,119.06,382.92-14.89,129.32-76.15,359.44-85.19,361C3501.11-1663.48,4180.63-1783.46,4198.29-1769.42Z" transform="translate(-3319.21 2869.16)"/><path class="cls-3" d="M3936.09-1079.14c253.7,757.23,952.73,1393.43,1845.44,1539.77,477.39,78.26,959.73,103.31,1433.35-2.26C8051.08,272,8488.8,124.85,9018.79-546.21" transform="translate(-3319.21 2869.16)"/></g></g></svg>