<svg xmlns="http://www.w3.org/2000/svg" viewBox="0 0 4117.72 2423.12"><defs><style>.cls-1{fill:#fcf5eb;stroke:#e7e2d9;stroke-miterlimit:10;stroke-width:98.01px;}</style></defs><g id="Livello_2" data-name="Livello 2"><g id="Livello_7" data-name="Livello 7"><path class="cls-1" d="M1361.28,1847.87c-119.15,1.24-254.09-1.57-388.4-16-146.75-15.83-290.35-43.7-425.7-100.72C329,1639.19,188.3,1484.45,114.67,1275.42,77.27,1169.25,56.91,1060,49.93,949c-5.87-93.47,16.45-183.19,56.44-268.6,83.95-179.3,208-330,383.77-440.79C608.93,164.72,743,121.39,882.09,91.08,1014,62.34,1147.85,49.57,1283.47,49c211.75,12.53,621,8.8,840.64,47.17,294.29,89.7,712.18,681.1,645.57,724.63-1.61-7.1,30.23,132.51,28.33,207.14-4.54,98.94-19.14,196.12-53.11,290.29-72.57,201.22-221,335.33-431.22,414.77-125.29,47.35-256.38,72.59-389.94,88.68C1742.31,1843.54,1559.86,1847.5,1361.28,1847.87Z"/><path class="cls-1" d="M2628.28,2374c-119.36.44-254.54-.54-389.08-5.62-147-5.55-290.86-15.31-426.45-35.29-218.59-32.2-381.18-61.23-454.94-134.46-37.46-37.2-31.35-287.55-38.35-326.47-5.88-32.75,31.59,9.67,71.65-20.25,84.11-62.82,188.4-2.59,364.5-41.39,119-26.22,253.33-41.4,392.64-52,132.12-10.07,266.22-14.55,402.08-14.74,212.13,4.39,622.06,3.08,842.13,16.52,294.8,31.43,736.14,96.5,669.41,111.75-2.43-6.17.51,201.14,5.66,214.71-4.54,34.66-19.17,68.71-53.19,101.7-72.71,70.5-221.39,117.49-432,145.32-125.51,16.59-256.84,25.43-390.63,31.07C3010,2372.51,2827.21,2373.9,2628.28,2374Z"/><path class="cls-1" d="M3193.27,1566.14c133.56,5.64,264.65,14.48,389.94,31.07,210.22,27.83,358.65,74.82,431.22,145.32,34,33,48.57,67,53.1,101.71,1.91,26.14-29.93,75.06-28.32,72.57-21.88,29.3-360.66,223.94-645.57,253.88-219.68,13.44-628.89,12.14-840.64,16.53-135.63-.2-269.49-4.67-401.38-14.74-139.06-10.62-273.16-25.8-391.95-52-175.79-38.81-299.82-91.62-383.78-154.44-40-29.92-62.3-61.36-56.43-94.11,7-38.92,27.34-77.18,64.74-114.38,73.63-73.23,214.3-127.45,432.51-159.65,135.35-20,278.95-29.74,425.7-35.29,134.31-5.07,269.25-6.06,388.4-5.62C2829.39,1557.1,3011.84,1558.49,3193.27,1566.14Z"/></g></g></svg>