<svg xmlns="http://www.w3.org/2000/svg" viewBox="0 0 3968.82 5877.88"><defs><style>.cls-1{fill:#b5aeae;}.cls-2{fill:#848080;}.cls-3{fill:#f8f7f7;}.cls-4{fill:#a07954;}.cls-5{fill:#836e53;}.cls-6{fill:#fffefe;}.cls-7{fill:#9e896e;}.cls-8{fill:#936045;}.cls-10,.cls-11,.cls-12,.cls-9{fill:#e9a9a7;}.cls-10,.cls-11,.cls-19,.cls-9{stroke:#e4928d;}.cls-10,.cls-11,.cls-13,.cls-19,.cls-22,.cls-24,.cls-25,.cls-26,.cls-27,.cls-9{stroke-miterlimit:10;}.cls-13,.cls-19,.cls-22,.cls-9{stroke-width:68.66px;}.cls-10{stroke-width:39.09px;}.cls-11{stroke-width:42.91px;}.cls-13,.cls-22{fill:#f5eed6;}.cls-13{stroke:#f9e9c1;}.cls-14{fill:#f5ca49;}.cls-15{fill:#2e2824;}.cls-16{fill:#302721;}.cls-17{fill:#d35847;}.cls-18,.cls-19{fill:#f1cbc8;}.cls-20{fill:#cb7a68;}.cls-21{fill:#ce786b;}.cls-22{stroke:#f8e9c1;}.cls-23{fill:#f6cb49;}.cls-24{fill:#78757a;}.cls-24,.cls-25,.cls-26,.cls-27{stroke:#676666;stroke-width:21.46px;}.cls-25{fill:#797b7a;}.cls-26{fill:#78797a;}.cls-27{fill:#797877;}</style></defs><g id="Livello_2" data-name="Livello 2"><g id="Livello_7" data-name="Livello 7"><path class="cls-1" d="M3966.55,4380.76c2,16.94-11.25,26.48-26.92,33.8-26.87,12.55-55.76,15.51-84.8,14.85-67.81-1.53-133.48-14.28-196-41.14-20.89-9-20.77-9.42-29.87,11.46-37,85-73,170.43-117.27,252-67.47,124.37-146.44,240.9-239.13,347.88-34.88,40.26-73.65,76.62-118.33,106-28.34,18.66-58.88,31.34-93.7,30.36-8.47-.24-16.75-1.16-24.89-4.05-23.19-8.25-29.5-24.76-17.15-46.24,9.88-17.17,25.82-27.41,42.9-35.78a287.3,287.3,0,0,1,35.74-14.42c68.28-22.81,121.94-66.33,167.64-120.14,111.29-131,205.87-273.08,279-429,20.62-44,42.14-87.51,62.68-131.52,10.41-22.31,13-47.19,21.63-70.21,15.37-41.07,33.73-80.22,68.74-108.6,40.54-32.86,87.22-36.28,136.08-26.12,96.5,20.05,132.6,96.21,135.66,180.46A315.72,315.72,0,0,1,3966.55,4380.76Z"/><path class="cls-2" d="M3952.24,4361c-104.39-38.12-210.79-46.28-320.62-32.62,3.15-18.6,10.54-37.5,18-56.26,10.74-27,24.42-52.44,45.16-73.4,28.09-28.39,62.48-40.05,101.85-37.71,30.46,1.82,59.82,8.16,86,24.87,42.29,27,60.66,68.25,67.65,115.84C3953.23,4321.85,3954.54,4342.2,3952.24,4361Z"/><path class="cls-2" d="M3053.2,5119.75c-10-1.95-21.39-1.34-24.46-11.89-3-10.27,4.72-18.17,11.68-25a109.29,109.29,0,0,1,45.44-26.66c89.84-27,155.22-86.25,213.27-156.84,119.91-145.81,215.71-306.17,293.16-477.92,7.42-16.44,15.52-32.58,23.33-48.85,1.42-2.95,1.76-8.51,6.53-6.2,4.24,2.06,1.12,6.45-.23,9.58-18.62,43.09-37.15,86.21-56,129.18q-113.4,258.15-295.55,473.4c-37.21,44.1-78.45,84.24-127.28,115.69C3115.47,5112,3085.94,5123.69,3053.2,5119.75Z"/><path class="cls-2" d="M3824.89,4345.21c34.32,4.37,66,10,96.41,21,8,2.87,15.75,6.19,22.48,11.39,8,6.22,8,11.18-.57,16.95-16.77,11.34-36,15.74-55.69,17.7-51.9,5.16-102.77-1.91-153-14.63-30.77-7.79-61.07-17.15-88.66-33.4-6-3.53-15.68-6.83-14.14-14.35,1.19-5.82,11.13-6.21,17.71-7.49,34.62-6.72,69.61-5.48,104.53-4.07A581.31,581.31,0,0,1,3824.89,4345.21Z"/><path class="cls-1" d="M3076.61,5105.92c-14.32-2.09-17.77-10.12-9.84-18.95,14-15.64,32.38-22.82,53.12-24.09,5.11-.31,9.51,1.86,11.91,6.58,2.33,4.56.36,8.77-2.72,12.09A74.15,74.15,0,0,1,3076.61,5105.92Z"/><path class="cls-1" d="M3802.39,4401.54c-54.51-7.5-102.18-22.75-148.5-42.58-3.35-1.43-9.79-1.76-7.76-7,2.35-6.08,7.75-1.51,11.13-.08,51.66,21.93,104.83,38.33,160.92,43.65,36.21,3.44,72.19,2.55,107.11-9.34,3.14-1.07,6.45-3.19,7.9,1.3,1.34,4.14-2.5,5.33-5.51,6.43-24,8.82-49.17,11-74.47,11.43C3834.69,4405.68,3816.29,4403.62,3802.39,4401.54Z"/><path class="cls-3" d="M3115.41,5071.23c5.07-.06,7.2.16,7.87,2.47s-1,3.71-2.48,5.07a70.5,70.5,0,0,1-43.15,19.14c-2.13.19-5.2.72-6-2.3-.31-1.19.63-3.22,1.64-4.21C3085.82,5079.15,3100.92,5072.51,3115.41,5071.23Z"/><path class="cls-4" d="M425.17,4520.31c1.87,1.89,2.34,2.64,3.06,3.41,6.1,4.49,10.75,10.76,16.13,16,8.24,8,17,15.51,25.26,23.49,1,.95,2.23,1.74,2.69,3.13-2.09.4-1.62,1.39-.19,2.79,3.55,3.47,7,7,10.55,10.51.69.69,1.36,1.6,2.46,1.25.09-1.6-1.21-2.54-2.2-3.66-1.81-2.07-4.29-3.57-5.53-6.13,1.36,0,2.12,1.24,3,2.06q19,17.58,38,35.19,22.68,20.92,45.43,41.78c13,11.91,26.06,23.74,39.06,35.64,14.52,13.29,28.89,26.74,43.54,39.88,18.16,16.29,36,32.91,54,49.43,18.33,16.87,36.76,33.65,55,50.61,16.48,15.3,33,30.51,49.42,45.93,8.46,8,11.67,16.7,11,26.66-.72,10.92-5.26,19.67-11.2,27.61-1,1.28-1.14,3.37-3.15,3.72-2.9-2.4-6.65-3.24-9.09-6.62a63,63,0,0,0-12.85-12.93c-3.81-2.94-7.44-6.21-11.15-9.19-4.82-3.88-9.21-8-14.86-10.46-2-.88-3-.66-3.73,1-1.65,3.87-5.52,3.8-8.77-.08a6.13,6.13,0,0,0-1.09-1.07c-1.11-.77-2.42-1.28-3.09-.22s.34,2.06,1.38,2.63a16,16,0,0,1,3.79,3.15c1.52,1.62,3.05,2.21,4.73,1.29,1.91-1,3.6-.4,5.28,1.54a16.5,16.5,0,0,0,3.43,3c7.31,4.83,15,9.45,21.12,15.71,6.56,6.69,13.83,11.56,21.62,15.95-8.63,8.57-17.45,17-30.91,18.7a18.71,18.71,0,0,1-16.51-5.77c-16.67-17.17-33.45-34.24-49.92-51.61q-13.73-14.46-27.32-29.06c-10.1-10.85-20.32-21.6-30.44-32.44-9.5-10.18-19.37-20-28.84-30.26-11.9-12.86-24.25-25.31-36.16-38.15-18.27-19.67-36.85-39-55.19-58.63-10.58-11.3-21.38-22.39-31.91-33.72-15.84-17-32.16-33.65-48.11-50.59-15-15.07-30.09-31.7-43.69-46.32a20.56,20.56,0,0,0-3.67-3.14,7.26,7.26,0,0,0-1.8-2.06c-2.44-2.29-4.33-5.21-6.44-6.82l-1.39-1.49c-.59-.94-2.17-2.65-3-3.62-9.06-9.4-18.3-18.63-27.15-28.21a460.14,460.14,0,0,0-37.12-36,326.64,326.64,0,0,0-36.06-27.36c-9.42-6.11-18.78-12.33-28.78-17.19-15.11-7.33-30.14-14.88-45.53-21.29-12-5-23.84-10.35-35.77-15.52-12.46-5.4-24.93-10.76-37.23-16.78a306.64,306.64,0,0,1-44-25.94A252.19,252.19,0,0,1,45.34,4327c-.79-.95-1.93-1.77-1.89-3.12,1.85,1.15,3.64,3.59,5.47.85,1.51-2.27-.47-3.88-1.74-5.6-5.81-7.9-9.13-17.19-16.68-24.13-.86-.79-.95-2.47-1.4-3.73-1.49-4.16-3.38-1.51-5.14-1.32-2.66.28-1.14,2.09-.53,3.37,1.48,3.08,4.22,4.89,7,6.74,1.77,1.19,4,2.63,3.54,4.82s1,3.81,1.9,5.77c1.66,3.62,3.2,7.11,6.37,9.92.58.51.41,1.35.2,2-2.3-1-3.17-3.28-4.49-5-9.8-13-18.56-26.56-24.81-41.13C3,4252.8-2.4,4229.08,1,4206c4.35-29.16,17.57-52,43.09-65.24,10.32-5.35,22.08-7.31,34.48-7.61A6,6,0,0,1,82,4134a17.78,17.78,0,0,1-8.42.73c-.69-.13-1.45-.33-1.87.27a.94.94,0,0,0,.4,1.24c2.6,1.64,3.88,6.72,8,4.39.25-.14.91.2,1.31.46,2.88,1.92,3.93.42,4.84-1.64.55-1.24.2-2.89,1.5-3.8-1.4-.55-2.63-.45-3.6-1.47,3.8-2.25,8.54-.49,12.78.1a156.57,156.57,0,0,1,31,7.6,3.8,3.8,0,0,1,.88.67c-5.62.56-11.15-3.84-17.43-4.17a33,33,0,0,1,2.64,2.66c4.47,6,9.74,9.49,16.61,8.24a2.59,2.59,0,0,1,2.33.82c1.21,1.26,2.23,1.54,3.15.28s0-2.22-.88-3.42c-1.56-2.13-4-2.46-5.82-4.1,7.89,1.79,15.37,5.54,22.84,9.16a216.53,216.53,0,0,1,45,29.33,248.91,248.91,0,0,1,41.07,44.71c8.44,11.65,15.82,23.74,23,36,6.15,10.55,11.24,21.45,16.63,32.25,6.45,12.94,11.87,26.15,17.66,39.27,3,6.68,6.08,13.32,9.06,20,.74,1.67,1.82,3.32,1.69,5.12a15.86,15.86,0,0,0-2.6-1.32c-2-.71-4.34-2.65-4.34-4.25,0-3.08-1.76-4.33-3.91-6.07s-3.55-2.3-5-.5-2.56,3.64.59,6.05c.81.62,2.55,1,2.28,2.17-1.06,4.81,3.05,6.68,6.11,9s7.18,1.39,8.54-1.65c3.22,6.43,6.55,12.82,9.61,19.3a262.4,262.4,0,0,0,12.85,23.6c4.68,7.72,9.5,15.37,14.67,22.86q11,15.93,23.43,30.93c9.85,11.84,19.67,23.74,30.39,34.88,7.63,7.92,15.4,15.7,23.13,23.53,1,.82.83,1.38,3.06,3.13m180.66,224.36c1.64,2.81,5.74,4.19,8.86,6.91.84.74,1.91,2.15,2.7,1.36,1.15-1.16-.8-2-1.51-2.75-4.32-4.81-9.42-8.85-13-14.49-1.73-2.76-4.34-5.87-7.75-7-7.48-2.55-12.13-8.63-17.11-14.34-.84-1-1.21-1.81.61-1.92,1.56-.09,1.47-1.81.27-2.52-3.12-1.82-5-5.15-8.21-6.79-1-.48-1.82-1.26-2.28-.1-.56,1.42-1.26,2.17-3.07,1.09-2.19-1.31-5.51-3.25-5-5.07.91-3.46-1.37-4.19-3.36-6.15-6.29-6.17-13.27-11.59-19.19-18.14a23.76,23.76,0,0,0-7.17-5.5,13.6,13.6,0,0,1-6.71-6.86,5.66,5.66,0,0,0-5.63-3.4c-1.11,0-2.63.3-2.85,1.65-.19,1.15.69,2.31,1.71,3.15,2.14,1.79,4.29,3.57,6.5,5.25a106.94,106.94,0,0,1,12.1,10.74c4.06,4.18,8,7.87,13,10.58a14.38,14.38,0,0,1,5,4A1.39,1.39,0,0,1,554,4696c-.39.54-1.11.28-1.56-.08-3.67-2.94-8.59-3.87-11.39-8.19-1.15-1.78-2.89-2.66-4-1.65-1.28,1.18.65,2.56,1.63,3.77,2.19,2.7,6.23,4.41,5.74,8.6,0,.27.5.81.86,1.11a20.14,20.14,0,0,0,7,3.53c2.75.77,4.86,3,7.57,3.35a2.83,2.83,0,0,1,2.46,2.5c.12,1.6-1.32,1-2.26,1-.72,0-1.43.11-1.48.92a1.93,1.93,0,0,0,1.21,1.75c2.69.61,5.8,2.79,8,1.29s3.73-.36,5.61.89c5.18,3.46,9.08,8.35,13.55,12.62.6.58,1.61,1.31,1,2.1-.8,1.07-1.56-.21-2.31-.75s-1.58-2.22-2.59-1.16c-.82.85.4,2.05,1,2.85,2,2.69,5.21,4,7.33,6.63.64.8,1.45,2.14,2.63,1.65s.38-1.75.14-2.77c-.17-.77-.62-1.81.31-2.11s1.54.72,2,1.35C599,4738.42,602.39,4740.73,605.83,4744.67Zm-45.26-24.09a210.75,210.75,0,0,0-24.76-22.14c-1.13-.88-2.24-1.67-3.08-.76-1,1.07.67,1.81,1.33,2.55,4.08,4.61,9.36,7.84,13.7,12.09,7.76,7.59,15.59,15.07,23.75,22.2a2.92,2.92,0,0,1,1,2.56,6.16,6.16,0,0,0,6.27,6.37,5.2,5.2,0,0,1,5.11,3.57c3.75,9.19,10.78,15.95,17.87,22.73.91.88,2.15,2,3.09,1.22s-.34-1.85-1-2.69-1.22-1.83-.44-2.5c1.1-1,1.85.46,2.63,1.15,2.25,2,3.52,4.75,6.2,6.63,4.76,3.34,8.81,7.72,13.41,11.39,3,2.39,5.32,5.78,7.76,8.85,1.27,1.6,2.36,1.85,3.42.79.59-.59-1.94-6.33-3-6.66-3.69-1.16-5.5-4.12-7.43-7.13-1.4-2.21-2.93-4.72-5.72-5a6.9,6.9,0,0,1-4.74-2.52c-5.08-5.6-11.61-9.36-17-14.54-2.29-2.2-6.39-3.47-6.84-6.27-.77-4.76-4.43-7-7.18-10.18-.88-1-2.22-1.76-2-3.35.42-3.1-2-5.84-4.05-7.35-4.23-3.12-8.27-5.77-8.6-11.34-.06-1.19-1.67-1.76-2.54-1.85-1.36-.13-.72,1.24-.62,2.08.61,4.9,3.47,8.48,7.91,11.11.68.4,1.94.45,1.65,1.58s-1.41.76-2.35.55c-1.16-.26-1.86-1.26-2.67-2.05C568.32,4728.35,565,4725,560.57,4720.58Zm72.23,28.14c4.27,3.59,8.26,7.76,12.88,10.58a50.85,50.85,0,0,1,11,8.44c.7.74,1.65,2.26,2.58,1.26s-.69-1.8-1.35-2.61c-2.52-3.1-5.94-5.16-8.78-7.9-1-1-1.18-2-.64-2.86a1.82,1.82,0,0,1,2.76-.1c5,4.46,11.3,7.78,13.61,14.73a5.5,5.5,0,0,0,3.43,3.33c1.88.53,1.92-1.67,2.8-2.55,1.14-1.14-1-2.15-1.82-3-3.54-3.69-7.58-7-10.72-11a64.38,64.38,0,0,0-14.17-13.13c-1-.71-1.64-1.35-2.53-.21-2.45,3.11-8.11,2.75-11.62-.58a13.2,13.2,0,0,0-2-1.74c-8-5-14.41-12.06-20.1-19.15-5.22-6.49-12.48-9.34-17.82-15.07a3,3,0,0,0-1.34-.61c-.72-.2-1.71-1.06-2,.07-.26.86.44,1.45,1.19,2.07,3.27,2.71,6.61,5.37,9.72,8.27,6.72,6.26,13.31,12.66,20,19a8.31,8.31,0,0,0,1.48,1.19C624.34,4740.23,628.37,4744.75,632.8,4748.72ZM780.37,4940c.55-.71.14-1.1-.12-1.49-3.09-4.61-7.18-8.19-11.52-11.58-4.78-3.73-9.29-7.86-14.14-11.46-4.37-3.25-9.09-5.92-12.82-10.09a13,13,0,0,0-3.22-2.58c-5-2.91-10-5.63-14.59-9.64-2.94-2.6-5.86-5.38-9.42-7.47-2.7-1.59-6.13-2.56-8.12-5.13-2.9-3.73-7.23-5.51-10.19-9.06a2.66,2.66,0,0,0-3.53-.6,1.92,1.92,0,0,0-.67,2.66c.93,1.86,2.18,4.14,4,4.75a25.51,25.51,0,0,1,11.36,7.67c1,1.12,2.34,1.34,3.58,1.9a9.23,9.23,0,0,1,5.48,5.77,9.73,9.73,0,0,0,7.55,6.71,17.84,17.84,0,0,1,3.42,1c4,1.41,6.72,4.86,10.13,7.17,5.29,3.58,10.83,6.73,16,10.47,7.64,5.49,14.28,12.5,22.49,17.19C777.65,4937.09,778.65,4939.11,780.37,4940ZM501.42,4655.3c2.26,1.67,3.83,4.15,5.71,6.39.8,1,2.31,1.94,3.09,1,1-1.2-.82-1.57-1.58-2.23s-1.67-1.58-2.54-2.32c-4.06-3.43-6.32-8.36-10.17-11.82-6.61-5.95-11.88-13.13-18.65-18.95a139.55,139.55,0,0,1-15.09-15.74c-.7-.84-1.68-2.56-2.86-1.61s-.64,2.66.69,3.69c2.59,2,2.89,6.56,7.22,6.66.32,0,1,1.36,1.32,2.13.47,1.06,1.08,2.36,2.05,2.61,3.47.87,4.32,3.36,4.91,6.14.28,1.3,1.41,2.05,2.26,3a36.64,36.64,0,0,1,4.8,5.43c1.19,1.91,2.18,3.18-.74,3.48-1.54.16-1.78,1.4-.31,2.78a57.27,57.27,0,0,1,6.82,7.71,6.08,6.08,0,0,0,3.79,2.21c.69.16,1.51.65,1.89,0s-.45-1.26-.92-1.81c-1.5-1.71-3.57-3-4.37-5.21-.42-1.18-.94-2.53.06-3.21s2.33.13,3.17,1.07C494.8,4649.86,498.68,4651.77,501.42,4655.3Zm154.46,161.47c2.57,3.83,7.3,5.13,11.22,7.8.73.5,1.62,1.73,2.33.55.5-.85-.54-1.49-1.11-2.1-2.08-2.24-4.93-3.55-6.86-6-.7-.89-1.85-1.83-.93-2.72s2.06.12,2.7,1c2.32,3.25,6.4,3.83,8.86,6.9.75.92,2.2,1.24,2.84.48s-.62-1.67-1.27-2.29a89.76,89.76,0,0,0-12.07-9.21c-2-1.39-5.29-3.76-4.69-4.79,1.54-2.64-.52-4.59-1.32-6.77-.93-2.51-3.42-3.5-5.33-2.3-3.16,2-3,4.52.49,7.3a20.1,20.1,0,0,1,2.19,2.14c1,1,1.35,1.94-.32,2.12-3,.33-1.94,2.22-.63,3.93A48.8,48.8,0,0,0,655.88,4816.77Zm-12.57,14.37-.41.42c3,3,6.22,5.72,8.84,8.93,6.18,7.59,13.56,13.75,21.16,19.71,1,.81,2.92,1.64,2.2-.87-.57-2-.09-2.43,1.75-2.38,2.7.07,1.86-1.27.41-2.79-3-3.15-6.79-5.07-10.21-7.56-5.54-4.05-12.39-5-17.61-10C647.46,4834.74,645.36,4833,643.31,4831.14Zm95.67,3a29.39,29.39,0,0,0-6.26-7.91c-3.42-3.41-7.45-6.3-10.51-9.95a37.21,37.21,0,0,0-7.91-7.56c-1.72-1.12-4.08-3.78-5.42-1.44-.94,1.64,1.86,3.27,3.32,4.37,4.88,3.69,9,8.2,13.23,12.52A44.83,44.83,0,0,0,739,4834.11Zm-21.76-40.92c-3.19-1.82-5.38-6.75-9.9-4.57-1,.48-2.13-.81-3.12-1.66-5.28-4.55-9-11.3-16.35-12.95-1.51-.34-2.73-4-4.05-2.3-1,1.23,2.15,2.86,3.34,4.38a5.4,5.4,0,0,0,1.45,1.24c5.08,3.07,9,7.45,12.46,12.11,1.71,2.31,3.06,2.63,5.06,2.12,2.63-.67,5.21-1.63,8,1.45A2.48,2.48,0,0,0,717.22,4793.19Zm-111.56-32.91c1.26,1.09,3.46,3,5.67,4.87,1.11.94,2.31,3,3.48,2.28,1.5-1,3.55-1.87,3.4-4.44-.13-2.05-1.17-3.74-3.15-4-4.49-.51-7.72-3.52-11-6.52-1.44-1.33-2.75-2.14-4.46-1.72-1.15.28-2,.81-.55,2C601.35,4754.76,602.57,4757.47,605.66,4760.28Zm-177.5-204.95c-2-1.74-3.65-4.75-6.56-4.2-1.6.3-2.88.72-4.54-.47-.48-.35-1.2-.48-1.5.1s.3,1.08.71,1.53c1.19,1.31,2.76,2.47,3.54,3.94,2.86,5.37,7.67,6.68,12.45,8,1.16.32,1.64-.59,1-2A17.43,17.43,0,0,0,428.16,4555.33Zm-117-174.59c-.78-4.48-3.47-7.9-5.42-11.55-.57-1-1.79-1.57-2.4-.93-2.52,2.64-4.35.19-6.34-1.82a21.26,21.26,0,0,0-2.82-2.57,2,2,0,0,0-2.56-.07,1.87,1.87,0,0,0,.08,2.28c1.58,2.12,3.29,4.17,5,6.2.73.85,1.83,1.29,2.53.63,2.29-2.14,3.46,0,4.87,1.92C305.88,4377.24,307.7,4379.71,311.14,4380.74ZM536.8,4627.52c-2-2-4-4-6.78-2.65-.72.35-1.58-.16-2.37-.52s-1.65-1.22-2.08-.19.69,1.6,1.47,2.2c2.19,1.69,5.12,3.06,6.39,5.18,2.48,4.16,6.78,5.53,9.84,8.63a1.64,1.64,0,0,0,1.94.52,1.11,1.11,0,0,0,.09-1.79C541.77,4635.54,540.37,4630.83,536.8,4627.52Zm141.79,177.32c-1.9-1.9-3.8-3.81-5.71-5.7-1.18-1.16-2.5-2.75-3.85-1.27s.65,2.67,1.64,3.41c6.14,4.63,10.81,10.4,15,16.71a28,28,0,0,0,4.28,4.37c.93.89,2,1.31,2.74.34s0-1.69-1.07-2.54c-2.07-1.61-4.52-3.16-5.08-5.86a7.62,7.62,0,0,0-2.49-4C682.19,4808.47,680.39,4806.65,678.59,4804.84Zm1.58,25.54c3.57,3.6,7.55,4.59,9.94,2.57,1.45-1.22,2.73-2.23,5-1.18a1.43,1.43,0,0,0,1.25-.09c.38-.29.05-.79-.25-1.23-2.7-3.95-9.38-5.67-12.25-3-1.14,1-2.08,1.28-3.45-.24-.5-.56-1.16-1.19-1.84-.74s-.28,1.47.15,2.18A12.12,12.12,0,0,0,680.17,4830.38ZM438.6,4546.18c-.64-.63-1.31-1.23-1.89-1.9-1.48-1.71-3.25-2.57-5.11-2.23-.9.16-2,1-1.61,2.09.61,1.78,2.24,3,3.85,4,.11.06.23.09.34.15a19.66,19.66,0,0,1,8.1,7.76,20.28,20.28,0,0,0,3.78,4.73c.92.83,2,2.16,3,1.05.83-.9-.34-1.88-1.09-2.74-1.09-1.23-2.88-2.16-3.18-3.7C444,4551.52,441.28,4548.91,438.6,4546.18ZM130.43,4295.93c9.91,8.48,17.84,19.1,28.53,26.73-1.47-2.3-1.49-5.26-4.12-6.8-5.3-3.13-9.38-7.7-13.65-12C138,4300.57,133.9,4298.8,130.43,4295.93Zm597.88,544.42c-2.58-2.28-4.19-5.07-7-6.27-4.16-1.76-7.23-5.79-11.64-7a3.9,3.9,0,0,1-1.8-1.28c-.65-.84-1.31-1.94-2.2-1.2s.44,1.69.84,2.49a12.06,12.06,0,0,0,1.68,2c5.21,6.2,13.05,6.82,18.93,11.61C727.2,4840.81,727.48,4840.63,728.31,4840.35ZM310,4474.6c-1.29-2.62-3.42-4.43-5.44-6.34-.8-.76-2.07-.95-2.5-2.19-1.89-5.49-7.05-8.78-10.32-13.35-.85-1.18-2.49-2.61-3.57-1.57s.06,2.66,1.36,3.68c3.42,2.65,5,7.11,9,9.16a5.06,5.06,0,0,1,1.75,2C302.62,4470,306.93,4471.55,310,4474.6Zm-89.43-45.18a13.22,13.22,0,0,0-1-1.73c-5.39-5.9-10.93-11.67-16-17.84a27.07,27.07,0,0,0-3.53-3.49c-.91-.77-2.15-1.1-2.88-.36-.9.89.06,1.89.87,2.72a10,10,0,0,0,1.43,1.26,49,49,0,0,1,9.21,9C211.93,4422.79,215.26,4426.72,220.59,4429.42Zm472.26,365.7c1.26,2.12,3.56,2.27,5.26,3.54.83.62,1.76,1.45,2.48.68a2.73,2.73,0,0,0,.76-3c-.8-2.31-6.69-6.49-8.64-5.78-1.72.63-2.78-.05-4-1.36-1-1-2-2-3-2.94-.59-.56-1.4-1-1.91-.57-.86.73.28,1.36.73,2C686.7,4790.9,691,4791.52,692.85,4795.12ZM452.32,4577c-3.11-6.34-7.42-12-11.45-17.83-.07-.1-.19-.17-.27-.27-1.46-1.6-2.22-1.25-2.49.43a5.6,5.6,0,0,0,.77,3.38C441.83,4568.78,447.6,4572.32,452.32,4577ZM174.94,4320c0-.5.05-.82-.05-.91-5.39-4.47-9.56-10-14.28-15.1a15.29,15.29,0,0,0-5.44-4c-.69-.26-1.45-.59-1.92,0s-.12,1.52.53,2.19a9.1,9.1,0,0,0,2,1.74c4.89,2.77,9,6.15,11,11.65.45,1.29,1.63,2.76,2.83,2.79C171.44,4318.43,173.13,4319.43,174.94,4320Zm154.32,90.22c-1.12-1.19-2.73-2.81-4.3-1.48-1.42,1.21-.76,3,.46,5,1.89,3.09,4.73,4.88,7.3,7.09,1,.83,2,1.46,2.77.56s-.37-1.69-1-2.37a4.6,4.6,0,0,1-1.31-2.59C332.76,4414,331.28,4412.17,329.26,4410.22Zm85.81,159.37c-2.2-1.69-4.31-4.16-6.62-4.85-2.55-.77-.07,3-1.58,3.78-.95.49-2.12.87-1,2.48a2.52,2.52,0,0,0,3.43,1c1.71-.89,3,0,4.26,1.46.84,1,1.79,1.82,2.71,2.72.46.44,1,.91,1.58.67s.6-.82.34-1.43C417.34,4573.45,417.2,4571.16,415.07,4569.59ZM75.63,4264.71a6.17,6.17,0,0,0,3,3.89c2.59,1.75,5.29,3.31,8,4.84,1.54.88,3,3.91,4.72,2s-1.59-3.1-2.35-4.72-2.25-3.69-4.49-3.21C81.31,4268.18,78.44,4267.51,75.63,4264.71Zm603.94,551.5c-4.52-3.32-9.38-6.67-13.35-11.15a5.9,5.9,0,0,0-1.61-.93c-.43-.23-.88-.59-1.27-.22s-.29,1.05.09,1.56a23.61,23.61,0,0,0,1.78,2c3.86,4.08,8.84,6.72,12.69,10.84,1.22,1.29,3.6,3.36,4.4,2.37C683.56,4819.11,680.48,4818.05,679.57,4816.21ZM142.3,4275.72l0,0c-2.25-2.25-4.48-4.52-6.77-6.73-.54-.53-1.29-.85-1.83-.26-.38.42,0,.93.38,1.22,4.53,3.69,8.36,7.86,10.53,13.23.12.3.51.55.79.82,1,.94,2.13,2.37,3.31,1.35s.59-2.65-.71-4C146.1,4279.49,144.2,4277.61,142.3,4275.72Zm-39.52-21.11c-1.18-.27-1.86-2.83-3.07-1.75s1,2.14,1.65,3.23c2.28,3.65,5.73,6.41,8.27,9.88,1.22,1.67,2,3.85,4.25,4.71.63.25,1.3,1.16,1.89.6s0-1.45-.52-2.17C111.44,4264.06,106.52,4259.91,102.78,4254.61Zm652.69,576.9a63.39,63.39,0,0,0-12.79-11.59c-.63-.46-1.36-1.58-2.11-.87s-.08,1.82.47,2.57A24.58,24.58,0,0,0,755.47,4831.51ZM307.73,4386c.67,2.08,2.46,3.19,3.76,4.69,1.83,2.1,4.59,3.61,5.52,6.21,1.11,3.13,4.06,4,6,6.1a.93.93,0,0,0,1.26.18c.51-.41.3-.95-.1-1.52A61.94,61.94,0,0,0,307.73,4386Zm406.92,435.46c2.4,3.52,10.11,11.09,13.49,13.44.77.54,1.52,1.77,2.39.92s.24-2-.69-2.75q-6.63-5.59-13.35-11.09C716.16,4821.72,715.62,4821.73,714.65,4821.47ZM526.2,4685.29c.94.44,1.53,2.73,3.21,1.79,1.36-.76.66-5.79-.82-7.38s-2.78-1.89-4.09-.51C522.47,4681.34,523.89,4683.22,526.2,4685.29Zm113.58,47.9c-1.6-1-2.91-4.47-5.07-2.71-1.88,1.52,1.35,3.18,2.12,4.78,1,2.05,3.22,3.17,5.28,4,.52.22.86-.49.91-1.09C643.22,4735.94,641.22,4734.81,639.78,4733.19ZM173.45,4165.51c3,3.3,5.9,5.63,7.44,9.08a7.89,7.89,0,0,0,3.85,3.53c.62.28,1.3,1.16,1.89.58s0-1.42-.5-2.18C183.22,4171.7,178.88,4168.59,173.45,4165.51ZM676,4788.05l0,.05c-.91-.9-1.77-1.85-2.72-2.69a1.74,1.74,0,0,0-2.5-.18c-.84.77-.38,1.59.44,2.4a25.61,25.61,0,0,0,3.88,3.66c1.2.73,2.67,3,4,1.54,1.44-1.58-1.14-2.48-1.94-3.69A7.77,7.77,0,0,0,676,4788.05ZM165.87,4340.91l-.05.05c1.35,1.34,2.67,2.72,4.06,4,.65.62,1.5,1.16,2.16.5s-.2-1.28-.53-1.89c-2-3.73-6-5.34-8.71-8.29-.4-.43-.94-.46-1.2-.08a1.32,1.32,0,0,0,.25,1.62C163.15,4338.24,164.52,4339.56,165.87,4340.91Zm623.87,520.4c2.81,3.14,5.32,6.51,9,8.65.68.4,1.32.9,1.77.13.33-.57-.13-1.12-.58-1.57C796.88,4865.56,794.27,4861.93,789.74,4861.31ZM200.66,4310.94c-.93-.81-2.33-2.5-3.68-1.48s.35,2.41,1.2,3.57c.44.61.74,1.32,1.23,1.9.82,1,1.77,2,3,1.48s.3-1.79.16-2.76S201.68,4311.92,200.66,4310.94Zm157,197.85h0c-1.16-1.17-2.32-2.34-3.5-3.49-.47-.46-1-.83-1.56-.48-.72.48-.18,1.09.17,1.77,1.64,3.15,4.55,5,7.16,7.1.53.44,1.14.63,1.54.17s.15-1.07-.32-1.56C360,4511.1,358.81,4510,357.65,4508.79Zm-85.81-72.57c-1.48-1.2-2.49-2.76-4.14-3.5-.74-.33-1.56-1.27-2.2-.51s.23,1.49.84,2.08c1.36,1.32,2.52,2.92,4.27,3.71,1.48.67,3,3.61,4.05,2.23S272.57,4437.69,271.84,4436.22Zm461.42,481a18.24,18.24,0,0,0-5.4-7.1c-1-.88-2-.89-2.74,0s0,1.65.72,2.43A18.47,18.47,0,0,0,733.26,4917.23ZM169.45,4277.88c1.34,1.46,3.35,2.42,4.34,1.49s.27-2.92-1.18-4.43-2.57-1.47-3.69-.6C167.57,4275.38,168.14,4276.65,169.45,4277.88Zm539.69,563.57c-1.71-.67-2.83-4.24-4.46-2.73s1.39,3.13,2.61,4.51,3.17,3.69,4.36,2.42C713.08,4844.12,709.84,4843.05,709.14,4841.45ZM298.07,4392.36l0,0c-1.08-1.07-2.14-2.16-3.24-3.22-.53-.52-1.17-1.2-1.78-.6-.4.38-.22,1.15.22,1.6q3.73,3.79,7.56,7.49a1,1,0,0,0,1.53.05c.43-.56-.12-1.08-.54-1.52C300.6,4394.87,299.33,4393.62,298.07,4392.36Zm136.76,143.08c-2.73-5-8.33-7.63-10.8-12.86-.21-.43-.87-.41-1.24-.15-.6.44-.66,1.08,0,1.76,1.31,1.38,2.64,2.76,4,4.07C429.39,4530.72,431.66,4533.59,434.83,4535.44ZM751.64,4933.7c-1.66-.69-2.66-4.09-4.4-2.72-1.07.84,1,3.19,2.45,4.38s3.38,3.68,4.66,2.31C755.44,4936.52,752.45,4935.24,751.64,4933.7Zm-90.08-182.16c-2.68-2.68-4.63-4.7-6.66-6.64a1.54,1.54,0,0,0-2.18-.21c-.46.41-.31,1,.16,1.52C655.05,4748.57,657.26,4750.9,661.56,4751.54Zm78.6,148c-2.06-5.14-3.93-6.69-8.4-6.87C734.55,4895.14,736.31,4898.16,740.16,4899.51ZM167.77,4263.83c-1.54-.8-2.85-2.54-4.76-2.92a.85.85,0,0,0-.86,1.1c.66,2.3,3,2.85,4.53,4.17.74.62,1.62.81,2.16.16C169.63,4265.39,168.49,4264.72,167.77,4263.83Zm-60,24.51c.71.3,1.61,1.94,2.13.73s1.16-3-.66-4.73c-.89-.83-2.08-1.68-2.71-.77C105.53,4285,106.56,4286.72,107.79,4288.34Zm-99.36-94a5.26,5.26,0,0,0-.37-5.55c-.43-.67-1.4-.54-1.31,0,.36,2.05-2.52,3.19-.47,5.57A1.36,1.36,0,0,0,8.43,4194.38ZM240,4248.25a40.65,40.65,0,0,1,4,6.44c.38.7,1.24,1.49,2,.86.65-.51,0-1.18-.36-1.83A12.53,12.53,0,0,0,240,4248.25Zm238.6,331.6a6.49,6.49,0,0,0,1.1,3.6,3.14,3.14,0,0,0,2.94,1.83c.44,0,1,0,1-.53,0-1.08-1-1.65-1.67-2.3C481,4581.54,480.25,4580.25,478.55,4579.85ZM57.63,4219.41c-.83.7-.35,1.4.33,2.08s1.59,1.49,2.46.92.61-1.69,0-2.45C59.64,4218.93,58.54,4219.16,57.63,4219.41Zm139.31-22.74c-1.26-1.13-1.67-3.42-3.81-3a.88.88,0,0,0-.64,1.29C193.57,4196.62,195.21,4196.76,196.94,4196.67ZM89.46,4278.79c-.63-.5-1.33-1.66-2-.88s-.28,1.92.54,2.86c.65.76,1.39,1.09,2.06.4S90.2,4279.56,89.46,4278.79Zm150.11-24.91c0,.19-.14.4-.06.53s.34.2.52.29l.09-.71ZM13.66,4221c-.19-.1-.41-.29-.56-.27s-.18.28-.26.43l.72.37Z"/><path class="cls-5" d="M798.22,4933.34c-7.79-4.39-15.06-9.26-21.62-15.95-6.13-6.26-13.81-10.88-21.12-15.71a16.5,16.5,0,0,1-3.43-3c-1.68-1.94-3.37-2.57-5.28-1.54-1.68.92-3.21.33-4.73-1.29a16,16,0,0,0-3.79-3.15c-1-.57-2-1.64-1.38-2.63s2-.55,3.09.22a6.13,6.13,0,0,1,1.09,1.07c3.25,3.88,7.12,4,8.77.08.72-1.69,1.71-1.91,3.73-1,5.65,2.44,10,6.58,14.86,10.46,3.71,3,7.34,6.25,11.15,9.19A63,63,0,0,1,792.41,4923c2.44,3.38,6.19,4.22,9.09,6.62A8.73,8.73,0,0,1,798.22,4933.34Z"/><path class="cls-5" d="M42.4,4322.53c.21-.64.38-1.48-.2-2-3.17-2.81-4.71-6.3-6.37-9.92-.89-2-2.39-3.44-1.9-5.77s-1.77-3.63-3.54-4.82c-2.74-1.85-5.48-3.66-7-6.74-.61-1.28-2.13-3.09.53-3.37,1.76-.19,3.65-2.84,5.14,1.32.45,1.26.54,2.94,1.4,3.73,7.55,6.94,10.87,16.23,16.68,24.13,1.27,1.72,3.25,3.33,1.74,5.6-1.83,2.74-3.62.3-5.47-.85Z"/><path class="cls-5" d="M308,4362.08c-1.36,3-5.43,4-8.54,1.65s-7.17-4.15-6.11-9c.27-1.2-1.47-1.55-2.28-2.17-3.15-2.41-2-4.25-.59-6.05s3-1.14,5,.5,3.91,3,3.91,6.07c0,1.6,2.3,3.54,4.34,4.25a15.86,15.86,0,0,1,2.6,1.32A7.19,7.19,0,0,1,308,4362.08Z"/><path class="cls-5" d="M129.47,4142.85c1.77,1.64,4.26,2,5.82,4.1.89,1.2,1.79,2.17.88,3.42s-1.94,1-3.15-.28a2.59,2.59,0,0,0-2.33-.82c-6.87,1.25-12.14-2.22-16.61-8.24a33,33,0,0,0-2.64-2.66c6.28.33,11.81,4.73,17.43,4.17A.72.72,0,0,1,129.47,4142.85Z"/><path class="cls-5" d="M84.24,4134.17c1,1,2.2.92,3.6,1.47-1.3.91-1,2.56-1.5,3.8-.91,2.06-2,3.56-4.84,1.64-.4-.26-1.06-.6-1.31-.46-4.17,2.33-5.45-2.75-8-4.39a.94.94,0,0,1-.4-1.24c.42-.6,1.18-.4,1.87-.27A17.78,17.78,0,0,0,82,4134Z"/><path class="cls-5" d="M477.4,4571.1c1.24,2.56,3.72,4.06,5.53,6.13,1,1.12,2.29,2.06,2.2,3.66-1.1.35-1.77-.56-2.46-1.25-3.53-3.5-7-7-10.55-10.51-1.43-1.4-1.9-2.39.19-2.79Z"/><path class="cls-5" d="M605.83,4744.67c-3.44-3.94-6.85-6.25-9.37-9.48-.5-.63-1.13-1.64-2-1.35s-.48,1.34-.31,2.11c.24,1,1,2.28-.14,2.77s-2-.85-2.63-1.65c-2.12-2.63-5.35-3.94-7.33-6.63-.59-.8-1.81-2-1-2.85,1-1.06,1.77.57,2.59,1.16s1.51,1.82,2.31.75c.6-.79-.41-1.52-1-2.1-4.47-4.27-8.37-9.16-13.55-12.62-1.88-1.25-3.44-2.4-5.61-.89s-5.26-.68-8-1.29a1.93,1.93,0,0,1-1.21-1.75c0-.81.76-.89,1.48-.92.94,0,2.38.57,2.26-1a2.83,2.83,0,0,0-2.46-2.5c-2.71-.32-4.82-2.58-7.57-3.35a20.14,20.14,0,0,1-7-3.53c-.36-.3-.89-.84-.86-1.11.49-4.19-3.55-5.9-5.74-8.6-1-1.21-2.91-2.59-1.63-3.77,1.11-1,2.85-.13,4,1.65,2.8,4.32,7.72,5.25,11.39,8.19.45.36,1.17.62,1.56.08a1.39,1.39,0,0,0-.24-1.63,14.38,14.38,0,0,0-5-4c-4.94-2.71-8.91-6.4-13-10.58a106.94,106.94,0,0,0-12.1-10.74c-2.21-1.68-4.36-3.46-6.5-5.25-1-.84-1.9-2-1.71-3.15.22-1.35,1.74-1.62,2.85-1.65a5.66,5.66,0,0,1,5.63,3.4,13.6,13.6,0,0,0,6.71,6.86,23.76,23.76,0,0,1,7.17,5.5c5.92,6.55,12.9,12,19.19,18.14,2,2,4.27,2.69,3.36,6.15-.48,1.82,2.84,3.76,5,5.07,1.81,1.08,2.51.33,3.07-1.09.46-1.16,1.33-.38,2.28.1,3.21,1.64,5.09,5,8.21,6.79,1.2.71,1.29,2.43-.27,2.52-1.82.11-1.45.95-.61,1.92,5,5.71,9.63,11.79,17.11,14.34,3.41,1.16,6,4.27,7.75,7,3.54,5.64,8.64,9.68,13,14.49.71.79,2.66,1.59,1.51,2.75-.79.79-1.86-.62-2.7-1.36C611.57,4748.86,607.47,4747.48,605.83,4744.67Z"/><path class="cls-5" d="M560.57,4720.58c4.41,4.41,7.75,7.77,11.11,11.11.81.79,1.51,1.79,2.67,2.05.94.21,2.09.48,2.35-.55s-1-1.18-1.65-1.58c-4.44-2.63-7.3-6.21-7.91-11.11-.1-.84-.74-2.21.62-2.08.87.09,2.48.66,2.54,1.85.33,5.57,4.37,8.22,8.6,11.34,2,1.51,4.47,4.25,4.05,7.35-.21,1.59,1.13,2.34,2,3.35,2.75,3.14,6.41,5.42,7.18,10.18.45,2.8,4.55,4.07,6.84,6.27,5.37,5.18,11.9,8.94,17,14.54a6.9,6.9,0,0,0,4.74,2.52c2.79.26,4.32,2.77,5.72,5,1.93,3,3.74,6,7.43,7.13,1,.33,3.55,6.07,3,6.66-1.06,1.06-2.15.81-3.42-.79-2.44-3.07-4.76-6.46-7.76-8.85-4.6-3.67-8.65-8.05-13.41-11.39-2.68-1.88-4-4.62-6.2-6.63-.78-.69-1.53-2.11-2.63-1.15-.78.67-.28,1.64.44,2.5s2,1.88,1,2.69-2.18-.34-3.09-1.22c-7.09-6.78-14.12-13.54-17.87-22.73a5.2,5.2,0,0,0-5.11-3.57,6.16,6.16,0,0,1-6.27-6.37,2.92,2.92,0,0,0-1-2.56c-8.16-7.13-16-14.61-23.75-22.2-4.34-4.25-9.62-7.48-13.7-12.09-.66-.74-2.31-1.48-1.33-2.55.84-.91,1.95-.12,3.08.76A210.75,210.75,0,0,1,560.57,4720.58Z"/><path class="cls-5" d="M632.8,4748.72c-4.43-4-8.46-8.49-13.59-11.56a8.31,8.31,0,0,1-1.48-1.19c-6.65-6.33-13.24-12.73-20-19-3.11-2.9-6.45-5.56-9.72-8.27-.75-.62-1.45-1.21-1.19-2.07.34-1.13,1.33-.27,2-.07a3,3,0,0,1,1.34.61c5.34,5.73,12.6,8.58,17.82,15.07,5.69,7.09,12.08,14.19,20.1,19.15a13.2,13.2,0,0,1,2,1.74c3.51,3.33,9.17,3.69,11.62.58.89-1.14,1.5-.5,2.53.21a64.38,64.38,0,0,1,14.17,13.13c3.14,4,7.18,7.27,10.72,11,.82.87,3,1.88,1.82,3-.88.88-.92,3.08-2.8,2.55a5.5,5.5,0,0,1-3.43-3.33c-2.31-6.95-8.59-10.27-13.61-14.73a1.82,1.82,0,0,0-2.76.1c-.54.87-.37,1.88.64,2.86,2.84,2.74,6.26,4.8,8.78,7.9.66.81,2.26,1.65,1.35,2.61s-1.88-.52-2.58-1.26a50.85,50.85,0,0,0-11-8.44C641.06,4756.48,637.07,4752.31,632.8,4748.72Z"/><path class="cls-5" d="M780.37,4940c-1.72-.85-2.72-2.87-4.34-3.79-8.21-4.69-14.85-11.7-22.49-17.19-5.19-3.74-10.73-6.89-16-10.47-3.41-2.31-6.11-5.76-10.13-7.17a17.84,17.84,0,0,0-3.42-1,9.73,9.73,0,0,1-7.55-6.71,9.23,9.23,0,0,0-5.48-5.77c-1.24-.56-2.61-.78-3.58-1.9a25.51,25.51,0,0,0-11.36-7.67c-1.79-.61-3-2.89-4-4.75a1.92,1.92,0,0,1,.67-2.66,2.66,2.66,0,0,1,3.53.6c3,3.55,7.29,5.33,10.19,9.06,2,2.57,5.42,3.54,8.12,5.13,3.56,2.09,6.48,4.87,9.42,7.47,4.54,4,9.58,6.73,14.59,9.64a13,13,0,0,1,3.22,2.58c3.73,4.17,8.45,6.84,12.82,10.09,4.85,3.6,9.36,7.73,14.14,11.46,4.34,3.39,8.43,7,11.52,11.58C780.51,4938.86,780.92,4939.25,780.37,4940Z"/><path class="cls-5" d="M501.42,4655.3c-2.74-3.53-6.62-5.44-9.45-8.62-.84-.94-2.15-1.77-3.17-1.07s-.48,2-.06,3.21c.8,2.23,2.87,3.5,4.37,5.21.47.55,1.34,1.09.92,1.81s-1.2.16-1.89,0a6.08,6.08,0,0,1-3.79-2.21,57.27,57.27,0,0,0-6.82-7.71c-1.47-1.38-1.23-2.62.31-2.78,2.92-.3,1.93-1.57.74-3.48a36.64,36.64,0,0,0-4.8-5.43c-.85-.93-2-1.68-2.26-3-.59-2.78-1.44-5.27-4.91-6.14-1-.25-1.58-1.55-2.05-2.61-.34-.77-1-2.12-1.32-2.13-4.33-.1-4.63-4.66-7.22-6.66-1.33-1-1.83-2.76-.69-3.69s2.16.77,2.86,1.61a139.55,139.55,0,0,0,15.09,15.74c6.77,5.82,12,13,18.65,18.95,3.85,3.46,6.11,8.39,10.17,11.82.87.74,1.67,1.57,2.54,2.32s2.58,1,1.58,2.23c-.78.94-2.29,0-3.09-1C505.25,4659.45,503.68,4657,501.42,4655.3Z"/><path class="cls-5" d="M655.88,4816.77a48.8,48.8,0,0,1-3.9-4c-1.31-1.71-2.38-3.6.63-3.93,1.67-.18,1.27-1.09.32-2.12a20.1,20.1,0,0,0-2.19-2.14c-3.47-2.78-3.65-5.3-.49-7.3,1.91-1.2,4.4-.21,5.33,2.3.8,2.18,2.86,4.13,1.32,6.77-.6,1,2.67,3.4,4.69,4.79a89.76,89.76,0,0,1,12.07,9.21c.65.62,2,1.4,1.27,2.29s-2.09.44-2.84-.48c-2.46-3.07-6.54-3.65-8.86-6.9-.64-.88-1.78-1.88-2.7-1s.23,1.83.93,2.72c1.93,2.45,4.78,3.76,6.86,6,.57.61,1.61,1.25,1.11,2.1-.71,1.18-1.6-.05-2.33-.55C663.18,4821.9,658.45,4820.6,655.88,4816.77Z"/><path class="cls-5" d="M643.31,4831.14c2.05,1.82,4.15,3.6,6.13,5.49,5.22,5,12.07,5.92,17.61,10,3.42,2.49,7.2,4.41,10.21,7.56,1.45,1.52,2.29,2.86-.41,2.79-1.84-.05-2.32.41-1.75,2.38.72,2.51-1.16,1.68-2.2.87-7.6-6-15-12.12-21.16-19.71-2.62-3.21-5.88-6-8.84-8.93Z"/><path class="cls-5" d="M739,4834.11a44.83,44.83,0,0,1-13.55-10c-4.27-4.32-8.35-8.83-13.23-12.52-1.46-1.1-4.26-2.73-3.32-4.37,1.34-2.34,3.7.32,5.42,1.44a37.21,37.21,0,0,1,7.91,7.56c3.06,3.65,7.09,6.54,10.51,9.95A29.39,29.39,0,0,1,739,4834.11Z"/><path class="cls-5" d="M717.22,4793.19a2.48,2.48,0,0,1-3.09-.18c-2.81-3.08-5.39-2.12-8-1.45-2,.51-3.35.19-5.06-2.12-3.45-4.66-7.38-9-12.46-12.11a5.4,5.4,0,0,1-1.45-1.24c-1.19-1.52-4.3-3.15-3.34-4.38,1.32-1.68,2.54,2,4.05,2.3,7.37,1.65,11.07,8.4,16.35,12.95,1,.85,2.11,2.14,3.12,1.66C711.84,4786.44,714,4791.37,717.22,4793.19Z"/><path class="cls-5" d="M605.66,4760.28c-3.09-2.81-4.31-5.52-6.57-7.46-1.43-1.22-.6-1.75.55-2,1.71-.42,3,.39,4.46,1.72,3.24,3,6.47,6,11,6.52,2,.22,3,1.91,3.15,4,.15,2.57-1.9,3.46-3.4,4.44-1.17.76-2.37-1.34-3.48-2.28C609.12,4763.27,606.92,4761.37,605.66,4760.28Z"/><path class="cls-5" d="M428.16,4555.33a17.43,17.43,0,0,1,5.09,6.86c.65,1.42.17,2.33-1,2-4.78-1.29-9.59-2.6-12.45-8-.78-1.47-2.35-2.63-3.54-3.94-.41-.45-1-.93-.71-1.53s1-.45,1.5-.1c1.66,1.19,2.94.77,4.54.47C424.51,4550.58,426.14,4553.59,428.16,4555.33Z"/><path class="cls-5" d="M311.14,4380.74c-3.44-1-5.26-3.5-7.05-5.91-1.41-1.89-2.58-4.06-4.87-1.92-.7.66-1.8.22-2.53-.63-1.72-2-3.43-4.08-5-6.2a1.87,1.87,0,0,1-.08-2.28,2,2,0,0,1,2.56.07,21.26,21.26,0,0,1,2.82,2.57c2,2,3.82,4.46,6.34,1.82.61-.64,1.83-.12,2.4.93C307.67,4372.84,310.36,4376.26,311.14,4380.74Z"/><path class="cls-5" d="M536.79,4627.52c3.58,3.31,5,8,8.51,11.38a1.11,1.11,0,0,1-.09,1.79,1.64,1.64,0,0,1-1.94-.52c-3.06-3.1-7.36-4.47-9.84-8.63-1.27-2.12-4.2-3.49-6.39-5.18-.78-.6-1.94-1.1-1.47-2.2s1.34-.16,2.08.19,1.65.87,2.37.52C532.77,4623.54,534.78,4625.48,536.79,4627.52Z"/><path class="cls-5" d="M678.59,4804.84c1.8,1.81,3.6,3.63,5.43,5.43a7.62,7.62,0,0,1,2.49,4c.56,2.7,3,4.25,5.08,5.86,1.08.85,1.82,1.53,1.07,2.54s-1.81.55-2.74-.34a28,28,0,0,1-4.28-4.37c-4.16-6.31-8.83-12.08-15-16.71-1-.74-3-1.91-1.64-3.41s2.67.11,3.85,1.27C674.79,4801,676.69,4802.94,678.59,4804.84Z"/><path class="cls-5" d="M680.17,4830.38a12.12,12.12,0,0,1-1.41-1.76c-.43-.71-1-1.63-.15-2.18s1.34.18,1.84.74c1.37,1.52,2.31,1.28,3.45.24,2.87-2.64,9.55-.92,12.25,3,.3.44.63.94.25,1.23a1.43,1.43,0,0,1-1.25.09c-2.31-1.05-3.59,0-5,1.18C687.72,4835,683.74,4834,680.17,4830.38Z"/><path class="cls-5" d="M438.6,4546.18c2.68,2.73,5.41,5.34,6.16,9.21.3,1.54,2.09,2.47,3.18,3.7.75.86,1.92,1.84,1.09,2.74-1,1.11-2-.22-3-1.05a20.28,20.28,0,0,1-3.78-4.73,19.66,19.66,0,0,0-8.1-7.76c-.11-.06-.23-.09-.34-.15-1.61-1-3.24-2.22-3.85-4-.37-1.1.71-1.93,1.61-2.09,1.86-.34,3.63.52,5.11,2.23C437.29,4545,438,4545.55,438.6,4546.18Z"/><path class="cls-5" d="M130.43,4295.93c3.47,2.87,7.57,4.64,10.76,7.89,4.27,4.34,8.35,8.91,13.65,12,2.63,1.54,2.65,4.5,4.12,6.8C148.27,4315,140.34,4304.41,130.43,4295.93Z"/><path class="cls-5" d="M728.31,4840.35c-.83.28-1.11.46-1.2.39-5.88-4.79-13.72-5.41-18.93-11.61a12.06,12.06,0,0,1-1.68-2c-.4-.8-1.67-1.8-.84-2.49s1.55.36,2.2,1.2a3.9,3.9,0,0,0,1.8,1.28c4.41,1.2,7.48,5.23,11.64,7C724.12,4835.28,725.73,4838.07,728.31,4840.35Z"/><path class="cls-5" d="M310,4474.6c-3.09-3.05-7.4-4.62-9.69-8.63a5.06,5.06,0,0,0-1.75-2c-4.07-2.05-5.61-6.51-9-9.16-1.3-1-2.35-2.72-1.36-3.68s2.72.39,3.57,1.57c3.27,4.57,8.43,7.86,10.32,13.35.43,1.24,1.7,1.43,2.5,2.19C306.6,4470.17,308.73,4472,310,4474.6Z"/><path class="cls-5" d="M220.59,4429.42c-5.33-2.7-8.66-6.63-11.86-10.44a49,49,0,0,0-9.21-9,10,10,0,0,1-1.43-1.26c-.81-.83-1.77-1.83-.87-2.72.73-.74,2-.41,2.88.36a27.07,27.07,0,0,1,3.53,3.49c5.08,6.17,10.62,11.94,16,17.84A13.22,13.22,0,0,1,220.59,4429.42Z"/><path class="cls-5" d="M692.85,4795.12c-1.81-3.6-6.15-4.22-8.33-7.41-.45-.66-1.59-1.29-.73-2,.51-.43,1.32,0,1.91.57,1,1,2,1.93,3,2.94,1.23,1.31,2.29,2,4,1.36,1.95-.71,7.84,3.47,8.64,5.78a2.73,2.73,0,0,1-.76,3c-.72.77-1.65-.06-2.48-.68C696.41,4797.39,694.11,4797.24,692.85,4795.12Z"/><path class="cls-5" d="M452.32,4577c-4.72-4.63-10.49-8.17-13.44-14.29a5.6,5.6,0,0,1-.77-3.38c.27-1.68,1-2,2.49-.43.08.1.2.17.27.27C444.9,4564.94,449.21,4570.61,452.32,4577Z"/><path class="cls-5" d="M174.94,4320c-1.81-.57-3.5-1.57-5.37-1.62-1.2,0-2.38-1.5-2.83-2.79-1.93-5.5-6.07-8.88-11-11.65a9.1,9.1,0,0,1-2-1.74c-.65-.67-1.1-1.48-.53-2.19s1.23-.26,1.92,0a15.29,15.29,0,0,1,5.44,4c4.72,5.07,8.89,10.63,14.28,15.1C175,4319.18,174.92,4319.5,174.94,4320Z"/><path class="cls-5" d="M329.26,4410.22c2,1.95,3.5,3.82,3.88,6.18a4.6,4.6,0,0,0,1.31,2.59c.67.68,1.81,1.47,1,2.37s-1.81.27-2.77-.56c-2.57-2.21-5.41-4-7.3-7.09-1.22-2-1.88-3.76-.46-5C326.53,4407.41,328.14,4409,329.26,4410.22Z"/><path class="cls-5" d="M415.07,4569.59c2.13,1.57,2.27,3.86,3.1,5.87.26.61.27,1.18-.34,1.43s-1.12-.23-1.58-.67c-.92-.9-1.87-1.76-2.71-2.72-1.3-1.5-2.55-2.35-4.26-1.46a2.52,2.52,0,0,1-3.43-1c-1.1-1.61.07-2,1-2.48,1.51-.78-1-4.55,1.58-3.78C410.76,4565.43,412.87,4567.9,415.07,4569.59Z"/><path class="cls-5" d="M631.14,4761.17c-6-2.3-7.44-8.6-11.83-12.22a2.12,2.12,0,0,1-.26-3.14c1.08-.91,1.81.62,2.64,1.25,1,.76,2,1.5,3,2.33,2.59,2.24,5.62,4.35,5.18,8C629.68,4758.83,631.69,4759.85,631.14,4761.17Z"/><path class="cls-5" d="M75.63,4264.71c2.81,2.8,5.68,3.47,8.84,2.78,2.24-.48,3.73,1.61,4.49,3.21s4,2.85,2.35,4.72-3.18-1.1-4.72-2c-2.7-1.53-5.4-3.09-8-4.84A6.17,6.17,0,0,1,75.63,4264.71Z"/><path class="cls-5" d="M679.57,4816.21c.91,1.84,4,2.9,2.73,4.44-.8,1-3.18-1.08-4.4-2.37-3.85-4.12-8.83-6.76-12.69-10.84a23.61,23.61,0,0,1-1.78-2c-.38-.51-.55-1.13-.09-1.56s.84,0,1.27.22a5.9,5.9,0,0,1,1.61.93C670.19,4809.54,675.05,4812.89,679.57,4816.21Z"/><path class="cls-5" d="M142.3,4275.72c1.9,1.89,3.8,3.77,5.67,5.68,1.3,1.33,2,2.9.71,4s-2.31-.41-3.31-1.35c-.28-.27-.67-.52-.79-.82-2.17-5.37-6-9.54-10.53-13.23-.36-.29-.76-.8-.38-1.22.54-.59,1.29-.27,1.83.26,2.29,2.21,4.52,4.48,6.77,6.73Z"/><path class="cls-5" d="M102.78,4254.61c3.74,5.3,8.66,9.45,12.47,14.5.54.72,1.22,1.52.52,2.17s-1.26-.35-1.89-.6c-2.22-.86-3-3-4.25-4.71-2.54-3.47-6-6.23-8.27-9.88-.69-1.09-2.73-2.27-1.65-3.23S101.6,4254.34,102.78,4254.61Z"/><path class="cls-5" d="M755.47,4831.51a24.58,24.58,0,0,1-14.43-9.89c-.55-.75-1.19-1.88-.47-2.57s1.48.41,2.11.87A63.39,63.39,0,0,1,755.47,4831.51Z"/><path class="cls-5" d="M307.73,4386a61.94,61.94,0,0,1,16.46,15.66c.4.57.61,1.11.1,1.52A.93.93,0,0,1,323,4403c-2-2.06-4.91-3-6-6.1-.93-2.6-3.69-4.11-5.52-6.21C310.19,4389.2,308.4,4388.09,307.73,4386Z"/><path class="cls-5" d="M714.65,4821.47c1,.26,1.51.25,1.84.52q6.71,5.51,13.35,11.09c.93.79,1.56,1.91.69,2.75s-1.62-.38-2.39-.92C724.76,4832.56,717.05,4825,714.65,4821.47Z"/><path class="cls-5" d="M526.2,4685.29c-2.31-2.07-3.73-3.95-1.7-6.1,1.31-1.38,2.59-1.1,4.09.51s2.18,6.62.82,7.38C527.73,4688,527.14,4685.73,526.2,4685.29Z"/><path class="cls-5" d="M639.78,4733.19c1.44,1.62,3.44,2.75,3.24,5,0,.6-.39,1.31-.91,1.09-2.06-.85-4.29-2-5.28-4-.77-1.6-4-3.26-2.12-4.78C636.87,4728.72,638.18,4732.23,639.78,4733.19Z"/><path class="cls-5" d="M173.45,4165.51c5.43,3.08,9.77,6.19,12.68,11,.46.76,1.18,1.53.5,2.18s-1.27-.3-1.89-.58a7.89,7.89,0,0,1-3.85-3.53C179.35,4171.14,176.48,4168.81,173.45,4165.51Z"/><path class="cls-5" d="M676,4788.05a7.77,7.77,0,0,1,1.06,1.09c.8,1.21,3.38,2.11,1.94,3.69-1.28,1.42-2.75-.81-4-1.54a25.61,25.61,0,0,1-3.88-3.66c-.82-.81-1.28-1.63-.44-2.4a1.74,1.74,0,0,1,2.5.18c.95.84,1.81,1.79,2.72,2.69Z"/><path class="cls-5" d="M165.87,4340.91c-1.35-1.35-2.72-2.67-4-4.06a1.32,1.32,0,0,1-.25-1.62c.26-.38.8-.35,1.2.08,2.74,2.95,6.72,4.56,8.71,8.29.33.61,1.12,1.3.53,1.89s-1.51.12-2.16-.5c-1.39-1.31-2.71-2.69-4.06-4Z"/><path class="cls-5" d="M789.74,4861.31c4.53.62,7.14,4.25,10.18,7.21.45.45.91,1,.58,1.57-.45.77-1.09.27-1.77-.13C795.06,4867.82,792.55,4864.45,789.74,4861.31Z"/><path class="cls-5" d="M200.66,4310.94c1,1,1.79,1.7,1.94,2.71s1.08,2.22-.16,2.76-2.21-.5-3-1.48c-.49-.58-.79-1.29-1.23-1.9-.85-1.16-2.64-2.49-1.2-3.57S199.73,4310.13,200.66,4310.94Z"/><path class="cls-5" d="M357.65,4508.79c1.16,1.16,2.34,2.31,3.49,3.5.47.49.71,1.1.32,1.56s-1,.27-1.54-.17c-2.61-2.13-5.52-4-7.16-7.1-.35-.68-.89-1.29-.17-1.77.52-.35,1.09,0,1.56.48,1.18,1.15,2.34,2.32,3.5,3.49Z"/><path class="cls-5" d="M271.84,4436.22c.73,1.47,3.88,2.61,2.82,4s-2.57-1.56-4.05-2.23c-1.75-.79-2.91-2.39-4.27-3.71-.61-.59-1.49-1.31-.84-2.08s1.46.18,2.2.51C269.35,4433.46,270.36,4435,271.84,4436.22Z"/><path class="cls-5" d="M733.26,4917.23a18.47,18.47,0,0,1-7.42-4.71c-.7-.78-1.48-1.54-.72-2.43s1.71-.84,2.74,0A18.24,18.24,0,0,1,733.26,4917.23Z"/><path class="cls-5" d="M169.46,4277.88c-1.32-1.23-1.89-2.5-.54-3.54,1.12-.87,2.32-.82,3.69.6s2.17,3.51,1.18,4.43S170.79,4279.34,169.46,4277.88Z"/><path class="cls-5" d="M709.14,4841.45c.7,1.6,3.94,2.67,2.51,4.2-1.19,1.27-3.15-1-4.36-2.42s-4.27-3-2.61-4.51S707.43,4840.78,709.14,4841.45Z"/><path class="cls-5" d="M298.07,4392.36c1.26,1.26,2.53,2.51,3.77,3.78.42.44,1,1,.54,1.52a1,1,0,0,1-1.53-.05q-3.83-3.69-7.56-7.49c-.44-.45-.62-1.22-.22-1.6.61-.6,1.25.08,1.78.6,1.1,1.06,2.16,2.15,3.24,3.22Z"/><path class="cls-5" d="M434.83,4535.44c-3.17-1.85-5.44-4.72-8.05-7.18-1.38-1.31-2.71-2.69-4-4.07-.63-.68-.57-1.32,0-1.76.37-.26,1-.28,1.24.15C426.5,4527.81,432.1,4530.43,434.83,4535.44Z"/><path class="cls-5" d="M751.64,4933.7c.81,1.54,3.8,2.82,2.71,4-1.28,1.37-3.22-1.13-4.66-2.31s-3.52-3.54-2.45-4.38C749,4929.61,750,4933,751.64,4933.7Z"/><path class="cls-5" d="M661.56,4751.54c-4.3-.64-6.51-3-8.68-5.33-.47-.52-.62-1.11-.16-1.52a1.54,1.54,0,0,1,2.18.21C656.93,4746.84,658.88,4748.86,661.56,4751.54Z"/><path class="cls-5" d="M740.16,4899.51c-3.85-1.35-5.61-4.37-8.4-6.87C736.23,4892.82,738.1,4894.37,740.16,4899.51Z"/><path class="cls-5" d="M167.77,4263.83c.72.89,1.86,1.56,1.07,2.51-.54.65-1.42.46-2.16-.16-1.57-1.32-3.87-1.87-4.53-4.17a.85.85,0,0,1,.86-1.1C164.92,4261.29,166.23,4263,167.77,4263.83Z"/><path class="cls-5" d="M107.79,4288.34c-1.23-1.62-2.26-3.31-1.24-4.77.63-.91,1.82-.06,2.71.77,1.82,1.68,1.22,3.42.66,4.73S108.5,4288.64,107.79,4288.34Z"/><path class="cls-5" d="M8.43,4194.38a1.36,1.36,0,0,1-2.15,0c-2-2.38.83-3.52.47-5.57-.09-.53.88-.66,1.31,0A5.26,5.26,0,0,1,8.43,4194.38Z"/><path class="cls-5" d="M240,4248.25a12.53,12.53,0,0,1,5.65,5.47c.39.65,1,1.32.36,1.83-.8.63-1.66-.16-2-.86A40.65,40.65,0,0,0,240,4248.25Z"/><path class="cls-5" d="M478.55,4579.85c1.7.4,2.43,1.69,3.38,2.6.69.65,1.7,1.22,1.67,2.3,0,.56-.57.53-1,.53a3.14,3.14,0,0,1-2.94-1.83A6.49,6.49,0,0,1,478.55,4579.85Z"/><path class="cls-5" d="M57.63,4219.41c.91-.25,2-.48,2.81.55.59.76.8,1.92,0,2.45s-1.73-.18-2.46-.92S56.8,4220.11,57.63,4219.41Z"/><path class="cls-5" d="M196.94,4196.67c-1.73.09-3.37-.05-4.45-1.74a.88.88,0,0,1,.64-1.29C195.27,4193.25,195.68,4195.54,196.94,4196.67Z"/><path class="cls-5" d="M89.46,4278.79c.74.77,1.41,1.55.6,2.38s-1.41.36-2.06-.4c-.82-.94-1.16-2.14-.54-2.86S88.83,4278.29,89.46,4278.79Z"/><path class="cls-6" d="M391.45,4567.86c-2.58-1.28-3.91-2.35-4.61-4.44C389,4564,389.94,4565.43,391.45,4567.86Z"/><path class="cls-5" d="M574.09,4695.91c-.51.37-1.08.67-1.7-.14-.14-.19-.13-.76,0-.8.77-.26,1.18.53,1.72,1Z"/><path class="cls-5" d="M239.57,4253.88l.55.11-.09.71c-.18-.09-.44-.15-.52-.29S239.54,4254.07,239.57,4253.88Z"/><path class="cls-5" d="M13.66,4221l-.1.53-.72-.37c.08-.15.13-.4.26-.43S13.47,4220.94,13.66,4221Z"/><path class="cls-5" d="M407.75,4548.23l.31-.07-.31.05Z"/><path class="cls-6" d="M436.28,4522.88a23.39,23.39,0,0,1-1.85-1.86c-1.78-2.31-2.42-4.71-1.1-6.79s3.41-1.57,5.71-.18c3,1.78,4.86,4.21,5.28,7.34a3.31,3.31,0,0,1-2.61,3.62C439.44,4525.73,437.45,4524.4,436.28,4522.88Z"/><path class="cls-7" d="M242.78,4299c-3.91-1.61-6.3-4.69-9-7.33-4.57-4.5-4.74-4.54-7.84-.37-2.49,3.34-2.87,3.28-6.07-.95a8.25,8.25,0,0,0-1.29-1.41c-4-3.31-6.94-7.72-11-11.07a22.35,22.35,0,0,0-6.94-4.14c-6.43-2.05-9.74-7.43-13.66-12.13-1.76-2.13.36-5,3.26-5.28,4.18-.34,7.43,1.86,9.86,5.38a32.71,32.71,0,0,0,11,9.66,26.07,26.07,0,0,1,8.45,8.64,33.1,33.1,0,0,0,1.87,2.84A2.35,2.35,0,0,0,224,4284c1.14-.37.85-1.54.35-2.32-2.72-4.24-4-9.8-10.29-10.86a4.74,4.74,0,0,1-3.3-2.33c-1.19-2.17-3.06-3.74-4.76-5.45-1.07-1.07-1.74-1.95-1.16-3.39.87-2.17-.53-3.48-2.69-3.46-4,0-6.67-3.66-10.19-4.85a1.6,1.6,0,0,1-.64-1.15,6,6,0,0,1,3.22-3.3c1.55-.61,2.57,1,3.54,2.13.83.95,1.47,2.05,2.29,3,.61.72,1.57,1.34,2,.44,1.24-2.35,1.88-.58,3.07.73,3.26,3.59,6.68,7,10.1,10.47a10.47,10.47,0,0,1,3,4.67,7.24,7.24,0,0,0,4.72,5c4.6,1.63,5.75,3.3,7.3,8.1,1.5,4.64,5.49,8.24,8.6,12.16C240.48,4295.16,242.64,4296.26,242.78,4299Z"/><path class="cls-7" d="M119.68,4338.13c2.36,3.37,2.44,7.31,5.59,10.6,1.74,1.81,2.29,5.21,3.5,7.88.33.72.76,1.68-.35,2a2,2,0,0,1-2.27-.54c-2.44-2.75-5.28-5-7.37-8.21-2.85-4.38-6.46-8.39-9.85-12.47-1.53-1.85-2.28-1.1-2.8.53-1.37,4.29-2.77,4.41-6.58.64-4.46-4.41-8.78-9-13.37-13.24-3.78-3.51-6.59-8.15-12.09-9.76-2.54-.74-4.48-3.81-6.48-6.13-2.46-2.85-4.42-6.06-7.81-8.68,4.06-.32,7.29-.25,9.93,3.45a3.4,3.4,0,0,0,2.27,1.06c2.07.08,2.35,1.32,2.53,2.87a5.88,5.88,0,0,0,5.11,5.5,3.38,3.38,0,0,1,3.08,3.16c.23,1.84,1.08,3.22,3.13,3.59,1.5.28,1.75,1.3,2.22,2.57.65,1.79,5,4.34,6.22,3.92,1.81-.64,2.37-4.49.93-6.79-.4-.64-1.11-1.23-.53-1.85s1.2.06,1.85.42c3.18,1.76,5.39,4.66,7.94,7.14,1.67,1.62,3.27,3.07,5.55,3.7,2.5.69,3.77,3.3,5.72,4.88.91.73,1.7,2.48,2.92,1.65s-.28-2.26-.66-3.44-2.78-2.27-1.58-3.27,2.29,1.2,3.38,2c5.15,3.94,8,9.77,12.46,14.29.8.8,1.13,1.74.51,2.53s-1.35.57-2.19.07a10.23,10.23,0,0,1-3.68-3.14A27.52,27.52,0,0,0,119.68,4338.13Z"/><path class="cls-7" d="M276.29,4389.23c3,1.86,3.52,5.7,5.84,8.51.44.53.8,1.13.21,1.49a1.49,1.49,0,0,1-1.64-.37,19.36,19.36,0,0,1-2.7-3.17c-1.1-1.35-2.77-2.72-4.34-2.07s-.5,2.21-.11,3.64c.86,3.14.33,6.15-.14,9-.3,1.8-2.6,2.19-4.55,1.55a6.74,6.74,0,0,0-6.39.69c-1.45,1-2.86,1.09-4.22-1.37a78.88,78.88,0,0,0-4.75-6.83c-.47-.67-1.43-1.37-.74-2.16s1.51,0,2.28.25,1.6.66,2.4,1c2.57,1,5.62,2.76,4.48-2.21-.21-.92.55-1.32,1.34-1.54s1.59-.68,1.48-1.48c-.44-3.15,1.71-4.48,3.37-6.16C271.53,4384.49,271.54,4384.5,276.29,4389.23Z"/><path class="cls-7" d="M218.84,4237.66q-2.9-2.91-5.81-5.81c-.9-.89-1.83-2.06-3-1-4,3.8-8,.16-11.92-2.49-1.53-1-2.9-2.42-4.44-3.54s-2.89-2.49-2.72-4.83c.19-2.6-1.61-5-3.82-6.93a21.07,21.07,0,0,1-2.16-2.17c-.57-.68-2-1.41-1-2.26.77-.65,1.77.3,2.46,1.06a19.12,19.12,0,0,0,4.15,3.31c.65.4,1.26,1,1.87.42a1.44,1.44,0,0,0,0-1.9c-.7-1.07-1.75-2.2-.2-2.85,1.19-.5,1.86.87,2.67,1.58,1.28,1.11,1,1.94.2,2.91-2.42,3-1.68,6.42,1.82,8.71,1.14.75,2.43,1.58,3.16-.08,1.13-2.58,4-1.79,5.56-.51a72.84,72.84,0,0,1,13.58,14.84,2.94,2.94,0,0,1,.2,1Z"/><path class="cls-7" d="M181.56,4211.89c4.66,4.66,5.16,6.43,2.89,8.78-1.38,1.43-2.7,1.44-4.37-.4a13,13,0,0,0-6.4-4.36c-2-.52-3.16-2.45-3.72-4.42-.77-2.73-2.17-4.4-5.09-4a2.86,2.86,0,0,1-3-2.22c-.37-1.92,1.53-.8,2.47-.85,1.43-.06,3.06.67,4.22-.4.56-.53,1.33-.26,1.9.27C174,4207.42,178.77,4208.23,181.56,4211.89Z"/><path class="cls-7" d="M41.75,4267.32c1.46,2,2.68,3.48,2.78,5.33.12,2.12.84,3.68,3.31,4.18.84.18,1.72.78,1.18,1.76-.44.78-1.38.65-2.12.07-1-.77-1.86-1.74-2.79-2.61-.74-.68-1.41-1.8-2.38-1.74-3.92.22-6-3.54-9-5.31a2.31,2.31,0,0,1-1.2-2.78c.36-.88,1-1.32,2.17-.64.21.12.63.25.66.19C37.37,4259.58,39.38,4268.66,41.75,4267.32Z"/><path class="cls-7" d="M282.41,4383.81c1.17,1.17,2.37,2.33,3.52,3.53,1,1,1.42,2.27.82,3.23s-1.88.55-2.84-.06c-2.82-1.81-5.66-3.61-8.35-5.64-2.06-1.56-2.93-4.09-1.68-5.57s3.53-.6,5.28,1.23c1.06,1.11,2.17,2.18,3.25,3.27Z"/><path class="cls-7" d="M313.48,4454.82c-2.8-2.8-5.6-5.58-8.38-8.39-.61-.61-1.46-1.36-.66-2.07.61-.55,1.35.05,1.82.64,4.27,5.35,10.71,8.05,15.09,13.27,1.57,1.87,4.69,4.54,3.3,5.86-1.84,1.76-3.52-2-5.19-3.4-2.14-1.78-4-3.92-6-5.9Z"/><path class="cls-7" d="M174.51,4240.93c2.72,2.21,4.94,3.79,6.84,5.69.66.66,2.82,2.77-.4,2.89-1.22.05-.76,1.54-.08,2.6.43.66.72,1.4.19,1.91s-1.47.13-2.21-.42c-2.23-1.64-4.5-3.24-6.69-5-1.12-.86-1.72-2.26-1.08-3.16.91-1.28,1.67.5,2.46,1,.42.27.73.82,1.15,1,1.17.48,2.66,1.6,3.45.46.61-.88-.06-2.18-1-3.21S175.07,4243.15,174.51,4240.93Z"/><path class="cls-7" d="M187.53,4196c2.91,2.27,5.1,5.33,8.34,7.23a4,4,0,0,1,2,3.38c0,.65-.53.92-1.15.86-1.34-.12-2.09-1.17-2.88-2.19a76.77,76.77,0,0,0-13.13-13.16,18.86,18.86,0,0,1-1.46-1.22c-.74-.71-1.69-1.59-1.18-2.46.65-1.11,1.84.1,2.38.59C182.9,4191.3,185.19,4193.7,187.53,4196Z"/><path class="cls-7" d="M161.12,4218.13a3,3,0,0,1,1-.18c1,.09,4.79,5.66,4.45,6.57-.25.67-.31,1.62-1.27,1.61s-1.46-.83-2-1.52C160.85,4221.6,160,4219.38,161.12,4218.13Z"/><ellipse class="cls-8" cx="143.05" cy="4273.92" rx="89.81" ry="148.24" transform="translate(-2980.22 1352.96) rotate(-45)"/><path class="cls-9" d="M1040.33,5297.84c.23-4.61,1.24-9.34.58-13.83-5.89-40.2,3.62-47.83,46.28-35.2a2286.49,2286.49,0,0,0,437.34,84.54c15.1-10.33,29.7-11.91,43.35,2.54,100.66,25.95,203.67,28,306.44,26.12,124.68-2.26,249.3,0,374.14-5.8,169.55-7.84,336.68-32.82,504.52-53.18,114.33-13.86,228.47-29.78,340.09-59.59,9.74-2.6,18.3-1.32,24.85,7.1-11.63,141.31-76.9,260.94-152.92,376-43.34,65.58-92.65,125.6-158.78,170.54-59.17,40.2-121.91,63.76-190.2,31.09-61.49-29.41-66.4-92.3-71.62-150.65-5.39-60.22-4.4-63.11-66.8-63.22-276.26-.53-552.53.47-828.79-.37-33.27-.1-43.41,12.62-42,43.79,1.55,35.38-5.06,70.11-16.86,103.67-7.88,14.54-15,29.7-30.92,41.67a130.22,130.22,0,0,1-53.35,24.25c-27.74,5.72-41.73,15.78-66.72,9.27-71.74-9.84-124.13-53.3-169.35-104.2-104.25-117.35-182.4-250.17-224.5-402.57C1042.22,5319.49,1041.85,5308.51,1040.33,5297.84Z"/><path class="cls-10" d="M3268,4677c-2.24-2.16,14.64,1.88,24.45-9.41,15.79-18.15,21.25-21.51,37.66-22.29,36.89-19.36,73.47-39.33,110.86-57.66,10.94-5.37,17.7-3.93,30.22,2.06,3.59,9.3,39.59,82.45,34.07,126.47-7.25,57.75-53.65,89.83-110.09,72.54C3335.53,4770.42,3304,4721.41,3268,4677Z"/><path class="cls-11" d="M671.22,4627c25.22,9.85,54.58,16.23,45.82,54.6-27.6,46.16-67.47,78.23-117.71,95.42-69.48,23.77-128.85-28.57-116.36-100.47,7.67-44.09,25.53-84.73,41.95-125.87C579.84,4564.37,623.35,4599.88,671.22,4627Z"/><path class="cls-12" d="M2292.79,3426.58C2183.57,3543,2082.15,3666,1992.65,3798.13c-23.12,34.13-31.34,9.55-40.07-4-32.94-51-65.06-101.68-103.95-149.25-49.84-61-98.5-122.9-151-181.68-3.71-4.15-4.9-10.56-7.27-15.93-7.34-20.58.4-31.11,21.41-26.25,77.51,17.93,155.77,4.67,233.59,6.28C2061.09,3429.72,2177,3427.08,2292.79,3426.58Z"/><path class="cls-13" d="M2363.16,3403c86.46-4.4,169.19-28.43,252.78-47.95,14.76-3.45,28.59-12.44,44.79-8.1,32.74,59.72,85,103.15,126.91,154.65,36.62,45,83.63,76.12,122.11,118,110.46,120.06,219.6,239.32,303.76,380.83C3277,4107,3335.2,4215.56,3383.09,4329.86c10.17,24.27,19.24,48.47,17.83,75.59-.45,8.8-.39,21.89,4.91,26.08,52.26,41.22,46.65,97.29,41.78,153.48-41.07,19.71-79.75,43.88-120.32,64.47-12.95,6.57-24.89,19.13-41.93,10.87-63.57-96.57-109-203-164.65-303.89-63.87-115.76-116.07-237.6-181.67-352.65-30.89-54.18-53.47-112.84-67.24-143.27,60.28,144.73,117.08,321.73,180.13,496.43,24,66.44,52,131.6,69.9,200.32,8.29,31.84,30.7,56.56,49.07,83.17,8.09,11.7,24.46,21.12,14.75,39.71-20.74,11-23.65,23.58-16.88,48.41,25.13,92.13,57.31,183.54,55,280.87-1.26,53.17-3.91,110-31.19,154.41-17.1,27.82-39.6,59-69.54,79.43-124.9,36.51-254,49.41-382,69.36-313.53,48.91-629.06,65-945.71,54.86-72.62-2.32-148.6,4.7-218.11-28.25-12.47-20.75-5.64-42.39-.19-62.64,30.06-111.5,64.62-221.75,92.78-333.78,39-155.11,82.88-308.9,125.35-463.05,31.82-115.5,61.89-231.57,101.76-344.92,25.41-72.24,37.42-149,71.32-218.7,47.53-97.68,118.28-180,178.42-269.3,41.29-61.33,94-113.89,138.37-173.06C2306.27,3445.52,2330.59,3419.35,2363.16,3403Z"/><path class="cls-13" d="M1306.68,3328.7c102,33.74,206,59.12,312.66,73.44,89.94,91.6,161.65,197.36,235,301.88,24.76,35.29,47.9,71.83,74.68,105.58,20.39,25.71,25.37,54.12,14.7,82.57-51.88,138.41-97.56,278.93-135.72,421.52-33.79,126.28-71.75,251.44-102.25,378.63-16.83,70.17-38.72,139.06-57.83,208.65-36.62,133.32-61.77,269.68-106.5,400.81-3.46,10.15-4.28,21.23-12.92,29-15.55,9.37-32.37,8.44-49.11,5.29-118.81-22.37-238.59-39.9-355.77-70.51-24.85-6.49-48.49-9-67.85-26.13-4.26.54-16.08-7.16-25.52-5.36-3.47-3-21.15-10.15-24.22-11.27-4.85-1.78-45.44-18.16-103.47-44.42-22.76-10.3-76-80-77.27-117-4.21-123.62,15.74-244,48.78-362.88,7.53-27.09,24.89-61.26-21-75.42-2.89-6-2.92-12.22.67-17.54,85.35-126.49,107.86-277,157.48-416.91,41-115.71,78.28-232.86,117.68-349.22,1.79-5.28,3.56-10.42,4.14-15.64-6.27,22.94-13.09,45.85-24.4,66.06-81.08,144.88-150.91,295.53-228.44,442.21-46.78,88.49-90.83,178.33-135.75,267.74-12.3,24.49-23.27,51.14-54.65,58.13-57.49-22.33-108.7-56-160.17-89.23,18.25-58.87,38.73-117,55.64-176.37,14.74-51.84,37.53-102,61.87-150.35,45.09-89.53,88.48-180.67,142.55-264.72,65.61-102,137.77-199.69,227.09-284.46,29.5-28,54.72-63.18,84.81-92.63,46.71-45.71,91.14-93.85,139.36-137.87,33.49-30.57,46.3-74.34,76.33-106.7C1327.86,3344.24,1309.78,3338,1306.68,3328.7Z"/><path class="cls-14" d="M1576.17,5340.88l-43.35-2.54c-5-58.7,30.61-107.26,40.36-162.59,22.33-126.77,59.23-250.53,92.9-374.3,31.89-117.25,66.59-234.46,99.37-351.6,21.63-77.33,42.43-155.54,64.88-232.73,23.22-79.84,41.31-161.81,79.1-237.28,14-28,22.86-59.16,29.76-89.85,4.16-18.52,1-36.73-13-55.51-70.87-94.87-139.69-191.32-207.35-288.53-19.35-27.81-42.29-51.83-64.49-76.82-14.18-16-30.73-30.38-31.72-54,38.51-16.34,48.79,27,75.48,35.71,24.08,9.39,41.52,28.54,54.84,48.13,63.71,93.69,154.13,167.26,203.4,271.82,13.24,28.11,27.07,30.78,48.49,1.5C2081.93,3666.94,2164,3565.4,2250,3467.19c13.83-15.79,28.27-32.22,50.62-37.08,19.06-17.43,41.61-19.56,65.7-14.92-68.23,82.92-137.87,164.74-204.19,249.17-39.37,50.13-70.49,106.81-110.69,156.18-64.15,78.79-100.14,171.58-122.89,266.44-23.33,97.31-64.78,188.51-83.11,287.42-14.31,77.27-45.66,151.24-65.87,227.61-19.35,73.1-37.09,146.42-60.14,218.67-21.06,66.07-32.64,135-53.27,201.75-30.88,100-53.4,202.6-79.89,304C1584.88,5331.75,1579.63,5336.08,1576.17,5340.88Z"/><path class="cls-9" d="M2572.1,1452.15c92.31-149.33,239.58-214.75,399.38-260.12,92.14-26.17,185.82-42.8,282.39-38.32,22,1,38,3.17,42,30.44,22.17,152.53,40.34,305.14,19.56,459.41-14.87,110.49-66.43,204.22-140.1,285-33.9,37.15-38,66.71-16.58,113.08,72.63,157.32,118.92,322.28,127.65,496.79,14.45,288.79-105.16,504.72-350.35,654.44-83.11,50.75-304.93,144.68-315.32,147.28-87.54,21.93-313.75,55.77-337,63.25-79.58,8.44-159.46,7-239.24,6.34-109-.86-422.23-19.71-439.78-19-106.87-15.44-219-18.65-314.2-77,21.79,10.48-378-179.28-511.68-380.19-43.92-71.11-67.34-151.84-77.74-235.07-29.18-233.56,29-451.55,123.37-661.94,18.31-40.83,19.9-67.16-14.49-103.33C679.19,1795.76,642.73,1628,659.8,1442.63c7.61-82.66,9.18-165.87,22.47-248.15,4.2-26,12.47-41.37,43-41,209.85,2.51,405.07,51.42,576.93,177.21,43.09,31.54,80,69.88,100.87,118.32,18.07,41.91,41.7,54.75,83.15,38.55,10-3.9,20.62-6.14,31-9.14,161.39-55,329.9-44.45,495.83-48.15a2040.76,2040.76,0,0,1,385.49,27.61c34.08,5.77,67.83,16.64,100.55,29.14l18.28,1.66C2546.38,1492.67,2558.21,1470.87,2572.1,1452.15Z"/><path class="cls-15" d="M1439.78,2217.47c.5,41.05-27.5,69.74-68.33,70-37.07.26-66.81-28.58-68.44-66.36-1.53-35.67,33.91-72.25,69.7-71.94C1408.35,2149.5,1439.34,2181.05,1439.78,2217.47Z"/><path class="cls-16" d="M2675,2149.32c35.38-1.48,68.66,29.06,70.92,65.07,2.46,39.32-27.17,71.81-66.41,72.81-37.86,1-69.39-26.78-71.89-63.28C2605.23,2188.77,2639.52,2150.82,2675,2149.32Z"/><path class="cls-17" d="M2116.51,2815.64c115.36-13.63,210.6-62.14,278.72-159,6.46-9.18,11.56-31,29.54-17.77,14.79,10.86,2.85,26-3.59,37.26-35.37,62.17-90.29,104.09-152.52,134.72-38.07,18.75-81.06,27.57-121.93,40.54-24.2,7.68-36.42-3.11-39.58-26.85A15.65,15.65,0,0,1,2116.51,2815.64Z"/><path class="cls-18" d="M803.74,1262c197.77,27.9,362.12,73.79,465,237.94,17.78,28.38,21.85,60.14,32.38,90.26,6.7,19.19-6.05,31.59-20.28,42.41-92.86,70.65-177,151.37-263.57,229.25-50.09,45-74.32,45.12-124.81-1.91-97.06-90.4-131-208.76-143.46-334.44-6.8-68.63-4.26-138.49,17.23-205.54C775.37,1291.49,780.51,1256.67,803.74,1262Z"/><path class="cls-18" d="M3225.65,1455.19c1.19,157.5-36.82,277.84-121.46,382.57-16.7,20.67-38.23,35.73-60.87,48.26-22.88,12.67-47.75,14.41-67.93-6.64-83.28-86.87-178.67-160.18-269.43-238.54-31.58-27.27-33.78-53.36-24-87.82,24.63-86.94,86-146,157.69-191.64,94.54-60.27,201.32-88.41,313.42-97.65,34.76-2.87,44.38,13.75,52.95,41.79C3223.38,1362.38,3228.32,1420,3225.65,1455.19Z"/><path class="cls-19" d="M1691.94,2295.7c40.4-62.6,132.12-93.22,241.94-66,39.16,9.7,74,11.92,112.42,2.29,111.15-27.89,187.25-4.95,238.08,68.89,52.91,76.87,57.72,210.34,5.65,284.25-27.82,39.48-70.14,66.63-116.05,79.24C1747.18,2781.48,1570.87,2557.77,1691.94,2295.7Z"/><path class="cls-20" d="M1767.37,2424.27c.08-19.38,11.28-38.83,45.59-39.5,42.07-.83,65.86,25.77,65.76,75.77-.08,43.56-21.54,72.43-54,72.64C1792.86,2533.39,1768.69,2492,1767.37,2424.27Z"/><path class="cls-21" d="M2213,2440c-1.45,58.45-22.39,94.45-54.32,93.41-33.33-1.09-56-33.07-54.92-77.6,1.1-46.92,24.81-72.73,65.14-70.92C2204.12,2386.48,2214,2398.81,2213,2440Z"/><path class="cls-22" d="M3068.26,836.15c-7.08-39.82-29-77.81-53.93-113.1-23.59-33.3-83.22-29.36-83.31-84.14,0-.5-2.75-.93-4.16-1.51-41.36-17-76.46-44.48-113.5-68.63-24.45-15.95-39.39-37.21-38.35-68.68,2.16-65-12-127.94-39-186.14-27.27-58.81-50.71-120.67-109.44-160.16-89.64-60.27-185-81.64-293.66-75.64-103.06,5.69-189,31.54-251.85,116.55-11.52,15.57-27.24,22.05-42.89,5.17-38.39-41.42-63.7-98.31-129-107.29-24.39-64.84-86.53-45-133-55.34-27.64-6.15-70.29-3.08-87.33,14.32-29.08,29.69-67.15,46.17-93.34,82.5-51.64,71.67-97,142.1-99,233.39-.63,28.83-14.79,39.3-36.35,16.4-17.11-18.18-40.66-24.3-58.08-20.79-55.6,11.2-111.79,5.64-167.6,12.12-126,14.62-203.19,87.72-255.31,193.63C950.5,627,952,693.24,961.47,755c8,52.49,37.85,98.36,84.53,131.32,39.29,27.73,83.17,45.46,126.88,62.15,30.06,11.48,30.52,18.2,15.3,44.55-28.13,48.7-18.83,101.39,17.82,140.7,22,23.58,117.53,47.87,146.09,36.72,5.6-2.19,10.49-6.39,15.45-10,32.84-24,79.36-19.34,108.16-51.72,26.67-18.75,55.33-32.72,87.44-40.06,3.88-.88,7.75-1.81,11.62-2.74-26.22,11.77-52.15,24.48-78.27,36.64,13.67,86.67,82.86,177.3,49,257.79-21.59,51.38-47.86,83.18-29.62,81.64,10.73-.12,21.93,2.09,32.15-.71,133-36.49,269.07-35.59,403.9-39.56,184-5.42,438.49,34.22,545.82,50.49,23.59,10.68-1.38-16.59-15.75-19.63-29.46-6.22-35.1-8.44-32-41.82,9.24-98.15,11.27-197.41,33.11-293.4l7.51,2.1c46,2.64,90.75,14.27,136,21,140.11,20.84,260.5-16.61,365.11-107.29C3044.32,967.58,3081.07,908.23,3068.26,836.15Z"/><path class="cls-23" d="M2471.74,1162.54c-9.94,2.8-21.95,10.76-29.47,7.59-57.31-24.19-119.22-26-178.71-38.19-45.8-9.36-90-32.33-138.48-25.67-39.61,5.44-75.54-15.54-113.42-16.39-117.92-2.65-232.08,22.46-347.17,47-55.21,11.76-100.65,58.28-161.44,44.37q-10.15-32.79-20.32-65.59c-.29-25.41,18.29-34,36.84-40.35,181.67-62.12,367.85-97.26,559.54-78.07,127.79,12.8,250.95,51.94,373.87,89.37,11.19,3.41,19.16,8,22.1,19.79Q2473.43,1134.45,2471.74,1162.54Z"/><path class="cls-24" d="M2370.53,4702.09c21.45,1.44,36.61,11,36.24,35.94-.39,25.9-19.5,34.06-39.84,34.39-21.66.36-38.13-11.24-36.89-36.19C2331.24,4712.13,2346,4701.76,2370.53,4702.09Z"/><path class="cls-25" d="M1976.16,4738.4c-2.84,19.55-14.92,30.54-36.17,31.82-23.28,1.39-40.81-8.28-39.77-32.25.78-18,10.69-34.61,34.58-35C1958.85,4702.64,1971.41,4714.3,1976.16,4738.4Z"/><path class="cls-26" d="M2362,4426.32c-19.39-2.28-36.14-9.71-37.39-32.11-1.22-21.66,11.1-34.81,33.12-35.58,22.25-.79,40.4,6.9,40.32,32.78C2397.94,4413.42,2383.09,4423.38,2362,4426.32Z"/><path class="cls-27" d="M1933.12,4358.07c26.33-.07,38.52,10.31,40.14,32.79,1.78,24.65-14.43,33.41-34,34-20.66.58-36.44-12.8-37.94-33.09C1899.63,4369.32,1917.84,4361.5,1933.12,4358.07Z"/></g></g></svg>