<svg xmlns="http://www.w3.org/2000/svg" viewBox="0 0 4497.38 5289.11"><defs><style>.cls-1{fill:#de8846;stroke:#de8846;}.cls-1,.cls-11,.cls-15,.cls-16,.cls-17,.cls-18,.cls-19,.cls-2,.cls-21,.cls-3,.cls-39,.cls-4,.cls-40,.cls-41,.cls-42,.cls-43,.cls-5,.cls-6,.cls-7,.cls-9{stroke-miterlimit:10;}.cls-1,.cls-11,.cls-15,.cls-16,.cls-17,.cls-18,.cls-19,.cls-2,.cls-4,.cls-5,.cls-7,.cls-9{stroke-width:68.66px;}.cls-2{fill:#f4d4b8;stroke:#f2c8a5;}.cls-3{fill:#c9774a;stroke:#bb6a35;stroke-width:70.72px;}.cls-4{fill:#c97749;stroke:#bb6a34;}.cls-5{fill:#e69d96;stroke:#e59695;}.cls-6{fill:#e38d54;stroke-width:71.47px;}.cls-11,.cls-6{stroke:#e28844;}.cls-7{fill:#f4edd9;stroke:#eee2c4;}.cls-8{fill:#32ade4;}.cls-9{fill:#eeb789;stroke:#ebad74;}.cls-10{fill:#3b342e;}.cls-11{fill:#e38d53;}.cls-12{fill:#292928;}.cls-13{fill:#ebac72;}.cls-14{fill:#e18946;}.cls-15{fill:#e2be7d;}.cls-15,.cls-18{stroke:#e4be5e;}.cls-16{fill:#f7dc8e;stroke:#f7d775;}.cls-17{fill:#f7dc8d;stroke:#f6d774;}.cls-18{fill:#e5bd6f;}.cls-19{fill:#f6eed6;stroke:#f8e9c1;}.cls-20{fill:#46454c;}.cls-21{fill:#cc5861;stroke:#bb3a44;stroke-width:10.4px;}.cls-22{fill:#da6631;}.cls-23{fill:#da662f;}.cls-24{fill:#da652f;}.cls-25{fill:#da6733;}.cls-26{fill:#da6530;}.cls-27{fill:#da6430;}.cls-28{fill:#da6531;}.cls-29{fill:#da642f;}.cls-30{fill:#d96430;}.cls-31{fill:#db6935;}.cls-32{fill:#db6933;}.cls-33{fill:#da6632;}.cls-34{fill:#da6732;}.cls-35{fill:#da6431;}.cls-36{fill:#d96431;}.cls-37{fill:#d96331;}.cls-38{fill:#d96330;}.cls-39{fill:#0f9549;stroke:#4ca347;stroke-width:8.45px;}.cls-40{fill:#78757a;}.cls-40,.cls-41,.cls-42,.cls-43{stroke:#676666;stroke-width:21.46px;}.cls-41{fill:#797b7a;}.cls-42{fill:#78797a;}.cls-43{fill:#797877;}</style></defs><g id="Livello_2" data-name="Livello 2"><g id="Livello_7" data-name="Livello 7"><path class="cls-1" d="M2758.05,2933.65C2657,3047,2656.88,3047.12,2534.68,2966.12c-16.1-10.68-30.91-23.29-46.32-35C2578.08,2950.5,2668,2951.79,2758.05,2933.65Z"/><path class="cls-2" d="M452.75,2459.08C298.17,2437.65,206.19,2331.67,138,2207.72c-143.85-261.28-155.54-592.07,77.91-854.43,68.2-55.79,142.22-99.06,232.25-108.27,294.82-44.14,522.48,53.61,707.46,266.94,158.83,183.27,289.49,418.58,308.56,658.51,11.92,149.57-15.74,342.82-34.13,492.18-30.88,29-75.62-33.37-96.22-48.55-34.69-25.55-67.58-53.7-102.33-79.33-19.28-93.63-60.38-181.06-78.84-275.07-4.13-21-9.1-47.8-36.9-47.8-26.57,0-32.78,26.13-40.43,46.45-36.59,97.15-30.7,197.24-19.36,297.61,28.17,207.53,85.42,402.62,237.16,557.59,22.8,31.67,56.29,56.49,63.17,98.42,10.71,173.71-5.18,348.18,18.08,521.67,11.17,83.25,21.63,165.49,69,237.62,15.94,68.95-6,136.3-18.18,201.66-20.13,108.29-.72,187.71,107.83,231.71,15.74,6.38,28.16,19.13,37.16,34.33,11.59,39.23,58.14,337.64,24.34,377.86-262.94-5.83-580.62-232.76-762.66-439.52-159-164.69-242.2-337.77-275.27-542.06-48.27-326.09,31.95-636.16,123.61-943.55C735.87,2705,795.8,2519.14,894.45,2324.78l-101.36,61.93C787.84,2404.23,569.88,2487.32,452.75,2459.08Z"/><path class="cls-3" d="M1197.1,1018.73c20.77,124.84,95.53,174.1,220.4,147.91,57.18-12,105.29-45.41,160-62.82,68.54.33,111.19,52.76,164.41,83.5,45.7,26.4,86.48,60.41,128.46,92.43,30.44,27.21,48.68,61.21,55.45,101.52-45,55.35-81,116-98.72,185.48-9.55,37.43-31.08,45.17-65.62,44.84-100.38-.94-200.73-4.17-300.67,14-84.63,15.37-110,64.14-66,138.34,53.78,90.56,119.76,108,215.62,60.34,26-12.93,46.54-38.1,88.94-40.27-31.31,94.29-48.5,185.93-48.12,281.81,1,239,116.76,422,270.59,588.53,17,18.39,33.59,37.14,50.37,55.73,4.57,58.49-30.24,94.85-79.31,103.13-129,21.75-268.27,77.93-384.35,9.77-17.66-10.36-46.19-62.78-50.29-84.42,3.1-227.75,38.78-487.37-19-709.49-93-357.25-293.73-622.35-662-729.41-90.48-26.3-379.84-6-380.65-65C401.73,1193.77,949.23,991.33,1197.1,1018.73Z"/><path class="cls-4" d="M1566.56,3575.09c-39.19,126-67.38,254.58-87.72,384.92-45.76.18-43.61-41.6-52.7-67.23-37.86-106.82-38.89-220.29-45.61-331.43-7.63-126.33-2-253.47-2.08-380.25,5.08-5.32,12.5-11.92,18.35-8.63,78.59,44.18,165.33,71.07,243.76,115.47q-22.21,92-44.44,184C1577.36,3503.76,1569.68,3538.77,1566.56,3575.09Z"/><path class="cls-5" d="M3822.42,2027.73c-18.1-85.14,21.75-139.63,92.46-179.84,14.41-8.19,33-12.26,34.13-40.59,4.49-116.8,55-161.32,180.8-167.45,15.69,13.15,8.51,31.47,11.11,47.71,10.55,65.82,60.49,100.17,125.49,86.52,18.4-3.86,36.44-16.74,54.92-.49,36,41.54,30.53,105.37,99.68,134.56,50.81,21.44,6.56,91.75,5.41,140.27-16.87,56.42-65.49,72.28-113.5,88.95-50.19-.18-50.58-72.9-91.93-70.85-36.06,1.78-41.34,66.23-88.72,66.86-21.88-6.83-35-24.18-49-40.63-12.13-14.23-18.61-32.61-33.53-45.92-26.31,30.55-41,71.51-82.33,86.77C3908.62,2112.72,3852,2088.72,3822.42,2027.73Z"/><path class="cls-6" d="M3285.87,4651.46c-17.89,138.71-31.49,360.43-65.07,496.67-16.43,66.66-46.75,104.35-109.54,105-65.28.66-110.62-31.37-133.6-101.21-17.65-53.64-17.53-109.7-24.65-164.42-6.36-48.89-28.68-73.7-69.17-77.45-291.32-27-582.83-27.83-874.17-.32-36.75,3.47-58.57,24.95-66.63,70.74-10.48,59.62-11.19,121-31.57,179.36-23.74,67.91-70.32,93.07-131.07,93.55-59.79.48-92.75-37.13-107.76-98.48-33.88-138.45-48.62-280.42-68.5-421.47l-9.63-125c14.9-21,35.47-15.58,53.49-10.3C1772.39,4634.53,3098.62,4679.57,3285.87,4651.46Z"/><path class="cls-7" d="M1422.9,2714.43c114.32,86.63,245.69,98.85,382.44,87.67,53.4-4.36,66.6-51.34,91.47-86,59.47,50.52,128.21,86.86,194.29,127.11l336.35,274.08c-13.48,15.9-23.28,30.33-35.79,41.8-129.65,118.8-178,271.57-186.62,441.53-1.37,26.91-124.14,1018.42-122.49,1044.89,3.08,49.63-668.47-28.48-765.74-86.93-64.27-70.52,241.2-1119,295-1179.05-248-88-263.93-116.22-335.3-162.35-157.78-108.52-191-376.32-215.45-565.74-.61-3,5.55-7.33,8.55-11,61.48-23.88,123.45-44.62,191-30.21C1334.69,2613.78,1360.66,2692.36,1422.9,2714.43Z"/><path class="cls-7" d="M3552.56,4626.51c-324.09,63.19-944.33,44.88-1273.25,34.79-69.25-2.13,82.37-872,85.3-926.82,10.85-203.35,67.45-363.84,226-486.56,166.25-128.66,323.45-269,484.62-404.23,0,0,4.5,2.21,4.52,2.2,72.33,208.91,276.2,290.37,477.66,193.19,139.85-67.46,249.18-162,298.27-314.62,58.19,30.24,132.18,22.19,181.16,74.75-26.64,163.76-97.79,309.57-178,452.58-42.16,72.94-88.8,123-163.43,177.15-98.25,75.29-197.81,83-411.61,20.22C3399.44,3635.56,3646.83,4633,3552.56,4626.51Z"/><path class="cls-8" d="M2194.6,3896.19c-3.07,65.26-75.38,576.56-81.18,629.12-4.38,39.63-37.2,104.41-6.34,143.19,34.37,19.39,69.85,26.87,107.92,6.48,14.9-21.24,25.56-69.1,29.3-93.22,16.88-108.62,113.12-844.16,117.09-884.48,14.69-149,45.26-289.68,169.34-394.52q256-216.32,512.43-432.09c21.1-17.65,40-36.35,46.49-64.35-17.86-4.06-32.77,3.87-49,9.91-116.68,43.53-235.95,77.8-359.43,96.09-78.49,84.87-159.63,78-243.35,7.84-6.78-5.68-18.84-3.4-26.35-10.37l1.16.58c-84.45-26-275.18-128.4-367.37-118.06-27.29,37.15,116.69,115.31,136.21,132.09,54,46.43,110.76,89.73,166.48,134.19,97.32,77.65,99.47,79.92,19.34,171.44-72.58,82.91-112.95,176.54-122.65,285.79-4.11,46.35-12.65,92.43-17.13,138.92-3.68,38.17-40.93,243.46-33,241.45"/><path class="cls-9" d="M3110.89,2783.66c-128.15,50.91-261,81.44-398.29,99.27-84.16,15.75-168.18,22.44-251.64-3.79a129.58,129.58,0,0,1-21.75-8.12c-151.55-75.63-250.62-202.16-333.09-344.71-12.46-21.53-17-54.52-56.08-26.81-11.49,8.16-36.16,3.17-46.85-12.08-14.18-20.22-.91-39.11,14.12-51.44,36.23-29.74,27-63.3,15.27-100.22-154.13-483.29,176.22-868.13,545.55-966.91,173.5-46.4,350.52-76,526.87-108.71,43-8,273.41-61.48,332.66-57.35,63.28,54.27,124,111.48,201.84,146.48,35.27,15.87,58.71,46.39,59.91,86.85,3.87,130,7.84,260.58-21.38,388.33-15.76,68.92-65.39,177.81-20.13,68.64,31.46-75.9,34-157.21,43.1-237.26,2.65-23.37-7.88-50.17,17.28-67.82C3795.29,1728,3671.09,2509.91,3110.89,2783.66Z"/><path class="cls-10" d="M2537.33,1757.83c59.24,35.53,112,97.19,189.22,50,73.76-45.11,36.15-119.59,34.36-191.42,61.15,78.5,50.87,172.81-15.68,216.21C2670.53,1881.28,2581.45,1852.36,2537.33,1757.83Z"/><path class="cls-11" d="M2447.52,2876.35c-80.09,15.81-357.25-49-490.65-176.48-98.64-80.93-168.12-184.7-228.63-294.9-81.16-147.79-100-306-73.38-470.92,4.59-28.42,13.73-56.11,17.43-84.5-23-7.6-35.93,7-50.76,13.65-94.77,42.28-163.2,21.71-219.39-66.87-51-80.38-24.62-142.8,68.28-163.1,82.22-18,165.65-21.42,249-16.36,60.61,3.68,96.56-16.69,114.66-76.84,14.87-49.38,44.61-92.66,77.7-132.72,117.07-127.66,273.65-180.92,432.76-229.38,80.11-16.26,151.74-52.41,219.52-96.33,15.35-9.95,32.34-25.72,38.89-.72,12.15,46.46,23.59,13.28,39.38,4.5,19.69-11,37.57-45.65,61.09-25.44,24,20.64-19,39.37-14.93,72.34,241.32,10.89,483.8,38.68,727.12.34,34.16,24.36,29.86,55.17,14.74,87.8-52.11,30-104.22,57.94-162.64,13.07-4.5-3.47-16.07-5.08-19-2.16-90.39,89.52-213.58,66.82-321.88,94-204.72,51.36-424.79,59.35-598.64,199.14-288.64,232.09-358.34,447.89-286.38,786.72C2058,2365.53,2459.09,2891.5,2447.52,2876.35Z"/><path class="cls-12" d="M3440.13,1223.62q-7.37-43.92-14.73-87.81c175.77-121.94,267.45,21.6,285.6,191.49,9.89,92.5,12.39,185.8,18.22,278.72-4.35,85.59-8.24,171.37-27.17,255.27-27.08,120-75.45,162.78-164.55,162.4-76.39-.32-194.39-99.72-187.68-201.85,29.47.93,30.32,26.13,37.68,44.17,18.3,44.85,49.1,79.37,89.35,104.44,73.34,45.66,143,24.89,172.05-56.25,55.63-155.66,52.69-317.54,41.81-479.68-2.05-30.57-24-36.64-46.31-48.85C3567.36,1343.51,3487.49,1303.66,3440.13,1223.62Z"/><path class="cls-13" d="M1771,1742.42c-70.21,60.48-134.55,80.09-202.43,90.1-35.79,5.28-67.24-11-74.58-44.5-7.82-35.73,24.29-48.13,54.51-56.17C1617.69,1713.45,1683.36,1736.91,1771,1742.42Z"/><path class="cls-14" d="M2469.07,1736.13c-44.25-58.49-45.6-111-17.74-165.15,15.31-29.81,44.87-32.8,69.81-20.92,29.62,14.11,11.82,40.7-.2,55.84C2492.4,1641.86,2492.92,1688.22,2469.07,1736.13Z"/><path class="cls-9" d="M1255.22,2565.34c-62.7,16.13-124.26,39.48-191,30.21-30.89-112.1-20.07-222.11,18.45-330.1,8.85-24.8,19.51-51.5,53.84-52.07,36.1-.59,42.06,26.17,49.8,52.68,24.53,84,48.66,168.23,75.53,251.53C1268.09,2536.89,1264,2550.35,1255.22,2565.34Z"/><path class="cls-9" d="M4062.11,2750c-59.35-27.45-135.32-14.58-181.16-74.76,13.15-29.67,37.94-49.13,61.28-69.88,103.31-41.51,206.58-41.94,309.81.29-7.44,71.84-50.87,119.72-120.21,129.06C4108,2738,4083.79,2737.63,4062.11,2750Z"/><path class="cls-15" d="M4302.24,2126.32q59.1-41,118.19-81.92c13,8.85,48.56-41.89,41.76,10.77-18.8,145.64-44.07,290.44-66.79,435.57-34.1,32.13-70.92,26.93-108.75,8-30.08-37.82-22.06-82.95-21.15-125.47C4267.29,2289.63,4264.59,2204.81,4302.24,2126.32Z"/><path class="cls-16" d="M3816.41,2023.7l145.86,99.85c32.85,122.6,55.73,245.73,19.47,372-36.95,22.62-73.09,26.37-107.66-4.77q-35.62-222.15-71.08-444.34C3802.38,2035.68,3817.67,2022.6,3816.41,2023.7Z"/><path class="cls-17" d="M4287.35,2490.84H4125.5c-19.44-18.65-24.07-43.54-22.11-67.81,8-98.53-25.42-200.17,21.82-295.72,2.2-1,4.65-1.74,6.57-3.17,35.3-26.35,47.16-91,87.94-90.92s43.66,70.07,82.52,93.09C4303.89,2248.1,4277,2368.71,4287.35,2490.84Z"/><path class="cls-18" d="M4125.21,2127.31q.15,181.76.29,363.53l-148,.08c9.59-123.07-22.83-244.39-15.26-367.37,1.41-2,2.69-4.13,4.26-6C4046.7,2022.05,4046.71,2022.05,4125.21,2127.31Z"/><path class="cls-19" d="M2433.22,385.71c-46.94-60.6-122.21-74-196.6-26.42-53.93,34.52-62.81,26.65-69.86-37-23.06-208.07-133.31-347-372.45-263.15a892.56,892.56,0,0,0-101.21,43.06c-129.31,64.19-174,161.65-137,299.69,12,44.64,11.22,62.43-46.65,51-165.21-32.63-289,31.69-341.67,168.78-29.87,77.73-4.34,138.35,72.27,172.83,27.41,12.33,61.25,12,84.56,39.73-67.9,41.72-108.67,95.55-101,176.17-16.72,81.31,35.11,151.26,122,162.91,89.41,12,169.23-14.9,243.31-63.12,43.17-40.8,76-90.17,113.51-135.61-7.23,31.41,44.25,102.05,57.19,127.42,31.79,62.35,73.35,118.52,113.51,175.54l59.74,86.19c45.75-56,106.26-91,170.65-120.87,81.18-37.63,162-76.07,243-114.17,3.55-40.21-6.51-76.45-26.55-111.77-37.25-65.66-101.5-192.83-137.2-259.36-14.62-37.87,20.05-37.41,38.5-47.79,68.21-38.36,137.94-75.51,192.15-132.68C2475.65,511.46,2479.92,446,2433.22,385.71ZM1714.36,960.47q6.14-4.56,12.28-9.05-12.24,11.4-24.21,23.19C1706.35,969.85,1710.31,965.12,1714.36,960.47Z"/><path class="cls-8" d="M2266.18,839.81c-201.11,30-384.45,99.71-536,240.22-49.44-10.46-53.14-47.22-50.41-87.67,164.16-123.64,336.66-226.16,552.75-218.21Z"/><path class="cls-2" d="M894.45,2324.78c171.16-184.2,12.31-827.67-325.19-458.24C335.32,2122.6,699.12,2210.77,702,2073.87"/><path class="cls-20" d="M4286,2555.48l-309.81-.28c-33.8-.9-67.88.51-101.29-3.54-21.89-2.65-57.53,19-61.84-25-5.2-53.16,39.88-25,61-35.82l103.46.1c46.12-31,98-17,147.88-19.09,54.4,2.62,111.08-13.79,161.93,19l108-.11c20.9,7.76,58.54-12.87,55.23,35.5-3,43.81-35.06,23.61-54.63,25.65C4359.58,2555.67,4322.67,2554.56,4286,2555.48Z"/><path class="cls-21" d="M4213.63,1579.42a55.47,55.47,0,0,1,22.6,1.06c11.67,3.08,21.75,9.43,30.5,18.18,17.42,17.42,27.76,38.28,32.4,61.56a316.54,316.54,0,0,1,6.36,57.52c.15,11.41-1.48,22.39-6.55,32.22-7.37,14.28-19.41,21.92-35.6,23.64-16,1.69-31.94-1-47.82-5.65-24-7-46.76-17.41-67.52-32.72-11.22-8.27-20.73-18.27-27.38-30.7s-7.87-25-4.32-37.69c.09-.33.14-.68.22-1,.53-.91,1.53-1.06,2.44-1.3a10.71,10.71,0,0,0,8.27-8.58c.11-.48.29-.93.38-1.4.43-2.21,1.77-3.33,3.73-4.36a45,45,0,0,0,15.25-12.61,14.09,14.09,0,0,0,2.47-7.79c.17-2.85.19-2.88,3.11-2.48a17.25,17.25,0,0,0,5.61-.23c5.83-1.11,11.35-3.06,17-4.68,2-.57,2.3-1.77.74-3.48a19.87,19.87,0,0,1-4-7.33,3,3,0,0,1,.82-3.59c2.58-2.13,4.87-4.62,7.8-6.35a11.06,11.06,0,0,0,2.89-2.78,5.88,5.88,0,0,1,4.92-2.36c5.06,0,9.23-2.25,13.27-4.76a33,33,0,0,0,10.95-11.1C4212.5,1580.08,4212.78,1579.4,4213.63,1579.42Z"/><path class="cls-22" d="M4155.28,1699.46a3.8,3.8,0,0,1-5.56-.63c-2.28-3.07-3-6.35-.82-8.06a4,4,0,0,1,5.49.68C4156.55,1694.24,4157.58,1698.31,4155.28,1699.46Z"/><path class="cls-23" d="M4191.9,1646.28c-2.28,1.9-4.87.93-6.21-2.23-.49-1.16-1.68-2-1.54-3.49.18-1.88.89-3.21,2.7-3.59a4,4,0,0,1,4.83,2.33c.46.84.75,1.75,1.2,2.59A3.1,3.1,0,0,1,4191.9,1646.28Z"/><path class="cls-23" d="M4205,1737.24c3,3.53,2.7,7.45-.68,8.54a3.32,3.32,0,0,1-4.06-1.47,14.11,14.11,0,0,1-2-3.63,3.83,3.83,0,0,1,1.79-4.78A4.31,4.31,0,0,1,4205,1737.24Z"/><path class="cls-24" d="M4231.18,1752.6c-1.68,1.47-3.08,1.4-4.52-.23-1.64-1.85-1.75-4.35-.25-5.72s3.37-1,5,.76A3.4,3.4,0,0,1,4231.18,1752.6Z"/><path class="cls-25" d="M4260.61,1626.06c1.42,1.69,1.46,4.23.08,5.4a3.41,3.41,0,0,1-4.92-.51c-1.33-1.56-1.26-4.73.14-5.85S4259.21,1624.4,4260.61,1626.06Z"/><path class="cls-24" d="M4230.27,1701.83a2.93,2.93,0,0,1-4.55-.35c-1.35-1.62-1.29-4.54.13-5.84,1.26-1.15,3.3-.69,4.83,1.1S4232.09,1700.26,4230.27,1701.83Z"/><path class="cls-26" d="M4181.32,1662.73c1.61,1.79,1.6,3.68,0,5.23a3.23,3.23,0,0,1-4.67-.2c-1.36-1.48-1.38-4.56,0-5.76S4179.69,1660.92,4181.32,1662.73Z"/><path class="cls-27" d="M4245.4,1673.2c1.64-1.43,2.67-1.31,4.23.48,1.74,2,1.76,3.84.07,5.32a3.12,3.12,0,0,1-4.76-.27A3.81,3.81,0,0,1,4245.4,1673.2Z"/><path class="cls-24" d="M4196.09,1671.75c-1.54-1.76-1.61-3.41-.21-4.61a3.73,3.73,0,0,1,5.1.37,3.35,3.35,0,0,1-.24,4.85C4199.09,1673.84,4197.76,1673.66,4196.09,1671.75Z"/><path class="cls-28" d="M4208.55,1645.47c1.43,1.68,1.46,3.48.09,4.61s-3.4.87-4.84-.81c-1.23-1.43-1.33-3.81-.2-4.83C4205,1643.22,4207,1643.65,4208.55,1645.47Z"/><path class="cls-26" d="M4127.65,1681c1.31,1.61,1.27,3.61-.11,4.69-1.2.94-3.45.5-4.52-.89-1.3-1.7-1.25-3.58.13-4.75C4124.33,1679,4126.41,1679.46,4127.65,1681Z"/><path class="cls-29" d="M4226.49,1668.59c1.28,1.54,1.27,3.47,0,4.5s-3.07.7-4.56-1.15c-1.29-1.58-1.3-3.21,0-4.31S4225.1,1666.92,4226.49,1668.59Z"/><path class="cls-30" d="M4209.92,1714.68c1.2,1.44,1.2,3.87,0,4.79s-3.42.37-4.61-1-1.2-3.46-.08-4.4A3.35,3.35,0,0,1,4209.92,1714.68Z"/><path class="cls-27" d="M4205.28,1594.38c1.21-1,3.33-.51,4.64,1.11,1.11,1.37,1.08,3.42-.06,4.36-1.45,1.2-2.92.86-4.52-1C4203.88,1597.06,4203.86,1595.57,4205.28,1594.38Z"/><path class="cls-27" d="M4282.37,1696c-1.4-1.61-1.43-3.29-.1-4.42a3,3,0,0,1,4.24.58c1.49,1.7,1.7,3.76.49,4.74S4283.76,1697.58,4282.37,1696Z"/><path class="cls-31" d="M4261,1723.67c1.65,1.89,1.71,3.27.19,4.57s-2.79,1-4.36-.78-1.54-3,0-4.37S4259.58,1722,4261,1723.67Z"/><path class="cls-26" d="M4194.75,1614.85c1.63,1.87,1.73,3.14.34,4.37s-3.35.8-4.64-.75c-1.13-1.34-1.22-3.56-.19-4.47C4191.7,1612.72,4193.13,1613,4194.75,1614.85Z"/><path class="cls-28" d="M4164,1717.82c1.38,1.56,1.51,3.47.31,4.56s-3.12.79-4.47-.74-1.51-3.47-.32-4.56S4162.67,1716.28,4164,1717.82Z"/><path class="cls-30" d="M4276.14,1654.44c1.16,1.33,1.22,3.43.12,4.41-1.4,1.24-3.15.93-4.81-.86a3.59,3.59,0,0,1,0-4.29C4272.47,1652.64,4274.9,1653,4276.14,1654.44Z"/><path class="cls-32" d="M4159.18,1645.27c-1.43-1.65-1.57-3.42-.35-4.53s3.49-.51,4.73,1a3.12,3.12,0,0,1,0,4.36C4162.07,1647.31,4160.75,1647.07,4159.18,1645.27Z"/><path class="cls-24" d="M4284.94,1734.59c-1.5-1.71-1.69-3.45-.52-4.54a3.22,3.22,0,0,1,4.54.56c1.32,1.44,1.47,3.54.33,4.58C4287.88,1736.47,4286.4,1736.27,4284.94,1734.59Z"/><path class="cls-33" d="M4252.17,1649.57c1.57,1.78,1.64,3.37.2,4.6s-2.88.88-4.37-.81-1.53-3,0-4.33S4250.73,1648,4252.17,1649.57Z"/><path class="cls-26" d="M4228,1643.85c1.59,1.89,1.66,3.43.23,4.64-1.19,1-3.22.58-4.48-.93a3.29,3.29,0,0,1-.05-4.58C4224.76,1642,4226.78,1642.44,4228,1643.85Z"/><path class="cls-26" d="M4175.53,1686.56c1.42-1.25,3.05-1,4.56.63,1.07,1.17,1.11,3.37.08,4.23a3.29,3.29,0,0,1-4.7-.42C4174.18,1689.46,4174.21,1687.73,4175.53,1686.56Z"/><path class="cls-34" d="M4259.55,1757.63a3,3,0,0,1,0-4.29c1.22-1,3.29-.53,4.62,1.15a3.2,3.2,0,0,1-.12,4.4C4262.73,1760,4261.18,1759.59,4259.55,1757.63Z"/><path class="cls-26" d="M4137.88,1662.49c-1.63,1.43-2.68,1.31-4.22-.49-1.37-1.59-1.47-3.41-.26-4.51s3.07-.8,4.43.73C4139.45,1660,4139.46,1661.1,4137.88,1662.49Z"/><path class="cls-24" d="M4237.55,1724.35c-1.53-1.73-1.76-3.41-.63-4.52s3.64-.6,4.8.71a3.09,3.09,0,0,1,.16,4.35C4240.52,1726.16,4239,1726,4237.55,1724.35Z"/><path class="cls-26" d="M4251,1704.14c-1.49-1.73-1.55-3-.2-4.23a3.13,3.13,0,0,1,4.48.54c1.46,1.65,1.48,3.26.07,4.46S4252.49,1705.88,4251,1704.14Z"/><path class="cls-35" d="M4234.81,1622a2.48,2.48,0,0,1,3.83.35c1.24,1.5,1.14,4.22-.14,5.37s-2.53.6-3.65-.57C4233.55,1625.79,4233.57,1623.1,4234.81,1622Z"/><path class="cls-26" d="M4203.3,1691.49c.77-.56,2-.54,3.21.84s1.2,4.24-.07,5.35-2.48.63-3.56-.43A4,4,0,0,1,4203.3,1691.49Z"/><path class="cls-36" d="M4189.72,1717.24c.76,1.15.94,2.36-.23,3.4s-2.66.77-3.83-.66c-1-1.23-1-3,.17-3.73C4187.17,1715.36,4188.44,1715.81,4189.72,1717.24Z"/><path class="cls-31" d="M4152.77,1667.89c1.08-.72,2.37-.21,3.31,1s1.39,2.51.18,3.61-2.79.75-4-.76C4151.16,1670.4,4151.27,1669.13,4152.77,1667.89Z"/><path class="cls-35" d="M4276.94,1742.55c1,.94,1.56,2.07.28,3.1-1.12.9-2.36,1.3-3.67-.19-1.18-1.33-1.26-3.24-.07-4.16C4274.92,1740.19,4275.89,1741.31,4276.94,1742.55Z"/><path class="cls-30" d="M4229.77,1600.44c.48,1.19,1.82,2.34.46,3.59a2.87,2.87,0,0,1-3.93-.22,3.23,3.23,0,0,1,.1-4C4227.63,1598.68,4228.69,1599.58,4229.77,1600.44Z"/><path class="cls-37" d="M4219.35,1623.51a1.94,1.94,0,0,1-.19,3.24,2.42,2.42,0,0,1-3.71-.37c-1.32-1.45-.76-2.74.25-3.72C4216.87,1621.53,4218.1,1622.08,4219.35,1623.51Z"/><path class="cls-37" d="M4217.53,1733.3c-1.45-1.6-1.12-2.81,0-3.83s2.57-.56,3.51.61,1.41,2.48-.05,3.51C4219.74,1734.49,4218.56,1734.74,4217.53,1733.3Z"/><path class="cls-28" d="M4269.1,1685.25c-1,.76-2.27.8-3.47-.55a2.81,2.81,0,0,1,0-4c1.06-1.24,2.37-.13,3.33.64A2.53,2.53,0,0,1,4269.1,1685.25Z"/><path class="cls-38" d="M4277.56,1713.76c1.08,1.13,1.51,2.28.43,3.37s-2.84.66-3.93-.6a2.47,2.47,0,0,1,.21-3.72C4275.54,1711.53,4276.63,1712.65,4277.56,1713.76Z"/><path class="cls-33" d="M4251.16,1604.14c1.18,1.29,1.79,2.61.47,3.78-1.13,1-2.39.75-3.53-.5s-1.29-3,0-3.91A2,2,0,0,1,4251.16,1604.14Z"/><path class="cls-28" d="M4247.71,1744.62c-1.25-1.29-1.26-2.41-.05-3.47s2.41-.68,3.56.67,1.32,2.33.09,3.29A2.24,2.24,0,0,1,4247.71,1744.62Z"/><path class="cls-39" d="M4232.32,1585.59c-9.72,6.32-20.74,9.2-31.78,12.12-4,1-7.81,2.68-12,4.13a45.63,45.63,0,0,1,6.66,5.65,60.26,60.26,0,0,1,9.62,14.72c.75,1.55,1.44,3.13,2.11,4.71.84,2,.13,3.06-2,3.18a45.64,45.64,0,0,1-7.84-.23c-.4,0-.81-.23-1.22,0a10.2,10.2,0,0,1-6.19-1.24c-4.42-1.35-8.86-2.59-13.41-4.41a99.52,99.52,0,0,1,5.83,14c2,6.06,3.23,12.19,1.54,18.55-1.09,4.08-3.29,5-7,3-3.23-1.74-6.65-3.15-9.74-5.16-4.83-3.16-8.12-7.82-11.69-12.19-.49-.59-.92-1.23-1.7-2.29-.19,3.3-.31,6.13-.53,8.94a50.2,50.2,0,0,1-3.63,14.66,45.92,45.92,0,0,0-1.53,4.74c-.77,2.76-1.05,5.49.74,8,.72,1,1,2.11-.36,2.84s-2.43.09-3.15-1.11c-1-1.74-1.79-3.61-2.9-5.31a141.26,141.26,0,0,1-7.91-12.67c-2.73-5.34-3.78-11-4.43-16.89,0-.23-.05-.46-.12-1.18a99.49,99.49,0,0,1-13.37,18,52,52,0,0,1-5.57,5c-.82.59-1.71,1.21-2.78.52s-1-1.63-.86-2.7c1.73-12.11,6.08-23.08,13.92-32.59,5.46-6.63,10.85-13.31,17.67-18.64,2.63-2,5.32-4,8-6,1-.74,1-1.25.18-2.21a77.51,77.51,0,0,0-16.34-13.49,87.12,87.12,0,0,0-15-8.16,16.29,16.29,0,0,1-4-2.3,1.91,1.91,0,0,1,2.05-3.21c8.26,4.12,16.48,8.29,24,13.72a75.62,75.62,0,0,1,11.9,10.77c1,1.13,1.52,1,2.43-.09,3.15-3.73,6.12-7.62,9.71-11a45.27,45.27,0,0,1,21.12-11.42,4.76,4.76,0,0,0,2.38-1.49,22.47,22.47,0,0,1,12.36-6.7c2.57-.46,4.58-2.22,6.74-3.58a51.45,51.45,0,0,1,6-3.45,2.36,2.36,0,0,1,2.81.15c.91.79.57,1.73.27,2.63a36.28,36.28,0,0,1-4.45,8.33c-.38.58-.77,1.16-1.27,1.89a96.84,96.84,0,0,1,13,1.67,72.43,72.43,0,0,1,11.28,3.37c.91.36,1.81.72,2,1.85S4233.2,1585,4232.32,1585.59Z"/><path class="cls-40" d="M2910.54,4042.13c21.45,1.43,36.62,11,36.25,35.93-.39,25.9-19.5,34.06-39.84,34.4-21.66.35-38.14-11.25-36.89-36.19C2871.26,4052.16,2886,4041.79,2910.54,4042.13Z"/><path class="cls-41" d="M2516.18,4078.43c-2.84,19.55-14.92,30.54-36.17,31.82-23.28,1.4-40.82-8.28-39.78-32.25.78-18,10.7-34.6,34.59-35C2498.87,4042.68,2511.42,4054.33,2516.18,4078.43Z"/><path class="cls-42" d="M2902,3766.35c-19.39-2.28-36.14-9.7-37.4-32.1-1.21-21.67,11.1-34.81,33.13-35.59,22.25-.79,40.4,6.9,40.32,32.78C2938,3753.45,2923.11,3763.41,2902,3766.35Z"/><path class="cls-43" d="M2473.13,3698.1c26.33-.07,38.52,10.31,40.15,32.8,1.78,24.64-14.43,33.4-34,33.95-20.65.58-36.43-12.79-37.93-33.09C2439.65,3709.35,2457.86,3701.53,2473.13,3698.1Z"/></g></g></svg>