<svg xmlns="http://www.w3.org/2000/svg" viewBox="0 0 2143.26 1138.57"><defs><style>.cls-1{fill:#fffef6;stroke:#fffcef;stroke-miterlimit:10;stroke-width:33.03px;}</style></defs><g id="Livello_2" data-name="Livello 2"><g id="Livello_7" data-name="Livello 7"><path class="cls-1" d="M1141.15,16.52c-544.33,0-986.67,241.11-985.6,538.54.45,125,138,279,129.34,269.14,91,83.94-239.42,280.59-266.1,296.3l.06,0c248.34-66.83,412.07-194.14,410.46-192.92-5.21-2,429.77,164.81,711.84,166.07,544.32,2.43,985.59-241.12,985.59-538.55S1685.47,16.52,1141.15,16.52Z"/><path class="cls-1" d="M18.79,1120.5c-3.15,2.12-2.92,2,0,0Z"/><path class="cls-1" d="M284.89,824.2v0C284.72,824,284.75,824.06,284.89,824.2Z"/></g></g></svg>