<svg xmlns="http://www.w3.org/2000/svg" viewBox="0 0 1523.29 5357.49"><defs><style>.cls-1{fill:#e3f1fa;stroke:#c5e2f2;stroke-width:164.47px;}.cls-1,.cls-3,.cls-4{stroke-miterlimit:10;}.cls-2{fill:#cee6f2;}.cls-3{fill:#d1d2d3;stroke:#d1d2d3;stroke-width:177.95px;}.cls-4{fill:#43a0d8;stroke:#43a0d8;stroke-width:84.39px;}</style></defs><g id="Livello_2" data-name="Livello 2"><g id="Livello_7" data-name="Livello 7"><g id="acqua"><path class="cls-1" d="M1147.39,5272.48c5.5,3.8,78.09-13.21,87.91-17.08,124.91-49.15,205.23-190.15,205.34-363.74q.64-955.38.33-1910.77,0-600.63,0-1201.26-.24-390-196.84-692.12C1107.47,877.42,971.83,639.8,1017.87,375.25c6.59-37.86-1.38-42.49-28.77-42.39-305.34,1.11-212.58,1.52-517.91-.25-34.39-.2-34.25,13.5-28,48,25.94,142.53-6.16,283.51-38.94,424.3C381.76,901.64,335,980.73,296,1065.74c-9.9,8.2-17.84,18.49-22,32.78-6,8.57-12.52,16.66-17.93,25.79C141.21,1318,82.67,1535.49,82.6,1777.27q-.24,802.32,0,1604.64,0,419.39-.1,838.78c0,227.37-.93,454.75.53,682.11.85,132.56,44.85,237.59,136.09,308.36l7.16,7.15,21.81,13.9c11.47,13.39,68.78,38.23,83.15,38.51,64.52,1.25,322.26.45,327.51,1.18C674.55,5277,1105.41,5275.57,1147.39,5272.48Z"/><path class="cls-2" d="M469.39,5148.22l-29.91.19C421,5142.61,350,5111.3,344.15,5107A428.38,428.38,0,0,1,286,5035.82c-44.49-83.14-59.76-179.45-59.61-287.57q1.53-1130,.48-2259.9c0-106.15.41-104.78,63.7-131.1,156.94-65.26,313.68-67.18,470.53-.27,167.26,71.34,333.86,63.52,499.44-12.64,24.75-11.38,30.88-1.51,32,36.68,7.75,258.83,2.69,517.78,3.24,776.65,1.13,530.44-.43,1060.9.71,1591.35.24,111.68-16.74,210.29-64.29,294.09-1.76,2.72-85.59,95.67-125.4,101.2C1092.83,5141.47,536.81,5144.75,469.39,5148.22Z"/><rect class="cls-3" x="420.47" y="88.97" width="608.92" height="243.63" rx="3.21"/><path class="cls-4" d="M693.45,3446.49c-43.42-23.72-65.5-61.41-71.39-109.37-12.42-101.27,9.35-197.63,38.12-293.44,21.34-71.1,93.94-241.3,110.7-239.74,14.36,1.33,76.08,160.48,92.85,224.31,27,102.88,54.41,207.16,33.91,315.56-8.8,46.58-76.54,103-77.35,103.36C778.05,3468.18,735.77,3460.2,693.45,3446.49Z"/></g></g></g></svg>